<svg width="86" height="13" viewBox="0 0 86 13" fill="none" xmlns="http://www.w3.org/2000/svg">
<path fill-rule="evenodd" clip-rule="evenodd" d="M29.2355 1.11463C29.1243 1.24621 29.0583 1.27379 29.0304 1.20024C28.9817 1.07178 28.6523 1.05296 28.6523 1.17855C28.6523 1.22626 28.5732 1.26529 28.4766 1.26529C28.3799 1.26529 28.3008 1.22626 28.3008 1.17855C28.3008 1.05261 27.7975 1.07196 27.7368 1.20024C27.6958 1.28697 27.6753 1.28697 27.6343 1.20024C27.6061 1.14065 27.5105 1.09182 27.4219 1.09182C27.3333 1.09182 27.2377 1.14065 27.2094 1.20024C27.1685 1.28697 27.1479 1.28697 27.107 1.20024C27.0461 1.07161 26.7188 1.0534 26.7188 1.17855C26.7188 1.22626 26.6001 1.26529 26.4551 1.26529C26.3101 1.26529 26.1914 1.22626 26.1914 1.17855C26.1914 1.13085 26.1123 1.09182 26.0156 1.09182C25.9189 1.09182 25.8398 1.13085 25.8398 1.17855C25.8398 1.22808 25.5762 1.26529 25.2246 1.26529C24.873 1.26529 24.6094 1.3025 24.6094 1.35202C24.6094 1.47718 24.282 1.45897 24.2212 1.33034C24.1802 1.2436 24.1596 1.2436 24.1187 1.33034C24.0827 1.40632 23.8086 1.43876 23.2031 1.43876C22.5941 1.43876 22.3257 1.47076 22.2942 1.54718C22.2607 1.62905 22.2249 1.62376 22.1484 1.52549C22.072 1.42722 22.0362 1.42193 22.0026 1.50381C21.9756 1.56955 21.7906 1.61223 21.5332 1.61223C21.2758 1.61223 21.0909 1.6549 21.0638 1.72065C21.0302 1.80252 20.9944 1.79723 20.918 1.69896C20.8415 1.60069 20.8057 1.5954 20.7722 1.67728C20.7476 1.73695 20.6154 1.7857 20.4785 1.7857C20.3416 1.7857 20.2064 1.73695 20.1782 1.67728C20.1372 1.59054 20.1167 1.59054 20.0757 1.67728C20.0475 1.73695 19.9123 1.7857 19.7754 1.7857C19.6385 1.7857 19.5033 1.83453 19.4751 1.89412C19.4341 1.98085 19.4135 1.98085 19.3726 1.89412C19.3118 1.76549 18.9844 1.74727 18.9844 1.87243C18.9844 1.92014 18.9053 1.95917 18.8086 1.95917C18.7119 1.95917 18.6328 1.9982 18.6328 2.0459C18.6328 2.09361 18.5537 2.13264 18.457 2.13264C18.3604 2.13264 18.2812 2.17167 18.2812 2.21937C18.2812 2.26708 18.2021 2.30611 18.1055 2.30611C18.0088 2.30611 17.9297 2.34514 17.9297 2.39284C17.9297 2.44054 18.0088 2.47958 18.1055 2.47958C18.2021 2.47958 18.2812 2.51861 18.2812 2.56631C18.2812 2.61401 18.1626 2.65304 18.0176 2.65304C17.8726 2.65304 17.7539 2.61401 17.7539 2.56631C17.7539 2.51861 17.6781 2.47958 17.5854 2.47958C17.4928 2.47958 17.3969 2.43083 17.3724 2.37116C17.3388 2.28928 17.303 2.29457 17.2266 2.39284C17.1501 2.49111 17.1143 2.4964 17.0808 2.41452C17.0562 2.35494 16.9636 2.30611 16.875 2.30611C16.7864 2.30611 16.6962 2.25736 16.6746 2.19769C16.6531 2.1381 16.6015 2.12067 16.56 2.159C16.5185 2.19743 16.5393 2.26213 16.6061 2.30298C16.7078 2.365 16.7048 2.39969 16.5879 2.51505C16.4204 2.68036 16.2061 2.69433 16.1352 2.54463C16.0943 2.45789 16.0737 2.45789 16.0327 2.54463C15.9968 2.62069 15.7212 2.65304 15.1099 2.65304C14.5874 2.65304 14.2383 2.68782 14.2383 2.73978C14.2383 2.78783 14.0063 2.82651 13.7182 2.82651C13.3882 2.82651 13.1796 2.86615 13.1469 2.93493C13.106 3.02167 13.0854 3.02167 13.0445 2.93493C12.9829 2.80492 12.1289 2.78471 12.1289 2.91325C12.1289 3.03953 11.6234 3.01967 11.5768 2.89156C11.5501 2.81801 11.4807 2.84594 11.3614 2.9783C11.24 3.113 11.0865 3.17345 10.8662 3.17345C10.6906 3.17345 10.5469 3.21248 10.5469 3.26019C10.5469 3.38613 10.0436 3.36678 9.98288 3.2385C9.94192 3.15177 9.92136 3.15177 9.8804 3.2385C9.85219 3.29818 9.75331 3.34692 9.66067 3.34692C9.56795 3.34692 9.49219 3.38595 9.49219 3.43366C9.49219 3.48136 9.33398 3.52039 9.14062 3.52039C8.94727 3.52039 8.78906 3.55942 8.78906 3.60713C8.78906 3.65483 8.63086 3.69386 8.4375 3.69386C8.24414 3.69386 8.08594 3.73289 8.08594 3.7806C8.08594 3.8283 7.88818 3.86733 7.64648 3.86733C7.40479 3.86733 7.20703 3.90636 7.20703 3.95406C7.20703 4.00177 7.08838 4.0408 6.94336 4.0408C6.79834 4.0408 6.67969 4.07983 6.67969 4.12753C6.67969 4.17524 6.60059 4.21427 6.50391 4.21427C6.40723 4.21427 6.32812 4.2533 6.32812 4.301C6.32812 4.34871 6.25772 4.38774 6.17177 4.38774C6.08572 4.38774 5.95837 4.4658 5.88867 4.56121C5.81897 4.65662 5.69162 4.73468 5.60558 4.73468C5.51962 4.73468 5.44922 4.796 5.44922 4.87094C5.44922 5.07572 5.22642 5.25508 4.97206 5.25508C4.84778 5.25508 4.74609 5.29411 4.74609 5.34182C4.74609 5.38952 4.62744 5.42855 4.48242 5.42855C4.3374 5.42855 4.21875 5.46758 4.21875 5.51529C4.21875 5.56299 4.06055 5.60202 3.86719 5.60202C3.67383 5.60202 3.51562 5.64105 3.51562 5.68876C3.51562 5.73646 3.39697 5.77549 3.25195 5.77549C3.10693 5.77549 2.98828 5.81452 2.98828 5.86223C2.98828 5.90993 2.86963 5.94896 2.72461 5.94896C2.57959 5.94896 2.46094 5.98799 2.46094 6.0357C2.46094 6.0834 2.38184 6.12243 2.28516 6.12243C2.18848 6.12243 2.10938 6.16146 2.10938 6.20917C2.10938 6.25687 1.99072 6.2959 1.8457 6.2959C1.70068 6.2959 1.58203 6.33493 1.58203 6.38264C1.58203 6.43034 1.50293 6.46937 1.40625 6.46937C1.30957 6.46937 1.23047 6.5084 1.23047 6.55611C1.23047 6.68178 1.56015 6.66279 1.60682 6.53442C1.63354 6.46087 1.70288 6.4888 1.82224 6.62116C1.919 6.72853 2.04574 6.81631 2.10401 6.81631C2.21186 6.81631 2.46094 7.02378 2.46094 7.11372C2.46094 7.14096 2.38184 7.16325 2.28516 7.16325C2.18848 7.16325 2.10938 7.20228 2.10938 7.24998C2.10938 7.29769 1.99072 7.33672 1.8457 7.33672C1.64065 7.33672 1.58203 7.37523 1.58203 7.51019C1.58203 7.60559 1.62158 7.68366 1.66992 7.68366C1.71826 7.68366 1.75781 7.64463 1.75781 7.59692C1.75781 7.54922 1.95231 7.51019 2.18997 7.51019C2.44969 7.51019 2.64252 7.46691 2.67337 7.40177C2.71433 7.31503 2.73489 7.31503 2.77585 7.40177C2.83667 7.5304 3.16406 7.54861 3.16406 7.42345C3.16406 7.37393 3.42773 7.33672 3.7793 7.33672C4.13086 7.33672 4.39453 7.29951 4.39453 7.24998C4.39453 7.20228 4.51318 7.16325 4.6582 7.16325C4.80322 7.16325 4.92188 7.12422 4.92188 7.07651C4.92188 7.02881 5.11963 6.98978 5.36133 6.98978C5.60303 6.98978 5.80078 6.95075 5.80078 6.90304C5.80078 6.85534 5.91943 6.81631 6.06445 6.81631C6.20947 6.81631 6.32812 6.77728 6.32812 6.72958C6.32812 6.68135 6.56253 6.64284 6.85547 6.64284C7.14841 6.64284 7.38281 6.60433 7.38281 6.55611C7.38281 6.5084 7.58057 6.46937 7.82227 6.46937C8.06396 6.46937 8.26172 6.43034 8.26172 6.38264C8.26172 6.33459 8.49366 6.2959 8.78177 6.2959C9.1154 6.2959 9.31773 6.25704 9.34638 6.18748C9.37995 6.1056 9.41572 6.1109 9.49219 6.20917C9.56865 6.30744 9.60442 6.31273 9.638 6.23085C9.66252 6.17126 9.75516 6.12243 9.84375 6.12243C9.93234 6.12243 10.025 6.17126 10.0495 6.23085C10.083 6.31247 10.1174 6.30709 10.1886 6.20917C10.2717 6.09494 10.2934 6.09468 10.3663 6.20665C10.4121 6.27682 10.4812 6.30076 10.5202 6.25982C10.559 6.21888 10.5414 6.16797 10.481 6.14672C10.2469 6.06423 10.3877 5.94896 10.7227 5.94896C10.916 5.94896 11.0742 5.98799 11.0742 6.0357C11.0742 6.18904 11.3828 6.12816 11.5137 5.94896C11.6152 5.80993 11.7412 5.77549 12.1483 5.77549C12.4283 5.77549 12.6562 5.73655 12.6562 5.68876C12.6562 5.63923 12.9199 5.60202 13.2715 5.60202C13.623 5.60202 13.8867 5.56481 13.8867 5.51529C13.8867 5.46576 14.1504 5.42855 14.502 5.42855C14.8535 5.42855 15.1172 5.39134 15.1172 5.34182C15.1172 5.29411 15.2754 5.25508 15.4688 5.25508C15.7617 5.25508 15.8203 5.28397 15.8203 5.42855C15.8203 5.58277 15.7617 5.60202 15.293 5.60202C15 5.60202 14.7656 5.64053 14.7656 5.68876C14.7656 5.73785 14.5127 5.77549 14.1826 5.77549C13.6889 5.77549 13.5728 5.80533 13.4238 5.97065C13.3044 6.103 13.2351 6.13093 13.2084 6.05738C13.1867 5.99771 13.1101 5.94896 13.0381 5.94896C12.9107 5.94896 12.6562 6.14715 12.6562 6.24638C12.6562 6.34465 12.9944 6.29338 13.0445 6.18748C13.0854 6.10075 13.106 6.10075 13.1469 6.18748C13.2133 6.32782 13.5054 6.32782 13.5718 6.18748C13.6128 6.10075 13.6333 6.10075 13.6743 6.18748C13.7025 6.24716 13.8804 6.2959 14.0698 6.2959C14.4415 6.2959 14.5291 6.45489 14.2885 6.69236C14.1459 6.83314 13.3594 6.86462 13.3594 6.72958C13.3594 6.68187 13.2803 6.64284 13.1836 6.64284C13.0869 6.64284 13.0078 6.68187 13.0078 6.72958C13.0078 6.85473 12.6804 6.83652 12.6196 6.70789C12.5786 6.62116 12.5581 6.62116 12.5171 6.70789C12.4563 6.83652 12.1289 6.85473 12.1289 6.72958C12.1289 6.68187 12.0498 6.64284 11.9531 6.64284C11.8432 6.64284 11.7773 6.70069 11.7773 6.79714C11.7773 6.88205 11.6982 7.00773 11.6016 7.07651C11.42 7.20566 11.3583 7.51019 11.5137 7.51019C11.562 7.51019 11.6016 7.47116 11.6016 7.42345C11.6016 7.37575 11.6411 7.33672 11.6895 7.33672C11.7378 7.33672 11.7773 7.41478 11.7773 7.51019C11.7773 7.70534 12.08 7.75608 12.1656 7.57524C12.2065 7.4885 12.2271 7.4885 12.268 7.57524C12.3061 7.65573 12.7027 7.68366 13.8061 7.68366C14.7387 7.68366 15.293 7.71601 15.293 7.77039C15.293 7.89555 15.6204 7.87734 15.6812 7.74871C15.7221 7.66197 15.7427 7.66197 15.7837 7.74871C15.8119 7.80838 15.9108 7.85713 16.0034 7.85713C16.096 7.85713 16.1719 7.89616 16.1719 7.94386C16.1719 7.99156 16.251 8.03059 16.3477 8.03059C16.4443 8.03059 16.5234 7.99156 16.5234 7.94386C16.5234 7.89616 16.6816 7.85713 16.875 7.85713C17.0684 7.85713 17.2266 7.81809 17.2266 7.77039C17.2266 7.72269 17.2661 7.68366 17.3145 7.68366C17.3628 7.68366 17.4023 7.76172 17.4023 7.85713C17.4023 7.95253 17.4419 8.03059 17.4902 8.03059C17.5386 8.03059 17.5781 7.99156 17.5781 7.94386C17.5781 7.89616 17.7363 7.85713 17.9297 7.85713C18.123 7.85713 18.2812 7.89616 18.2812 7.94386C18.2812 7.99156 18.3604 8.03059 18.457 8.03059C18.5537 8.03059 18.6328 8.06963 18.6328 8.11733C18.6328 8.16503 18.7119 8.20406 18.8086 8.20406C18.9053 8.20406 18.9844 8.16503 18.9844 8.11733C18.9844 8.06963 19.1426 8.03059 19.3359 8.03059C19.5293 8.03059 19.6875 8.06963 19.6875 8.11733C19.6875 8.16503 19.7634 8.20406 19.856 8.20406C19.9486 8.20406 20.0475 8.2529 20.0757 8.31248C20.1167 8.39922 20.1372 8.39922 20.1782 8.31248C20.2409 8.17986 21.4453 8.15922 21.4453 8.2908C21.4453 8.34128 21.7359 8.37753 22.1411 8.37753C22.6154 8.37753 22.8511 8.41205 22.8815 8.48595C22.915 8.56757 22.9495 8.56219 23.0207 8.46427C23.1047 8.34865 23.1258 8.34865 23.2098 8.46427C23.281 8.56219 23.3154 8.56757 23.3489 8.48595C23.4018 8.3575 23.7305 8.33876 23.7305 8.46427C23.7305 8.5157 24.0528 8.551 24.5215 8.551C24.9902 8.551 25.3125 8.5863 25.3125 8.63774C25.3125 8.6883 25.6054 8.72447 26.0156 8.72447C26.4258 8.72447 26.7188 8.6883 26.7188 8.63774C26.7188 8.59003 26.7979 8.551 26.8945 8.551C26.9912 8.551 27.0703 8.59003 27.0703 8.63774C27.0703 8.68544 27.1494 8.72447 27.2461 8.72447C27.3428 8.72447 27.4219 8.7635 27.4219 8.81121C27.4219 8.93637 27.7493 8.91815 27.8101 8.78952C27.851 8.70279 27.8716 8.70279 27.9126 8.78952C27.9408 8.8492 28.076 8.89794 28.2129 8.89794C28.3498 8.89794 28.485 8.8492 28.5132 8.78952C28.5542 8.70279 28.5747 8.70279 28.6157 8.78952C28.6504 8.8629 28.8921 8.89794 29.3628 8.89794C29.768 8.89794 30.0586 8.9342 30.0586 8.98468C30.0586 9.03238 30.1772 9.07141 30.3223 9.07141C30.4673 9.07141 30.5859 9.03238 30.5859 8.98468C30.5859 8.93697 30.665 8.89794 30.7617 8.89794C30.8584 8.89794 30.9375 8.93697 30.9375 8.98468C30.9375 9.11886 32.6682 9.09795 32.732 8.96299C32.7729 8.87626 32.7935 8.87626 32.8344 8.96299C32.8653 9.02813 33.0581 9.07141 33.3178 9.07141C33.6914 9.07141 33.75 9.09492 33.75 9.24488C33.75 9.34029 33.7896 9.41835 33.8379 9.41835C33.8862 9.41835 33.9258 9.37932 33.9258 9.33161C33.9258 9.28391 34.084 9.24488 34.2773 9.24488C34.4707 9.24488 34.6289 9.28391 34.6289 9.33161C34.6289 9.38114 34.8926 9.41835 35.2441 9.41835C35.5957 9.41835 35.8594 9.45556 35.8594 9.50508C35.8594 9.55279 36.0142 9.59182 36.2036 9.59182C36.393 9.59182 36.5709 9.64056 36.5992 9.70024C36.6401 9.78697 36.6607 9.78697 36.7016 9.70024C36.7624 9.57196 37.2656 9.55261 37.2656 9.67855C37.2656 9.72626 37.3447 9.76529 37.4414 9.76529C37.5381 9.76529 37.6172 9.80432 37.6172 9.85202C37.6172 9.89973 37.6963 9.93876 37.793 9.93876C37.8896 9.93876 37.9688 9.89973 37.9688 9.85202C37.9688 9.80432 38.1665 9.76529 38.4082 9.76529C38.6499 9.76529 38.8477 9.80432 38.8477 9.85202C38.8477 9.90155 39.1113 9.93876 39.4629 9.93876C39.8145 9.93876 40.0781 9.97597 40.0781 10.0255C40.0781 10.1507 40.4055 10.1324 40.4663 10.0038C40.5073 9.91708 40.5279 9.91708 40.5688 10.0038C40.597 10.0635 40.6959 10.1122 40.7885 10.1122C40.8812 10.1122 40.957 10.1513 40.957 10.199C40.957 10.2467 41.067 10.2857 41.2013 10.2857C41.3447 10.2857 41.4978 10.3573 41.5723 10.4592C41.7031 10.6384 42.0117 10.6992 42.0117 10.5459C42.0117 10.4982 42.1304 10.4592 42.2754 10.4592C42.4204 10.4592 42.5391 10.4982 42.5391 10.5459C42.5391 10.5936 42.6149 10.6326 42.7076 10.6326C42.8002 10.6326 42.8991 10.6815 42.9273 10.7411C42.9682 10.8278 42.9888 10.8278 43.0298 10.7411C43.0906 10.6124 43.418 10.5942 43.418 10.7194C43.418 10.7671 43.4971 10.8061 43.5938 10.8061C43.6904 10.8061 43.7695 10.8451 43.7695 10.8928C43.7695 11.018 44.0969 10.9998 44.1577 10.8712C44.1987 10.7844 44.2193 10.7844 44.2602 10.8712C44.2941 10.9425 44.5191 10.9796 44.9194 10.9796C45.2661 10.9796 45.5273 11.0169 45.5273 11.0663C45.5273 11.1949 46.3814 11.1746 46.4429 11.0446C46.4839 10.9579 46.5044 10.9579 46.5454 11.0446C46.578 11.1134 46.7866 11.153 47.1167 11.153C47.4048 11.153 47.6367 11.1917 47.6367 11.2398C47.6367 11.2875 47.7554 11.3265 47.9004 11.3265C48.0454 11.3265 48.1641 11.3655 48.1641 11.4132C48.1641 11.461 48.2432 11.5 48.3398 11.5C48.4365 11.5 48.5156 11.461 48.5156 11.4132C48.5156 11.2871 49.0202 11.3067 49.0729 11.4349C49.1067 11.5171 49.1392 11.5125 49.2071 11.416C49.2827 11.3086 49.3269 11.3222 49.4893 11.5028C49.6173 11.645 49.6951 11.6805 49.7213 11.6084C49.7692 11.4767 50.8008 11.456 50.8008 11.5867C50.8008 11.6344 50.9194 11.6735 51.0645 11.6735C51.2095 11.6735 51.3281 11.6344 51.3281 11.5867C51.3281 11.539 51.4468 11.5 51.5918 11.5C51.7368 11.5 51.8555 11.539 51.8555 11.5867C51.8555 11.6349 52.0899 11.6735 52.3828 11.6735C52.6758 11.6735 52.9102 11.712 52.9102 11.7602C52.9102 11.8902 53.9394 11.8698 54.0015 11.7385C54.0425 11.6518 54.063 11.6518 54.104 11.7385C54.1678 11.8735 55.8984 11.8944 55.8984 11.7602C55.8984 11.7125 56.0171 11.6735 56.1621 11.6735C56.3071 11.6735 56.4258 11.7125 56.4258 11.7602C56.4258 11.8079 56.5015 11.8469 56.5943 11.8469C56.6869 11.8469 56.7858 11.8958 56.814 11.9553C56.855 12.0421 56.8755 12.0421 56.9165 11.9553C56.9447 11.8958 57.0403 11.8469 57.1289 11.8469C57.2175 11.8469 57.3131 11.7982 57.3413 11.7385C57.3823 11.6518 57.4029 11.6518 57.4438 11.7385C57.472 11.7982 57.6499 11.8469 57.8393 11.8469C58.125 11.8469 58.1836 11.8764 58.1836 12.0204C58.1836 12.1553 58.2422 12.1939 58.4473 12.1939C58.6817 12.1939 58.7109 12.165 58.7109 11.9337C58.7109 11.6739 58.7117 11.6735 59.231 11.6735C59.561 11.6735 59.7697 11.7131 59.8023 11.7819C59.8432 11.8686 59.8638 11.8686 59.9048 11.7819C59.933 11.7222 60.0714 11.6735 60.2124 11.6735C60.3534 11.6735 60.4688 11.6344 60.4688 11.5867C60.4688 11.539 60.5083 11.5 60.5566 11.5C60.605 11.5 60.6445 11.578 60.6445 11.6735C60.6445 11.7689 60.605 11.8469 60.5566 11.8469C60.5083 11.8469 60.4688 11.925 60.4688 12.0204C60.4688 12.2155 60.7714 12.2663 60.857 12.0854C60.8979 11.9987 60.9185 11.9987 60.9594 12.0854C60.9903 12.1506 61.1831 12.1939 61.4428 12.1939C61.6806 12.1939 61.875 12.2329 61.875 12.2806C61.875 12.3283 61.9937 12.3673 62.1387 12.3673C62.2837 12.3673 62.4023 12.3283 62.4023 12.2806C62.4023 12.2329 62.4781 12.1939 62.5708 12.1939C62.6635 12.1939 62.7623 12.1451 62.7906 12.0854C62.8315 11.9987 62.8521 11.9987 62.893 12.0854C62.9255 12.154 63.1328 12.1939 63.457 12.1939C63.7813 12.1939 63.9886 12.154 64.021 12.0854C64.062 11.9987 64.0825 11.9987 64.1235 12.0854C64.1901 12.2262 64.6575 12.2262 64.7242 12.0854C64.7651 11.9987 64.7857 11.9987 64.8266 12.0854C64.8548 12.1451 64.9933 12.1939 65.1342 12.1939C65.2753 12.1939 65.3906 12.2329 65.3906 12.2806C65.3906 12.3283 65.5093 12.3673 65.6543 12.3673C65.7993 12.3673 65.918 12.3283 65.918 12.2806C65.918 12.2329 66.0762 12.1939 66.2695 12.1939C66.4629 12.1939 66.6211 12.2329 66.6211 12.2806C66.6211 12.3301 66.8848 12.3673 67.2363 12.3673C67.5879 12.3673 67.8516 12.3301 67.8516 12.2806C67.8516 12.2329 67.9307 12.1939 68.0273 12.1939C68.124 12.1939 68.2031 12.1548 68.2031 12.1071C68.2031 12.0594 68.3185 12.0204 68.4595 12.0204C68.6005 12.0204 68.7389 11.9716 68.7671 11.912C68.8081 11.8252 68.8286 11.8252 68.8696 11.912C68.8978 11.9716 69.0362 12.0204 69.1772 12.0204C69.3183 12.0204 69.4336 12.0594 69.4336 12.1071C69.4336 12.1548 69.5522 12.1939 69.6973 12.1939C69.8423 12.1939 69.9609 12.1548 69.9609 12.1071C69.9609 12.0594 70.1587 12.0204 70.4004 12.0204C70.6421 12.0204 70.8398 11.9814 70.8398 11.9337C70.8398 11.8831 71.1328 11.8469 71.543 11.8469C71.9532 11.8469 72.2461 11.8108 72.2461 11.7602C72.2461 11.7076 72.6269 11.6735 73.2129 11.6735C73.7989 11.6735 74.1797 11.6393 74.1797 11.5867C74.1797 11.5373 74.4409 11.5 74.7876 11.5C75.188 11.5 75.413 11.4629 75.4468 11.3916C75.4878 11.3048 75.5083 11.3048 75.5493 11.3916C75.6101 11.5202 75.9375 11.5384 75.9375 11.4132C75.9375 11.3655 76.0166 11.3265 76.1133 11.3265C76.21 11.3265 76.2891 11.2875 76.2891 11.2398C76.2891 11.1921 76.4077 11.153 76.5527 11.153C76.6978 11.153 76.8164 11.1921 76.8164 11.2398C76.8164 11.2875 76.9351 11.3265 77.0801 11.3265C77.2251 11.3265 77.3438 11.2875 77.3438 11.2398C77.3438 11.1921 77.4624 11.153 77.6074 11.153C77.7524 11.153 77.8711 11.114 77.8711 11.0663C77.8711 11.0186 77.9897 10.9796 78.1348 10.9796C78.2798 10.9796 78.3984 10.9405 78.3984 10.8928C78.3984 10.8451 78.5962 10.8061 78.8379 10.8061C79.0796 10.8061 79.2773 10.7671 79.2773 10.7194C79.2773 10.6717 79.3927 10.6326 79.5337 10.6326C79.6747 10.6326 79.8101 10.5839 79.8347 10.5242C79.8682 10.4423 79.904 10.4476 79.9805 10.5459C80.0569 10.6442 80.0927 10.6495 80.1263 10.5676C80.1508 10.508 80.2862 10.4592 80.4272 10.4592C80.5683 10.4592 80.6836 10.4201 80.6836 10.3724C80.6836 10.3247 80.8418 10.2857 81.0352 10.2857C81.2285 10.2857 81.3867 10.2467 81.3867 10.199C81.3867 10.1513 81.4658 10.1122 81.5625 10.1122C81.6592 10.1122 81.7383 10.0732 81.7383 10.0255C81.7383 9.97779 81.8798 9.93876 82.0528 9.93876C82.3069 9.93876 82.4348 9.86937 82.7195 9.57699C82.9812 9.3082 83.09 9.24462 83.1432 9.32954C83.1981 9.41722 83.2678 9.39137 83.4433 9.21817C83.569 9.09405 83.6719 8.9322 83.6719 8.85848C83.6719 8.78233 83.7477 8.72447 83.8477 8.72447C83.9783 8.72447 84.0234 8.66662 84.0234 8.49905C84.0234 8.36045 84.125 8.18004 84.2871 8.03059C84.4493 7.88115 84.5508 7.70074 84.5508 7.56214C84.5508 7.43811 84.5903 7.33672 84.6387 7.33672C84.687 7.33672 84.7266 7.26724 84.7266 7.18242C84.7266 7.0975 84.8057 6.97183 84.9023 6.90304C85.0248 6.81596 85.0781 6.67849 85.0781 6.4502C85.0781 6.21003 85.115 6.12243 85.2162 6.12243C85.3938 6.12243 85.6055 5.91357 85.6055 5.73828C85.6055 5.66335 85.645 5.60202 85.6934 5.60202C85.8282 5.60202 85.7977 4.9987 85.6557 4.85862C85.513 4.71776 85.0781 4.68975 85.0781 4.82141C85.0781 4.86912 84.8804 4.90815 84.6387 4.90815C84.397 4.90815 84.1992 4.94718 84.1992 4.99488C84.1992 5.04258 84.0839 5.08161 83.9428 5.08161C83.8019 5.08161 83.6634 5.13036 83.6352 5.19003C83.5943 5.27677 83.5737 5.27677 83.5327 5.19003C83.4665 5.04987 83.1701 5.04935 83.1228 5.18925C83.0967 5.26662 83.0435 5.25448 82.9334 5.14588C82.7908 5.00511 82.7903 4.98508 82.9265 4.85073C83.0505 4.72835 83.0857 4.72505 83.1592 4.82904C83.2257 4.92298 83.2562 4.92627 83.2903 4.8431C83.3149 4.78351 83.4333 4.73468 83.5537 4.73468C83.6739 4.73468 83.8288 4.67891 83.8978 4.61073C84.0808 4.43024 84.0534 4.21427 83.8477 4.21427C83.751 4.21427 83.6719 4.2533 83.6719 4.301C83.6719 4.34871 83.5532 4.38774 83.4082 4.38774C83.2632 4.38774 83.1445 4.42677 83.1445 4.47447C83.1445 4.52218 83.0292 4.56121 82.8882 4.56121C82.7472 4.56121 82.6087 4.60995 82.5805 4.66963C82.5396 4.75636 82.519 4.75636 82.4781 4.66963C82.4442 4.59824 82.2192 4.56121 81.8189 4.56121C81.4721 4.56121 81.2109 4.52391 81.2109 4.47447C81.2109 4.42677 81.29 4.38774 81.3867 4.38774C81.4834 4.38774 81.5625 4.34871 81.5625 4.301C81.5625 4.2533 81.4834 4.21427 81.3867 4.21427C81.29 4.21427 81.2109 4.17524 81.2109 4.12753C81.2109 4.07983 81.1318 4.0408 81.0352 4.0408C80.918 4.0408 80.8594 4.09865 80.8594 4.21427C80.8594 4.30968 80.8989 4.38774 80.9473 4.38774C80.9956 4.38774 81.0352 4.4658 81.0352 4.56121C81.0352 4.70579 80.9765 4.73468 80.6836 4.73468C80.4902 4.73468 80.332 4.69565 80.332 4.64794C80.332 4.60024 80.4111 4.56121 80.5078 4.56121C80.6999 4.56121 80.7484 4.42347 80.5762 4.36684C80.4363 4.32087 80.8891 3.86733 81.0751 3.86733C81.1499 3.86733 81.2109 3.8283 81.2109 3.7806C81.2109 3.73289 81.29 3.69386 81.3867 3.69386C81.4834 3.69386 81.5625 3.65483 81.5625 3.60713C81.5625 3.55942 81.6416 3.52039 81.7383 3.52039C81.835 3.52039 81.9141 3.48136 81.9141 3.43366C81.9141 3.38595 82.1031 3.34692 82.3341 3.34692C82.6533 3.34692 82.7845 3.30529 82.8809 3.17345C82.9553 3.07163 83.1084 2.99998 83.2518 2.99998C83.3861 2.99998 83.4961 2.96095 83.4961 2.91325C83.4961 2.86554 83.5752 2.82651 83.6719 2.82651C83.8086 2.82651 83.8477 2.76866 83.8477 2.56631C83.8477 2.30212 83.7287 2.21703 83.6352 2.41452C83.5943 2.50126 83.5737 2.50126 83.5327 2.41452C83.5045 2.35494 83.4057 2.30611 83.313 2.30611C83.2203 2.30611 83.1445 2.26708 83.1445 2.21937C83.1445 2.09421 82.8171 2.11243 82.7563 2.24105C82.7154 2.32779 82.6948 2.32779 82.6538 2.24105C82.6256 2.18147 82.4872 2.13264 82.3462 2.13264C82.2052 2.13264 82.0898 2.09361 82.0898 2.0459C82.0898 1.9982 81.9712 1.95917 81.8262 1.95917C81.6812 1.95917 81.5625 1.92014 81.5625 1.87243C81.5625 1.74675 81.2328 1.76575 81.1862 1.89412C81.1594 1.96767 81.0901 1.93974 80.9707 1.80738C80.7949 1.61223 80.332 1.53373 80.332 1.69896C80.332 1.74667 80.2167 1.7857 80.0757 1.7857C79.9347 1.7857 79.7962 1.83453 79.768 1.89412C79.7271 1.98085 79.7065 1.98085 79.6656 1.89412C79.6373 1.83453 79.5417 1.7857 79.4531 1.7857C79.3645 1.7857 79.2743 1.73695 79.2526 1.67728C79.2264 1.6052 79.1463 1.64146 79.0137 1.7857C78.881 1.92994 78.801 1.96619 78.7748 1.89412C78.7281 1.76575 78.3984 1.74675 78.3984 1.87243C78.3984 1.92014 78.2402 1.95917 78.0469 1.95917C77.8535 1.95917 77.6953 1.9982 77.6953 2.0459C77.6953 2.09361 77.6162 2.13264 77.5195 2.13264C77.4229 2.13264 77.3438 2.09361 77.3438 2.0459C77.3438 1.91953 76.6646 1.93948 76.604 2.06758C76.563 2.15432 76.5425 2.15432 76.5015 2.06758C76.4236 1.90296 76.1676 1.93792 76.0254 2.13264C75.8945 2.31183 75.5859 2.37272 75.5859 2.21937C75.5859 2.17167 75.3882 2.13264 75.1465 2.13264C74.9048 2.13264 74.707 2.17167 74.707 2.21937C74.707 2.26708 74.5575 2.30611 74.3749 2.30611C74.1436 2.30611 74.0043 2.35875 73.916 2.47958C73.7851 2.65877 73.4766 2.71966 73.4766 2.56631C73.4766 2.51375 73.0957 2.47958 72.5098 2.47958C71.9238 2.47958 71.543 2.51375 71.543 2.56631C71.543 2.61401 71.4243 2.65304 71.2793 2.65304C71.1343 2.65304 71.0156 2.69207 71.0156 2.73978C71.0156 2.78783 70.7837 2.82651 70.4956 2.82651C70.1655 2.82651 69.9569 2.86615 69.9243 2.93493C69.8833 3.02167 69.8628 3.02167 69.8218 2.93493C69.7533 2.79017 68.9381 2.79017 68.8696 2.93493C68.8286 3.02167 68.8081 3.02167 68.7671 2.93493C68.7363 2.86979 68.5434 2.82651 68.2837 2.82651C67.9102 2.82651 67.8516 2.85002 67.8516 2.99998C67.8516 3.15897 67.7929 3.17345 67.1484 3.17345C66.7383 3.17345 66.4453 3.13728 66.4453 3.08672C66.4453 2.96078 65.942 2.98012 65.8813 3.1084C65.8404 3.19514 65.8198 3.19514 65.7788 3.1084C65.7506 3.04881 65.6122 2.99998 65.4712 2.99998C65.2735 2.99998 65.2148 3.03962 65.2148 3.17345C65.2148 3.26886 65.1753 3.34692 65.127 3.34692C65.0786 3.34692 65.0391 3.30789 65.0391 3.26019C65.0391 3.12861 63.8347 3.14925 63.7719 3.28187C63.731 3.36861 63.7104 3.36861 63.6695 3.28187C63.6369 3.21309 63.4282 3.17345 63.0982 3.17345C62.8101 3.17345 62.5781 3.13477 62.5781 3.08672C62.5781 3.03901 62.499 2.99998 62.4023 2.99998C62.3057 2.99998 62.2266 3.03901 62.2266 3.08672C62.2266 3.13442 62.0288 3.17345 61.7871 3.17345C61.5454 3.17345 61.3477 3.13442 61.3477 3.08672C61.3477 2.96156 61.0203 2.97977 60.9594 3.1084C60.9185 3.19514 60.8979 3.19514 60.857 3.1084C60.7962 2.98012 60.293 2.96078 60.293 3.08672C60.293 3.21673 59.2638 3.19635 59.2016 3.06503C59.1607 2.9783 59.1401 2.9783 59.0992 3.06503C59.0385 3.19314 58.3594 3.21309 58.3594 3.08672C58.3594 3.03901 58.2803 2.99998 58.1836 2.99998C58.0869 2.99998 58.0078 3.03901 58.0078 3.08672C58.0078 3.13442 57.8496 3.17345 57.6562 3.17345C57.4629 3.17345 57.3047 3.13442 57.3047 3.08672C57.3047 2.9567 56.2755 2.97709 56.2133 3.1084C56.1724 3.19514 56.1518 3.19514 56.1109 3.1084C56.0827 3.04881 55.9838 2.99998 55.8911 2.99998C55.7985 2.99998 55.7227 2.96095 55.7227 2.91325C55.7227 2.86554 55.6436 2.82651 55.5469 2.82651C55.4502 2.82651 55.3711 2.86554 55.3711 2.91325C55.3711 2.96095 55.292 2.99998 55.1953 2.99998C55.0986 2.99998 55.0195 2.96095 55.0195 2.91325C55.0195 2.86554 54.9404 2.82651 54.8438 2.82651C54.7471 2.82651 54.668 2.86554 54.668 2.91325C54.668 3.04326 53.6388 3.02288 53.5766 2.89156C53.5357 2.80483 53.5151 2.80483 53.4742 2.89156C53.4133 3.02019 53.0859 3.03841 53.0859 2.91325C53.0859 2.78809 52.7585 2.8063 52.6977 2.93493C52.6568 3.02167 52.6362 3.02167 52.5952 2.93493C52.5321 2.80136 51.1523 2.78063 51.1523 2.91325C51.1523 3.03962 50.4732 3.01967 50.4126 2.89156C50.3716 2.80483 50.351 2.80483 50.3101 2.89156C50.2819 2.95124 50.1071 2.99998 49.9219 2.99998C49.7348 2.99998 49.5651 3.04821 49.5403 3.1084C49.5069 3.19002 49.4724 3.18464 49.4012 3.08672C49.3172 2.9711 49.2969 2.9711 49.2188 3.08672C49.1406 3.20233 49.1203 3.20233 49.0363 3.08672C48.9651 2.98879 48.9306 2.98342 48.8972 3.06503C48.8726 3.12471 48.78 3.17345 48.6914 3.17345C48.6028 3.17345 48.5072 3.12471 48.479 3.06503C48.438 2.9783 48.4175 2.9783 48.3765 3.06503C48.3397 3.14284 48.0313 3.17345 47.2852 3.17345C46.5391 3.17345 46.2306 3.20407 46.1938 3.28187C46.1529 3.36861 46.1323 3.36861 46.0913 3.28187C46.0306 3.15359 45.5273 3.13425 45.5273 3.26019C45.5273 3.38873 44.6733 3.36852 44.6118 3.2385C44.5708 3.15177 44.5503 3.15177 44.5093 3.2385C44.4769 3.30702 44.2695 3.34692 43.9453 3.34692C43.6211 3.34692 43.4137 3.38682 43.3813 3.45534C43.3404 3.54208 43.3198 3.54208 43.2788 3.45534C43.2442 3.38214 43.0039 3.34692 42.5391 3.34692C42.0742 3.34692 41.8339 3.31171 41.7993 3.2385C41.7583 3.15177 41.7378 3.15177 41.6968 3.2385C41.6686 3.29818 41.573 3.34692 41.4844 3.34692C41.3958 3.34692 41.3055 3.29818 41.2838 3.2385C41.2571 3.16495 41.1877 3.19288 41.0684 3.32524C40.8891 3.52421 40.6055 3.59056 40.6055 3.43366C40.6055 3.38595 40.6846 3.34692 40.7812 3.34692C40.8984 3.34692 40.957 3.28907 40.957 3.17345C40.957 3.07804 40.9966 2.99998 41.0449 2.99998C41.206 2.99998 41.1354 2.73457 40.917 2.51904C40.6555 2.26092 40.6055 2.25459 40.6055 2.47958C40.6055 2.57498 40.645 2.65304 40.6934 2.65304C40.7417 2.65304 40.7812 2.7311 40.7812 2.82651C40.7812 2.92192 40.7417 2.99998 40.6934 2.99998C40.645 2.99998 40.6055 2.96095 40.6055 2.91325C40.6055 2.78783 40.2754 2.80639 40.2322 2.93415C40.1838 3.07744 39.9023 2.80587 39.9023 2.61583C39.9023 2.5409 39.8628 2.47958 39.8145 2.47958C39.7661 2.47958 39.7266 2.41929 39.7266 2.34557C39.7266 2.16195 39.267 1.71509 39.2204 1.85318C39.1762 1.98406 37.9688 2.00253 37.9688 1.87243C37.9688 1.82473 37.8896 1.7857 37.793 1.7857C37.6963 1.7857 37.6172 1.74667 37.6172 1.69896C37.6172 1.65126 37.4985 1.61223 37.3535 1.61223C37.2085 1.61223 37.0898 1.65126 37.0898 1.69896C37.0898 1.74667 37.0107 1.7857 36.9141 1.7857C36.8174 1.7857 36.7383 1.74667 36.7383 1.69896C36.7383 1.65126 36.6592 1.61223 36.5625 1.61223C36.4658 1.61223 36.3867 1.65126 36.3867 1.69896C36.3867 1.74667 36.3076 1.7857 36.2109 1.7857C36.1143 1.7857 36.0352 1.74667 36.0352 1.69896C36.0352 1.65126 36.0747 1.61223 36.123 1.61223C36.1714 1.61223 36.2109 1.5732 36.2109 1.52549C36.2109 1.47779 36.1318 1.43876 36.0352 1.43876C35.9385 1.43876 35.8594 1.47779 35.8594 1.52549C35.8594 1.5732 35.7803 1.61223 35.6836 1.61223C35.5664 1.61223 35.5078 1.55438 35.5078 1.43876C35.5078 1.34335 35.4683 1.26529 35.4199 1.26529C35.3716 1.26529 35.332 1.34335 35.332 1.43876C35.332 1.63391 35.0293 1.68465 34.9438 1.50381C34.9029 1.41707 34.8823 1.41707 34.8413 1.50381C34.8107 1.5686 34.6192 1.61223 34.3652 1.61223C34.1078 1.61223 33.9229 1.56955 33.8958 1.50381C33.8622 1.42193 33.8265 1.42722 33.75 1.52549C33.6735 1.62376 33.6378 1.62905 33.6042 1.54718C33.5356 1.38047 33.3053 1.41829 33.1225 1.62611C33.0319 1.72923 32.932 1.78795 32.9004 1.75682C32.8688 1.72559 32.9283 1.62697 33.0328 1.53755C33.299 1.30961 33.2728 1.26529 32.8711 1.26529C32.6777 1.26529 32.5195 1.30432 32.5195 1.35202C32.5195 1.39973 32.48 1.43876 32.4316 1.43876C32.3833 1.43876 32.3438 1.3607 32.3438 1.26529C32.3438 1.07057 32.0371 1.01827 31.9622 1.20024C31.9287 1.28185 31.8943 1.27648 31.8231 1.17855C31.7391 1.06294 31.718 1.06294 31.6339 1.17855C31.5628 1.27648 31.5283 1.28185 31.4948 1.20024C31.4652 1.12833 31.2477 1.09182 30.8496 1.09182C30.4551 1.09182 30.2315 1.12903 30.1977 1.20024C30.1568 1.28697 30.1362 1.28697 30.0952 1.20024C30.067 1.14065 29.9286 1.09182 29.7876 1.09182C29.6466 1.09182 29.5312 1.05279 29.5312 1.00508C29.5312 0.863099 29.4101 0.907942 29.2355 1.11463ZM34.1016 1.35202C34.1016 1.39973 34.1411 1.43876 34.1895 1.43876C34.2378 1.43876 34.2773 1.39973 34.2773 1.35202C34.2773 1.30432 34.2378 1.26529 34.1895 1.26529C34.1411 1.26529 34.1016 1.30432 34.1016 1.35202ZM17.7539 1.95917C17.7539 2.09413 17.8125 2.13264 18.0176 2.13264C18.3125 2.13264 18.3387 2.09022 18.1557 1.90964C17.9728 1.72906 17.7539 1.75612 17.7539 1.95917ZM39.9023 2.21937C39.9023 2.42172 39.9414 2.47958 40.0781 2.47958C40.1748 2.47958 40.2539 2.51861 40.2539 2.56631C40.2539 2.61401 40.2935 2.65304 40.3418 2.65304C40.5029 2.65304 40.4323 2.38763 40.2139 2.1721C39.937 1.89871 39.9023 1.904 39.9023 2.21937ZM19.045 2.2669C19.1199 2.34071 19.1585 2.42337 19.1309 2.45069C19.0803 2.50065 18.8086 2.27436 18.8086 2.18216C18.8086 2.09447 18.9055 2.12917 19.045 2.2669ZM20.5664 2.21937C20.5664 2.26708 20.5269 2.30611 20.4785 2.30611C20.4302 2.30611 20.3906 2.26708 20.3906 2.21937C20.3906 2.17167 20.4302 2.13264 20.4785 2.13264C20.5269 2.13264 20.5664 2.17167 20.5664 2.21937ZM41.1328 2.39284C41.1328 2.59519 41.1718 2.65304 41.3086 2.65304C41.4258 2.65304 41.4844 2.7109 41.4844 2.82651C41.4844 2.92192 41.5239 2.99998 41.5723 2.99998C41.6206 2.99998 41.6602 2.88289 41.6602 2.73978C41.6602 2.59667 41.6206 2.47958 41.5723 2.47958C41.5239 2.47958 41.4844 2.40151 41.4844 2.30611C41.4844 2.19049 41.4258 2.13264 41.3086 2.13264C41.1718 2.13264 41.1328 2.19049 41.1328 2.39284ZM20.5664 2.5291C20.5664 2.55642 20.5052 2.63908 20.4304 2.71289C20.2588 2.88228 20.1557 2.79746 20.3158 2.6187C20.4359 2.48469 20.5664 2.43803 20.5664 2.5291ZM39.5508 2.65304C39.5508 2.85852 39.4951 2.87066 39.3248 2.70257C39.1545 2.53456 39.1668 2.47958 39.375 2.47958C39.4922 2.47958 39.5508 2.53743 39.5508 2.65304ZM42.0117 2.73978C42.0117 2.9711 42.041 2.99998 42.2754 2.99998C42.4804 2.99998 42.5391 2.96147 42.5391 2.82651C42.5391 2.7311 42.4995 2.65304 42.4512 2.65304C42.4028 2.65304 42.3633 2.69207 42.3633 2.73978C42.3633 2.78748 42.3237 2.82651 42.2754 2.82651C42.2271 2.82651 42.1875 2.74845 42.1875 2.65304C42.1875 2.55763 42.1479 2.47958 42.0996 2.47958C42.0513 2.47958 42.0117 2.59667 42.0117 2.73978ZM43.5938 2.82651C43.5938 2.92192 43.6333 2.99998 43.6816 2.99998C43.73 2.99998 43.7695 2.92192 43.7695 2.82651C43.7695 2.7311 43.73 2.65304 43.6816 2.65304C43.6333 2.65304 43.5938 2.7311 43.5938 2.82651ZM44.4727 2.82651C44.4727 2.92192 44.5122 2.99998 44.5605 2.99998C44.6089 2.99998 44.6484 2.92192 44.6484 2.82651C44.6484 2.7311 44.6089 2.65304 44.5605 2.65304C44.5122 2.65304 44.4727 2.7311 44.4727 2.82651ZM43.2422 2.91325C43.2422 2.96095 43.2817 2.99998 43.3301 2.99998C43.3784 2.99998 43.418 2.96095 43.418 2.91325C43.418 2.86554 43.3784 2.82651 43.3301 2.82651C43.2817 2.82651 43.2422 2.86554 43.2422 2.91325ZM36.4369 3.2974C36.6153 3.47338 36.5941 3.52039 36.3365 3.52039C36.1329 3.52039 35.8594 3.34996 35.8594 3.22298C35.8594 3.11994 36.3168 3.17874 36.4369 3.2974ZM36.9141 3.26019C36.9141 3.30789 36.8745 3.34692 36.8262 3.34692C36.7778 3.34692 36.7383 3.30789 36.7383 3.26019C36.7383 3.21248 36.7778 3.17345 36.8262 3.17345C36.8745 3.17345 36.9141 3.21248 36.9141 3.26019ZM37.6172 3.26019C37.6172 3.30789 37.5381 3.34692 37.4414 3.34692C37.3447 3.34692 37.2656 3.30789 37.2656 3.26019C37.2656 3.21248 37.3447 3.17345 37.4414 3.17345C37.5381 3.17345 37.6172 3.21248 37.6172 3.26019ZM38.381 3.30772C38.4558 3.38153 38.4871 3.46931 38.4506 3.50287C38.414 3.53635 38.3665 3.51501 38.3449 3.45534C38.3233 3.39575 38.1903 3.34692 38.0493 3.34692C37.9084 3.34692 37.793 3.30789 37.793 3.26019C37.793 3.12367 38.2303 3.15897 38.381 3.30772ZM39.375 3.22298C39.375 3.2503 39.3138 3.33296 39.2389 3.40677C39.0674 3.57616 38.9643 3.49134 39.1244 3.31258C39.2445 3.17857 39.375 3.13191 39.375 3.22298ZM83.6719 3.26019C83.6719 3.30789 83.751 3.34692 83.8477 3.34692C83.9443 3.34692 84.0234 3.30789 84.0234 3.26019C84.0234 3.21248 83.9443 3.17345 83.8477 3.17345C83.751 3.17345 83.6719 3.21248 83.6719 3.26019ZM40.4297 3.43366C40.4297 3.48136 40.2715 3.52039 40.0781 3.52039C39.8848 3.52039 39.7266 3.48136 39.7266 3.43366C39.7266 3.38595 39.8848 3.34692 40.0781 3.34692C40.2715 3.34692 40.4297 3.38595 40.4297 3.43366ZM25.3125 4.301C25.3125 4.34871 25.1938 4.38774 25.0488 4.38774C24.9038 4.38774 24.7852 4.34871 24.7852 4.301C24.7852 4.2533 24.9038 4.21427 25.0488 4.21427C25.1938 4.21427 25.3125 4.2533 25.3125 4.301ZM22.1851 4.49616C22.226 4.58289 22.2466 4.58289 22.2876 4.49616C22.3514 4.3612 24.082 4.34029 24.082 4.47447C24.082 4.52218 24.0029 4.56121 23.9062 4.56121C23.8096 4.56121 23.7305 4.60024 23.7305 4.64794C23.7305 4.7731 23.4031 4.75489 23.3423 4.62626C23.3013 4.53952 23.2807 4.53952 23.2398 4.62626C23.2116 4.68593 23.1127 4.73468 23.02 4.73468C22.9274 4.73468 22.8516 4.77371 22.8516 4.82141C22.8516 4.86912 22.6571 4.90815 22.4194 4.90815C22.1597 4.90815 21.9669 4.95143 21.936 5.01656C21.895 5.1033 21.8745 5.1033 21.8335 5.01656C21.7727 4.88794 21.4453 4.86972 21.4453 4.99488C21.4453 5.04258 21.33 5.08161 21.1889 5.08161C21.048 5.08161 20.9095 5.13045 20.8813 5.19003C20.8404 5.27677 20.8198 5.27677 20.7788 5.19003C20.718 5.06141 20.3906 5.04319 20.3906 5.16835C20.3906 5.22299 19.8047 5.25508 18.8086 5.25508C17.8125 5.25508 17.2266 5.28718 17.2266 5.34182C17.2266 5.39134 16.9629 5.42855 16.6113 5.42855C16.2598 5.42855 15.9961 5.39134 15.9961 5.34182C15.9961 5.29411 16.0752 5.25508 16.1719 5.25508C16.2686 5.25508 16.3477 5.21605 16.3477 5.16835C16.3477 5.11778 16.6406 5.08161 17.0508 5.08161C17.461 5.08161 17.7539 5.04545 17.7539 4.99488C17.7539 4.94284 18.1055 4.90815 18.6328 4.90815C19.1602 4.90815 19.5117 4.87345 19.5117 4.82141C19.5117 4.76998 19.834 4.73468 20.3027 4.73468C20.7715 4.73468 21.0938 4.69938 21.0938 4.64794C21.0938 4.60024 21.2915 4.56121 21.5332 4.56121C21.7749 4.56121 21.9727 4.52218 21.9727 4.47447C21.9727 4.3514 22.1239 4.36683 22.1851 4.49616ZM5.97656 4.90815C5.97656 5.02376 5.91794 5.08161 5.80078 5.08161C5.59679 5.08161 5.58264 5.03504 5.73486 4.86443C5.88999 4.69053 5.97656 4.70623 5.97656 4.90815ZM82.4916 5.03209C82.6619 5.2001 82.6496 5.25508 82.4414 5.25508C82.3447 5.25508 82.2656 5.29411 82.2656 5.34182C82.2656 5.38952 82.147 5.42855 82.002 5.42855C81.7969 5.42855 81.7383 5.39004 81.7383 5.25508C81.7383 5.06349 81.8757 5.01934 81.9406 5.19003C81.9685 5.26358 82.0345 5.236 82.1457 5.10443C82.3406 4.87371 82.3329 4.87536 82.4916 5.03209ZM23.2031 5.16835C23.2031 5.21605 23.124 5.25508 23.0273 5.25508C22.9307 5.25508 22.8516 5.21605 22.8516 5.16835C22.8516 5.12065 22.9307 5.08161 23.0273 5.08161C23.124 5.08161 23.2031 5.12065 23.2031 5.16835ZM81.2109 5.16835C81.2109 5.21605 81.29 5.25508 81.3867 5.25508C81.4834 5.25508 81.5625 5.29411 81.5625 5.34182C81.5625 5.47062 81.3047 5.44677 81.1608 5.30461C81.0134 5.15933 81.0004 5.08161 81.123 5.08161C81.1714 5.08161 81.2109 5.12065 81.2109 5.16835ZM21.4453 5.34182C21.4453 5.38952 21.3662 5.42855 21.2695 5.42855C21.1729 5.42855 21.0938 5.38952 21.0938 5.34182C21.0938 5.29411 21.1729 5.25508 21.2695 5.25508C21.3662 5.25508 21.4453 5.29411 21.4453 5.34182ZM80.8594 5.51529C80.8594 5.56299 80.8198 5.60202 80.7715 5.60202C80.7231 5.60202 80.6836 5.56299 80.6836 5.51529C80.6836 5.46758 80.7231 5.42855 80.7715 5.42855C80.8198 5.42855 80.8594 5.46758 80.8594 5.51529ZM12.1289 6.20917C12.1289 6.25687 12.1685 6.2959 12.2168 6.2959C12.2651 6.2959 12.3047 6.25687 12.3047 6.20917C12.3047 6.16146 12.2651 6.12243 12.2168 6.12243C12.1685 6.12243 12.1289 6.16146 12.1289 6.20917ZM2.63672 6.55611C2.63672 6.60381 2.47852 6.64284 2.28516 6.64284C2.0918 6.64284 1.93359 6.60381 1.93359 6.55611C1.93359 6.5084 2.0918 6.46937 2.28516 6.46937C2.47852 6.46937 2.63672 6.5084 2.63672 6.55611ZM3.21425 6.76678C3.38458 6.93479 3.37228 6.98978 3.16406 6.98978C3.0469 6.98978 2.98828 6.93193 2.98828 6.81631C2.98828 6.61084 3.044 6.59869 3.21425 6.76678ZM3.69141 6.72958C3.69141 6.77728 3.65186 6.81631 3.60352 6.81631C3.55518 6.81631 3.51562 6.77728 3.51562 6.72958C3.51562 6.68187 3.55518 6.64284 3.60352 6.64284C3.65186 6.64284 3.69141 6.68187 3.69141 6.72958ZM1.58203 6.90304C1.58203 6.95075 1.62158 6.98978 1.66992 6.98978C1.71826 6.98978 1.75781 6.95075 1.75781 6.90304C1.75781 6.85534 1.71826 6.81631 1.66992 6.81631C1.62158 6.81631 1.58203 6.85534 1.58203 6.90304ZM2.8125 6.90304C2.8125 6.95075 2.77295 6.98978 2.72461 6.98978C2.67627 6.98978 2.63672 6.95075 2.63672 6.90304C2.63672 6.85534 2.67627 6.81631 2.72461 6.81631C2.77295 6.81631 2.8125 6.85534 2.8125 6.90304ZM0.703125 7.07651C0.703125 7.12422 0.742676 7.16325 0.791016 7.16325C0.839355 7.16325 0.878906 7.12422 0.878906 7.07651C0.878906 7.02881 0.839355 6.98978 0.791016 6.98978C0.742676 6.98978 0.703125 7.02881 0.703125 7.07651ZM1.05469 7.07651C1.05469 7.12422 1.09424 7.16325 1.14258 7.16325C1.19092 7.16325 1.23047 7.12422 1.23047 7.07651C1.23047 7.02881 1.19092 6.98978 1.14258 6.98978C1.09424 6.98978 1.05469 7.02881 1.05469 7.07651ZM10.5469 7.07651C10.5469 7.12422 10.626 7.16325 10.7227 7.16325C10.8193 7.16325 10.8984 7.12422 10.8984 7.07651C10.8984 7.02881 10.8193 6.98978 10.7227 6.98978C10.626 6.98978 10.5469 7.02881 10.5469 7.07651ZM0 7.24998C0 7.29769 0.0395508 7.33672 0.0878906 7.33672C0.13623 7.33672 0.175781 7.29769 0.175781 7.24998C0.175781 7.20228 0.13623 7.16325 0.0878906 7.16325C0.0395508 7.16325 0 7.20228 0 7.24998ZM0.351562 7.24998C0.351562 7.29769 0.391113 7.33672 0.439453 7.33672C0.487793 7.33672 0.527344 7.29769 0.527344 7.24998C0.527344 7.20228 0.487793 7.16325 0.439453 7.16325C0.391113 7.16325 0.351562 7.20228 0.351562 7.24998ZM61.5234 11.9337C61.5234 11.9814 61.4839 12.0204 61.4355 12.0204C61.3872 12.0204 61.3477 11.9814 61.3477 11.9337C61.3477 11.886 61.3872 11.8469 61.4355 11.8469C61.4839 11.8469 61.5234 11.886 61.5234 11.9337ZM59.4141 12.1071C59.4141 12.1548 59.4932 12.1939 59.5898 12.1939C59.6865 12.1939 59.7656 12.1548 59.7656 12.1071C59.7656 12.0594 59.6865 12.0204 59.5898 12.0204C59.4932 12.0204 59.4141 12.0594 59.4141 12.1071Z" fill="#F5532D"/>
</svg>
