<svg width="73" height="17" viewBox="0 0 73 17" fill="none" xmlns="http://www.w3.org/2000/svg">
    <g clip-path="url(#clip0)">
        <path d="M72.0996 12.6173H68.4946V16.2223H72.0996V12.6173Z" fill="#F8FAFC" />
        <path d="M68.4946 5.40747V9.01245H72.0996V5.40747H68.4946ZM70.2971 7.20996H69.395V6.30956H70.2971V7.20996Z" fill="#F8FAFC" />
        <path d="M72.0996 9.01245H68.4946V12.6174H72.0996V9.01245Z" fill="#F8FAFC" />
        <path d="M32.4448 12.6173H28.8398V16.2223H32.4448V12.6173Z" fill="#F8FAFC" />
        <path d="M32.4448 5.40747H28.8398V9.01245H32.4448V5.40747Z" fill="#F8FAFC" />
        <path d="M32.4448 9.01245H28.8398V12.6174H32.4448V9.01245Z" fill="#F8FAFC" />
        <path d="M36.0498 12.6173H32.4448V16.2223H36.0498V12.6173Z" fill="#F8FAFC" />
        <path d="M36.0498 5.40747H32.4448V9.01245H36.0498V5.40747Z" fill="#F8FAFC" />
        <path d="M36.0498 9.01245H32.4448V12.6174H36.0498V9.01245Z" fill="#F8FAFC" />
        <path d="M32.4448 1.80249H28.8398V5.40747H32.4448V1.80249Z" fill="#F8FAFC" />
        <path d="M36.0498 1.80249H32.4448V5.40747H36.0498V1.80249Z" fill="#F8FAFC" />
        <path d="M39.6548 12.6174H36.0498V16.2224H39.6548V12.6174Z" fill="#F8FAFC" />
        <path d="M39.6548 1.80249H36.0498V5.40747H39.6548V1.80249Z" fill="#F8FAFC" />
        <path d="M39.6548 5.40747H36.0498V9.01245H39.6548V5.40747Z" fill="#F8FAFC" />
        <path d="M39.6548 9.01245H36.0498V12.6174H39.6548V9.01245Z" fill="#F8FAFC" />
        <path d="M43.2598 12.6174H39.6548V16.2224H43.2598V12.6174Z" fill="#F8FAFC" />
        <path d="M43.26 1.80249H39.655V5.40747H43.26V1.80249Z" fill="#F8FAFC" />
        <path d="M43.2598 5.40747H39.6548V9.01245H43.2598V5.40747Z" fill="#F8FAFC" />
        <path d="M43.2598 9.01245H39.6548V12.6174H43.2598V9.01245Z" fill="#F8FAFC" />
        <path d="M46.8647 12.6174H43.2598V16.2224H46.8647V12.6174Z" fill="#F8FAFC" />
        <path d="M46.865 1.80249H43.26V5.40747H46.865V1.80249Z" fill="#F8FAFC" />
        <path d="M46.8647 5.40747H43.2598V9.01245H46.8647V5.40747Z" fill="#F8FAFC" />
        <path d="M46.8647 9.01245H43.2598V12.6174H46.8647V9.01245Z" fill="#F8FAFC" />
        <path d="M50.4697 12.6174H46.8647V16.2224H50.4697V12.6174Z" fill="#F8FAFC" />
        <path d="M50.47 1.80249H46.865V5.40747H50.47V1.80249Z" fill="#F8FAFC" />
        <path d="M50.4697 5.40747H46.8647V9.01245H50.4697V5.40747Z" fill="#F8FAFC" />
        <path d="M50.4697 9.01245H46.8647V12.6174H50.4697V9.01245Z" fill="#F8FAFC" />
        <path d="M54.0747 12.6174H50.4697V16.2224H54.0747V12.6174Z" fill="#F8FAFC" />
        <path d="M54.0747 1.80249H50.4697V5.40747H54.0747V1.80249Z" fill="#F8FAFC" />
        <path d="M54.0747 5.40747H50.4697V9.01245H54.0747V5.40747Z" fill="#F8FAFC" />
        <path d="M54.0747 9.01245H50.4697V12.6174H54.0747V9.01245Z" fill="#F8FAFC" />
        <path d="M57.6797 12.6174H54.0747V16.2224H57.6797V12.6174Z" fill="#F8FAFC" />
        <path d="M57.6797 1.80249H54.0747V5.40747H57.6797V1.80249Z" fill="#F8FAFC" />
        <path d="M57.6797 5.40747H54.0747V9.01245H57.6797V5.40747Z" fill="#F8FAFC" />
        <path d="M57.6797 9.01245H54.0747V12.6174H57.6797V9.01245Z" fill="#F8FAFC" />
        <path d="M61.2847 12.6174H57.6797V16.2224H61.2847V12.6174Z" fill="#F8FAFC" />
        <path d="M61.2847 1.80249H57.6797V5.40747H61.2847V1.80249Z" fill="#F8FAFC" />
        <path d="M61.2847 5.40747H57.6797V9.01245H61.2847V5.40747Z" fill="#F8FAFC" />
        <path d="M61.2847 9.01245H57.6797V12.6174H61.2847V9.01245Z" fill="#F8FAFC" />
        <path d="M64.8896 12.6174H61.2847V16.2224H64.8896V12.6174Z" fill="#F8FAFC" />
        <path d="M64.8896 1.80249H61.2847V5.40747H64.8896V1.80249Z" fill="#F8FAFC" />
        <path d="M64.8896 5.40747H61.2847V9.01245H64.8896V5.40747Z" fill="#F8FAFC" />
        <path d="M64.8896 9.01245H61.2847V12.6174H64.8896V9.01245Z" fill="#F8FAFC" />
        <path d="M68.4946 12.6173H64.8896V16.2223H68.4946V12.6173Z" fill="#F8FAFC" />
        <path d="M68.4946 1.80249V3.60498H67.5925V4.50707H68.4946V5.40747H64.8896V1.80249H68.4946Z" fill="#F8FAFC" />
        <path d="M68.4946 5.40747H64.8896V9.01245H68.4946V5.40747Z" fill="#F8FAFC" />
        <path d="M68.4946 9.01245H64.8896V12.6174H68.4946V9.01245Z" fill="#F8FAFC" />
        <path d="M69.395 2.70435H68.4946V3.60474H69.395V2.70435Z" fill="#F8FAFC" />
        <path d="M70.2971 1.80249H69.395V2.70458H70.2971V1.80249Z" fill="#F8FAFC" />
        <path d="M71.1975 3.60486V4.50695H70.2971V5.40735H69.395V3.60486H71.1975Z" fill="#F8FAFC" />
        <path d="M72.0996 4.50696H71.1975V5.40736H72.0996V4.50696Z" fill="#F8FAFC" />
        <path d="M71.1975 0.900391H70.2971V1.80079H71.1975V0.900391Z" fill="#F8FAFC" />
        <path d="M72.0979 -0.00012207H71.1975V0.900275H72.0979V-0.00012207Z" fill="#F8FAFC" />
        <path d="M73 1.80249H72.0996V2.70289H73V1.80249Z" fill="#F8FAFC" />
        <path d="M70.2954 0.900391H69.395V1.80079H70.2954V0.900391Z" fill="#F8FAFC" />
        <path d="M35.9671 7.48044V8.53446H35.4401V10.1155H34.9083V10.6425H33.8448V10.106H34.8988V9.58849H34.3718V8.53446H33.8448V7.48044H33.3178V6.93918H34.9083V8.52497H35.4258V6.93918H36.4941V7.48044H35.9671ZM39.1339 9.06148V9.58849H37.5386V9.06148H37.0116V7.4662H37.5386V6.93918H39.1339V7.4662H39.6609V9.06148H39.1339ZM38.5926 7.48044H38.0751V9.05198H38.5926V7.48044ZM42.2879 9.58849V7.48044H41.7704V9.58849H40.7069V6.93918H41.2434V7.4662H41.7609V6.93918H42.8292V7.4662H43.3562V9.58849H42.2879ZM45.9833 9.58849V9.06148H45.4658V9.58849H44.4023V5.88516H45.4658V7.99796H45.9833V7.4662H46.5103V6.93918H47.0516V7.48044H46.5246V8.00745H45.9975V8.52497H46.5246V9.05198H47.0516V9.58849H45.9833ZM50.2199 9.06148V9.58849H48.6246V9.06148H48.0976V7.4662H48.6246V6.93918H50.2199V7.4662H50.7469V9.06148H50.2199ZM49.6787 7.48044H49.1611V9.05198H49.6787V7.48044ZM53.374 9.58849V5.88516H54.4376V9.58849H53.374ZM56.5472 8.53446V9.05198H57.606V9.58849H56.0107V9.06148H55.4837V7.4662H56.0107V6.93918H57.606V7.4662H58.133V8.53446H56.5472ZM57.0647 7.48044H56.5472V7.99796H57.0647V7.48044ZM61.3013 7.48044V8.53446H60.7743V9.58849H59.7061V8.53446H59.179V7.48044H58.652V6.93918H60.2426V8.52497H60.7601V6.93918H61.8283V7.48044H61.3013ZM63.4093 8.53446V9.05198H64.4681V9.58849H62.8728V9.06148H62.3458V7.4662H62.8728V6.93918H64.4681V7.4662H64.9951V8.53446H63.4093ZM63.9269 7.48044H63.4093V7.99796H63.9269V7.48044ZM66.0412 9.58849V5.88516H67.1047V9.58849H66.0412Z" fill="#0C5DA8" />
        <path d="M3.60498 1.80273H0V5.40771H3.60498V1.80273Z" fill="#F8FAFC" />
        <path d="M3.60498 5.40759H0V9.01257H3.60498V5.40759Z" fill="#F8FAFC" />
        <path d="M7.20996 5.40759H3.60498V9.01257H7.20996V5.40759Z" fill="#F8FAFC" />
        <path d="M10.8149 5.40759H7.20996V9.01257H10.8149V5.40759Z" fill="#F8FAFC" />
        <path d="M10.8149 1.80261H7.20996V5.40759H10.8149V1.80261Z" fill="#F8FAFC" />
        <path d="M7.20996 12.6174H3.60498V16.2224H7.20996V12.6174Z" fill="#F8FAFC" />
        <path d="M18.0249 1.80261H14.4199V5.40759H18.0249V1.80261Z" fill="#F8FAFC" />
        <path d="M18.0249 5.40759H14.4199V9.01257H18.0249V5.40759Z" fill="#F8FAFC" />
        <path d="M25.2349 12.6174H21.6299V16.2224H25.2349V12.6174Z" fill="#F8FAFC" />
        <path d="M18.0249 12.6174H14.4199V16.2224H18.0249V12.6174Z" fill="#F8FAFC" />
        <path d="M21.6299 12.6174H18.0249V16.2224H21.6299V12.6174Z" fill="#F8FAFC" />
    </g>
    <defs>
        <clipPath id="clip0">
            <rect width="73" height="16.2224" fill="white" />
        </clipPath>
    </defs>
</svg>
