<svg width="1430" height="523" viewBox="0 0 1430 523" fill="none" xmlns="http://www.w3.org/2000/svg">
<path d="M1342.51 58.1111H1371.65V29.0282H1342.51H1313.31V58.1111V87.194H1342.51V58.1111Z" fill="#0C5DA8"/>
<path d="M1371.65 145.305V174.333H1342.51V145.305H1371.65V116.222H1313.31V174.333H1284.16V145.305H1254.96V116.222H1313.31V87.194H1284.16V58.1111H0.541992V523H1400.85V145.305H1371.65V145.305ZM1342.51 232.444H1313.31V203.416H1342.51V232.444Z" fill="#0C5DA8"/>
<path d="M1400.8 0H1371.65V29.0282H1400.8V0Z" fill="#0C5DA8"/>
<path d="M1430 58.1111H1400.85V87.1393H1430V58.1111Z" fill="#0C5DA8"/>
<path d="M231.25 248.877V282.858H214.191V333.83H196.978V350.82H162.552V333.523H196.67V316.839H179.611V282.858H162.552V248.877H145.492V231.427H196.978V282.552H213.729V231.427H248.309V248.877H231.25Z" fill="#F8FAFC"/>
<path d="M333.758 299.849V316.839H282.119V299.849H265.06V248.418H282.119V231.427H333.758V248.418H350.817V299.849H333.758ZM316.238 248.877H299.486V299.542H316.238V248.877Z" fill="#F8FAFC"/>
<path d="M435.856 316.839V248.877H419.104V316.839H384.678V231.427H402.045V248.418H418.797V231.427H453.376V248.418H470.436V316.839H435.856Z" fill="#F8FAFC"/>
<path d="M555.474 316.839V299.849H538.722V316.839H504.296V197.446H538.722V265.561H555.474V248.418H572.533V231.427H590.054V248.877H572.994V265.867H555.935V282.552H572.994V299.542H590.054V316.839H555.474Z" fill="#F8FAFC"/>
<path d="M692.612 299.849V316.839H640.973V299.849H623.914V248.418H640.973V231.427H692.612V248.418H709.672V299.849H692.612ZM675.092 248.877H658.34V299.542H675.092V248.877Z" fill="#F8FAFC"/>
<path d="M794.711 316.839V197.446H829.137V316.839H794.711Z" fill="#F8FAFC"/>
<path d="M897.426 282.858V299.542H931.699V316.839H880.06V299.849H863V248.418H880.06V231.427H931.699V248.418H948.758V282.858H897.426ZM914.178 248.877H897.426V265.561H914.178V248.877Z" fill="#F8FAFC"/>
<path d="M1051.32 248.877V282.858H1034.26V316.839H999.678V282.858H982.618V248.877H965.559V231.427H1017.04V282.552H1033.8V231.427H1068.38V248.877H1051.32Z" fill="#F8FAFC"/>
<path d="M1119.55 282.858V299.542H1153.83V316.839H1102.19V299.849H1085.13V248.418H1102.19V231.427H1153.83V248.418H1170.88V282.858H1119.55ZM1136.3 248.877H1119.55V265.561H1136.3V248.877Z" fill="#F8FAFC"/>
<path d="M1204.74 316.839V197.446H1239.17V316.839H1204.74Z" fill="#F8FAFC"/>
</svg>
