<svg width="111" height="67" viewBox="0 0 111 67" fill="none" xmlns="http://www.w3.org/2000/svg">
<path d="M26.1476 17.4743H47.0488V19.1393H28.0641V31.6695H45.9165V33.3345H28.0641V47.0916H47.2664V48.7566H26.1476V17.4743ZM48.9209 17.4743H51.142L60.9829 31.2313L71.0414 17.4743L84.7227 0L62.2458 32.6772L73.8282 48.7566H71.5201L60.9829 34.1232L50.4021 48.7566H48.1376L59.8071 32.6772L48.9217 17.4743H48.9209ZM74.6559 19.1393V17.4743H98.4737V19.1393H87.5012V48.7559H85.5848V19.1393H74.6566H74.6559ZM0 17.4743H2.39513L35.419 67L21.7716 48.7566L2.0027 19.8402L1.91566 48.7566H0V17.4743ZM98.2816 46.5888C97.8891 46.5888 97.5957 46.2849 97.5957 45.8925C97.5957 45.4993 97.8891 45.1954 98.2808 45.1954C98.677 45.1954 98.9659 45.4993 98.9659 45.8925C98.9659 46.2849 98.677 46.5888 98.2808 46.5888H98.2816ZM100.163 44.7557H101.189C101.203 45.3125 101.609 45.6861 102.205 45.6861C102.871 45.6861 103.249 45.2847 103.249 44.5314V39.7621H104.293V44.5359C104.293 45.8925 103.51 46.6736 102.214 46.6736C100.999 46.6736 100.164 45.9158 100.164 44.7557H100.163ZM105.658 44.6957H106.692C106.781 45.3357 107.405 45.7424 108.305 45.7424C109.143 45.7424 109.758 45.3072 109.758 44.7092C109.758 44.1952 109.367 43.886 108.477 43.6759L107.61 43.4658C106.394 43.1807 105.839 42.5909 105.839 41.5997C105.839 40.3976 106.818 39.5978 108.285 39.5978C109.651 39.5978 110.649 40.3976 110.709 41.5337H109.693C109.595 40.9124 109.055 40.5237 108.272 40.5237C107.446 40.5237 106.897 40.9214 106.897 41.5292C106.897 42.0109 107.251 42.287 108.128 42.4926L108.868 42.675C110.247 42.9976 110.816 43.5589 110.816 44.5734C110.816 45.864 109.818 46.6736 108.225 46.6736C106.734 46.6736 105.732 45.9015 105.658 44.6949V44.6957Z" fill="#00579E"/>
</svg>
