<svg width="273" height="125" viewBox="0 0 273 125" fill="none" xmlns="http://www.w3.org/2000/svg">
<rect width="139.307" height="3.76506" transform="matrix(-1 0 0 1 146.837 6.02246)" fill="#F3B23F"/>
<path d="M13.2758 29.3021H14.3667V35.8476H13.2758V29.3021ZM14.3667 35.8476H17.6394V36.9385H14.3667V35.8476ZM17.6394 33.6657H16.5485V32.5748H18.7303V35.8476H17.6394V33.6657ZM14.3667 28.2112H17.6394V29.3021H14.3667V28.2112ZM17.6394 29.3021H18.7303V30.393H17.6394V29.3021ZM22.0073 30.393H25.28V31.4839H22.0073V30.393ZM25.28 31.4839H26.3709V35.8476H25.28V31.4839ZM20.9164 31.4839H22.0073V35.8476H20.9164V31.4839ZM22.0073 35.8476H25.28V36.9385H22.0073V35.8476ZM36.1976 30.393H38.3794V31.4839H37.2885V36.9385H36.1976V30.393ZM38.3794 31.4839H39.4704V36.9385H38.3794V31.4839ZM40.5613 31.4839H39.4704V30.393H40.5613V31.4839ZM40.5613 31.4839H41.6522V36.9385H40.5613V31.4839ZM43.8383 33.6657H44.9292V35.8476H43.8383V33.6657ZM44.9292 35.8476H47.111V36.9385H44.9292V35.8476ZM47.111 34.7567H48.2019V33.6657H44.9292V32.5748H48.2019V31.4839H49.2928V36.9385H48.2019V35.8476H47.111V34.7567ZM44.9292 30.393H48.2019V31.4839H44.9292V30.393ZM51.4789 28.2112H52.5698V33.6657H53.6607V32.5748H54.7516V34.7567H52.5698V36.9385H51.4789V28.2112ZM55.8425 30.393H56.9334V31.4839H55.8425V30.393ZM54.7516 31.4839H55.8425V32.5748H54.7516V31.4839ZM54.7516 34.7567H55.8425V35.8476H54.7516V34.7567ZM55.8425 35.8476H56.9334V36.9385H55.8425V35.8476ZM60.2104 30.393H63.4831V31.4839H60.2104V30.393ZM59.1195 31.4839H60.2104V32.5748H63.4831V31.4839H64.574V33.6657H60.2104V35.8476H59.1195V31.4839ZM60.2104 35.8476H63.4831V36.9385H60.2104V35.8476ZM63.4831 34.7567H64.574V35.8476H63.4831V34.7567ZM74.4008 33.6657H75.4917V35.8476H74.4008V33.6657ZM75.4917 35.8476H77.6735V36.9385H75.4917V35.8476ZM77.6735 34.7567H78.7644V33.6657H75.4917V32.5748H78.7644V31.4839H79.8553V36.9385H78.7644V35.8476H77.6735V34.7567ZM75.4917 30.393H78.7644V31.4839H75.4917V30.393ZM89.682 28.2112H90.7729V31.4839H91.8638V32.5748H90.7729V34.7567H91.8638V35.8476H90.7729V36.9385H89.682V28.2112ZM91.8638 35.8476H94.0456V36.9385H91.8638V35.8476ZM94.0456 31.4839H95.1365V35.8476H94.0456V31.4839ZM91.8638 30.393H94.0456V31.4839H91.8638V30.393ZM98.4135 30.393H101.686V31.4839H98.4135V30.393ZM97.3226 31.4839H98.4135V32.5748H101.686V31.4839H102.777V33.6657H98.4135V35.8476H97.3226V31.4839ZM98.4135 35.8476H101.686V36.9385H98.4135V35.8476ZM101.686 34.7567H102.777V35.8476H101.686V34.7567ZM104.963 33.6657H106.054V35.8476H104.963V33.6657ZM106.054 35.8476H108.236V36.9385H106.054V35.8476ZM108.236 34.7567H109.327V33.6657H106.054V32.5748H109.327V31.4839H110.418V36.9385H109.327V35.8476H108.236V34.7567ZM106.054 30.393H109.327V31.4839H106.054V30.393ZM113.695 28.2112H114.786V30.393H118.058V31.4839H114.786V35.8476H113.695V31.4839H112.604V30.393H113.695V28.2112ZM114.786 35.8476H116.968V36.9385H114.786V35.8476ZM116.968 34.7567H118.058V35.8476H116.968V34.7567ZM122.426 28.2112H123.517V34.7567H122.426V28.2112ZM122.426 35.8476H123.517V36.9385H122.426V35.8476ZM13.2758 43.2112H14.3667V45.393H15.4576V46.4839H14.3667V51.9385H13.2758V43.2112ZM17.6394 46.4839H16.5485V45.393H17.6394V43.2112H18.7303V51.9385H17.6394V46.4839ZM15.4576 46.4839H16.5485V48.6657H15.4576V46.4839ZM23.0982 46.4839H20.9164V45.393H24.1891V50.8476H26.3709V51.9385H20.9164V50.8476H23.0982V46.4839ZM23.0982 43.2112H24.1891V44.3021H23.0982V43.2112ZM32.9206 43.2112H34.0115V51.9385H32.9206V50.8476H31.8297V49.7567H32.9206V47.5748H31.8297V46.4839H32.9206V43.2112ZM31.8297 50.8476V51.9385H29.6479V50.8476H31.8297ZM29.6479 50.8476H28.557V46.4839H29.6479V50.8476ZM31.8297 46.4839H29.6479V45.393H31.8297V46.4839ZM38.3794 46.4839H36.1976V45.393H39.4704V50.8476H41.6522V51.9385H36.1976V50.8476H38.3794V46.4839ZM38.3794 43.2112H39.4704V44.3021H38.3794V43.2112ZM44.9292 45.393H48.2019V46.4839H44.9292V45.393ZM43.8383 46.4839H44.9292V50.8476H43.8383V46.4839ZM44.9292 50.8476H48.2019V51.9385H44.9292V50.8476ZM48.2019 46.4839H49.2928V47.5748H48.2019V46.4839ZM48.2019 49.7567H49.2928V50.8476H48.2019V49.7567ZM53.6607 46.4839H51.4789V45.393H54.7516V50.8476H56.9334V51.9385H51.4789V50.8476H53.6607V46.4839ZM53.6607 43.2112H54.7516V44.3021H53.6607V43.2112ZM61.3013 45.393V46.4839H62.3922V47.5748H61.3013V50.8476H63.4831V51.9385H59.1195V50.8476H60.2104V46.4839H59.1195V45.393H61.3013ZM64.574 45.393V46.4839H62.3922V45.393H64.574ZM67.851 45.393H71.1238V46.4839H67.851V45.393ZM66.7601 46.4839H67.851V50.8476H66.7601V46.4839ZM67.851 50.8476H71.1238V51.9385H67.851V50.8476ZM71.1238 46.4839H72.2147V47.5748H71.1238V46.4839ZM71.1238 49.7567H72.2147V50.8476H71.1238V49.7567ZM74.4008 45.393H75.4917V50.8476H74.4008V45.393ZM75.4917 50.8476H77.6735V51.9385H75.4917V50.8476ZM78.7644 45.393H79.8553V51.9385H78.7644V50.8476H77.6735V49.7567H78.7644V45.393ZM84.2232 46.4839H82.0414V45.393H85.3141V50.8476H87.4959V51.9385H82.0414V50.8476H84.2232V46.4839ZM84.2232 43.2112H85.3141V44.3021H84.2232V43.2112ZM90.7729 43.2112H91.8638V45.393H95.1365V46.4839H91.8638V50.8476H90.7729V46.4839H89.682V45.393H90.7729V43.2112ZM91.8638 50.8476H94.0456V51.9385H91.8638V50.8476ZM94.0456 49.7567H95.1365V50.8476H94.0456V49.7567ZM104.963 45.393H107.145V46.4839H106.054V51.9385H104.963V45.393ZM107.145 46.4839H108.236V51.9385H107.145V46.4839ZM109.327 46.4839H108.236V45.393H109.327V46.4839ZM109.327 46.4839H110.418V51.9385H109.327V46.4839ZM112.604 48.6657H113.695V50.8476H112.604V48.6657ZM113.695 50.8476H115.877V51.9385H113.695V50.8476ZM115.877 49.7567H116.968V48.6657H113.695V47.5748H116.968V46.4839H118.058V51.9385H116.968V50.8476H115.877V49.7567ZM113.695 45.393H116.968V46.4839H113.695V45.393ZM120.245 43.2112H121.335V48.6657H122.426V47.5748H123.517V49.7567H121.335V51.9385H120.245V43.2112ZM124.608 45.393H125.699V46.4839H124.608V45.393ZM123.517 46.4839H124.608V47.5748H123.517V46.4839ZM123.517 49.7567H124.608V50.8476H123.517V49.7567ZM124.608 50.8476H125.699V51.9385H124.608V50.8476ZM128.976 45.393H132.249V46.4839H128.976V45.393ZM127.885 46.4839H128.976V47.5748H132.249V46.4839H133.34V48.6657H128.976V50.8476H127.885V46.4839ZM128.976 50.8476H132.249V51.9385H128.976V50.8476ZM132.249 49.7567H133.34V50.8476H132.249V49.7567ZM15.4576 61.4839H13.2758V60.393H16.5485V65.8476H18.7303V66.9385H13.2758V65.8476H15.4576V61.4839ZM15.4576 58.2112H16.5485V59.3021H15.4576V58.2112ZM22.0073 58.2112H23.0982V60.393H26.3709V61.4839H23.0982V65.8476H22.0073V61.4839H20.9164V60.393H22.0073V58.2112ZM23.0982 65.8476H25.28V66.9385H23.0982V65.8476ZM25.28 64.7567H26.3709V65.8476H25.28V64.7567ZM37.2885 60.393H40.5613V61.4839H37.2885V60.393ZM36.1976 61.4839H37.2885V62.5748H40.5613V61.4839H41.6522V63.6657H37.2885V65.8476H36.1976V61.4839ZM37.2885 65.8476H40.5613V66.9385H37.2885V65.8476ZM40.5613 64.7567H41.6522V65.8476H40.5613V64.7567ZM43.8383 63.6657H44.9292V65.8476H43.8383V63.6657ZM44.9292 65.8476H47.111V66.9385H44.9292V65.8476ZM47.111 64.7567H48.2019V63.6657H44.9292V62.5748H48.2019V61.4839H49.2928V66.9385H48.2019V65.8476H47.111V64.7567ZM44.9292 60.393H48.2019V61.4839H44.9292V60.393ZM55.8425 65.8476V66.9385H52.5698V65.8476H55.8425ZM52.5698 65.8476H51.4789V64.7567H52.5698V65.8476ZM55.8425 60.393V61.4839H52.5698V60.393H55.8425ZM51.4789 61.4839H52.5698V62.5748H51.4789V61.4839ZM52.5698 62.5748H55.8425V63.6657H52.5698V62.5748ZM55.8425 63.6657H56.9334V65.8476H55.8425V63.6657ZM55.8425 61.4839H56.9334V62.5748H55.8425V61.4839ZM59.1195 60.393H60.2104V63.6657H59.1195V60.393ZM63.4831 60.393H64.574V63.6657H63.4831V60.393ZM61.3013 65.8476H62.3922V68.0294H61.3013V65.8476ZM61.3013 68.0294V69.1203H59.1195V68.0294H61.3013ZM62.3922 63.6657H63.4831V65.8476H62.3922V63.6657ZM60.2104 63.6657H61.3013V65.8476H60.2104V63.6657ZM68.9419 64.7567H70.0329V66.9385H68.9419V64.7567Z" fill="#F3B23F"/>
<rect width="139.307" height="3.76506" transform="matrix(-1 0 0 1 146.837 85.0889)" fill="#F3B23F"/>
<rect width="3.76506" height="3.76506" transform="matrix(4.37114e-08 1 1 -4.37114e-08 146.837 9.78809)" fill="#F3B23F"/>
<rect width="3.76506" height="3.76506" transform="matrix(4.37114e-08 1 1 -4.37114e-08 3.76492 81.3242)" fill="#F3B23F"/>
<rect width="3.76506" height="3.76506" transform="matrix(4.37114e-08 1 1 -4.37114e-08 3.76492 9.78809)" fill="#F3B23F"/>
<rect width="3.76506" height="3.76506" transform="matrix(4.37114e-08 1 1 -4.37114e-08 154.367 85.0889)" fill="#F3B23F"/>
<rect width="3.76506" height="3.76506" transform="matrix(4.37114e-08 1 1 -4.37114e-08 154.367 88.8535)" fill="#F3B23F"/>
<rect width="71.5361" height="3.76506" transform="matrix(4.37114e-08 1 1 -4.37114e-08 150.603 13.5527)" fill="#F3B23F"/>
<rect width="67.7711" height="3.76506" transform="matrix(4.37114e-08 1 1 -4.37114e-08 0.000274658 13.5527)" fill="#F3B23F"/>
<rect width="3.76506" height="3.76506" transform="matrix(4.37114e-08 1 1 -4.37114e-08 146.837 88.8535)" fill="#F3B23F"/>
<rect width="3.76506" height="3.76506" transform="matrix(4.37114e-08 1 1 -4.37114e-08 150.603 92.6191)" fill="#F3B23F"/>
<path d="M264.566 48.1014C264.486 46.7722 264.638 45.416 264.572 44.0888L256.551 44.0938V16.0395L252.533 16.0495L252.552 12.0218L248.524 12.0419L248.544 8.01423L244.517 8.0343L244.537 4.00661L240.509 4.02669L240.525 0H188.411L188.427 4.02669L184.399 4.00661L184.42 8.0343L180.392 8.01423L180.411 12.0419L176.393 12.0319V100.203H180.401V48.1014H200.44V44.0938H180.401V24.0547L184.419 24.0648L184.399 20.0371L188.427 20.0571L188.994 16.0194L236.518 16.0305L236.501 20.0571L240.529 20.0371L240.51 24.0648L244.528 24.0547V60.1253L248.531 60.1303V48.0974C253.837 48.3373 259.271 47.7822 264.567 48.1024C264.967 54.7232 264.27 61.5117 264.572 68.1465H268.57L268.579 48.0974C267.252 48.0301 265.897 48.1827 264.567 48.1024L264.566 48.1014ZM252.543 104.211H256.551V124.25H240.519V116.235H204.449L204.454 124.256H192.42L192.434 112.221L188.409 112.223L188.417 108.219H224.488L224.478 104.201L228.505 104.22L228.485 100.192L232.513 100.212L232.493 96.1848L236.521 96.2048L236.5 92.1771L240.528 92.1972L240.508 88.1695L244.535 88.1856L244.517 76.1497L248.542 76.1617L248.538 68.1355L252.538 68.1315L252.536 72.1561L260.562 72.1521V76.1507L252.542 76.1557V104.21L252.543 104.211ZM264.563 112.218L264.557 116.244L268.584 116.225L268.565 120.253L272.591 120.247L272.587 124.246L260.554 124.256L260.564 112.223L264.564 112.219L264.563 112.218ZM232.504 44.0938V48.1014H208.457V44.0938H232.504ZM200.441 52.11L200.449 56.1146L196.423 56.1086L196.438 60.1353L188.992 60.1474L188.426 56.1096L184.4 56.1156L184.409 52.111H200.44L200.441 52.11ZM228.495 52.11L228.503 56.1146L224.478 56.1086L224.493 60.1353L217.047 60.1474L216.48 56.1096L212.455 56.1156L212.463 52.111H228.494L228.495 52.11ZM208.461 96.1998V100.198L196.427 100.207C196.414 98.8752 196.433 97.532 196.433 96.1948C195.104 96.1145 193.749 96.2671 192.421 96.2008L192.426 88.1796H209.96C215.941 94.9891 197.612 91.0347 196.428 92.1832C196.415 93.5154 196.434 94.8586 196.434 96.1958C200.406 96.4357 204.483 96.0151 208.462 96.2008L208.461 96.1998ZM260.562 52.114L260.566 56.1136L256.542 56.1116L256.546 64.1379H252.547L252.537 52.105L260.562 52.114ZM208.456 72.1491V76.1567H192.425V72.1491H208.456ZM208.456 80.1643V84.172H192.425V80.1643H208.456Z" fill="#F3B23F"/>
</svg>
