<svg width="296" height="142" viewBox="0 0 296 142" fill="none" xmlns="http://www.w3.org/2000/svg">
<rect x="41.25" y="29.25" width="237.5" height="77.5" rx="38.75" stroke="#F3B23F" stroke-width="2.5"/>
<rect x="41.25" y="29.25" width="97.5" height="77.5" rx="38.75" stroke="#F3B23F" stroke-width="2.5"/>
<path d="M63.0029 77.2109V62.2283H64.8172V69.6611H64.9928L71.7233 62.2283H74.0936L67.802 68.9881L74.0936 77.2109H71.8988L66.69 70.2464L64.8172 72.3533V77.2109H63.0029ZM77.1114 77.2109V62.2283H86.1537V63.8378H78.9257V68.9003H85.6855V70.5097H78.9257V75.6015H86.2707V77.2109H77.1114ZM100.335 66.9104C100.174 66.4178 99.9622 65.9764 99.6989 65.5863C99.4404 65.1912 99.1307 64.8547 98.7698 64.5767C98.4137 64.2987 98.0089 64.0865 97.5554 63.9402C97.1018 63.7939 96.6043 63.7207 96.063 63.7207C95.1753 63.7207 94.3681 63.95 93.6415 64.4084C92.9148 64.8669 92.3368 65.5424 91.9076 66.4349C91.4784 67.3274 91.2638 68.4223 91.2638 69.7196C91.2638 71.017 91.4809 72.1119 91.9149 73.0044C92.349 73.8969 92.9367 74.5724 93.678 75.0309C94.4194 75.4893 95.2533 75.7185 96.18 75.7185C97.0384 75.7185 97.7943 75.5356 98.4479 75.1699C99.1063 74.7992 99.6184 74.2773 99.9842 73.6043C100.355 72.9264 100.54 72.129 100.54 71.212L101.096 71.3291H96.5897V69.7196H102.296V71.3291C102.296 72.563 102.033 73.636 101.506 74.548C100.984 75.46 100.262 76.1672 99.3404 76.6696C98.4235 77.167 97.37 77.4158 96.18 77.4158C94.8534 77.4158 93.6878 77.1036 92.6831 76.4794C91.6833 75.8551 90.9029 74.9674 90.3421 73.8164C89.7861 72.6654 89.5081 71.2998 89.5081 69.7196C89.5081 68.5345 89.6666 67.4688 89.9836 66.5227C90.3055 65.5716 90.7591 64.762 91.3443 64.0939C91.9296 63.4257 92.6221 62.9136 93.422 62.5575C94.2218 62.2015 95.1022 62.0235 96.063 62.0235C96.8531 62.0235 97.5895 62.143 98.2723 62.382C98.96 62.6161 99.5721 62.9502 100.109 63.3842C100.65 63.8134 101.101 64.328 101.462 64.9278C101.823 65.5229 102.072 66.1837 102.208 66.9104H100.335ZM111.077 62.2283V77.2109H109.262V64.1304H109.175L105.517 66.5592V64.7157L109.262 62.2283H111.077Z" fill="#F3B23F"/>
<rect width="1" height="1" transform="translate(239.5 67.4844)" fill="#F3B23F"/>
<rect width="0.5" height="6" transform="translate(248.5 67.75) rotate(90)" fill="#F3B23F"/>
<rect width="0.5" height="0.5" transform="translate(249.5 67.75)" fill="#F3B23F"/>
<rect width="0.5" height="6" transform="translate(257 67.75) rotate(90)" fill="#F3B23F"/>
<rect width="0.5" height="0.5" transform="translate(258 67.75)" fill="#F3B23F"/>
<rect width="0.5" height="6" transform="translate(265.5 67.75) rotate(90)" fill="#F3B23F"/>
<rect width="0.5" height="0.5" transform="translate(266.5 67.75)" fill="#F3B23F"/>
<rect width="0.5" height="6" transform="translate(274 67.75) rotate(90)" fill="#F3B23F"/>
<rect width="0.5" height="0.5" transform="translate(275 67.75)" fill="#F3B23F"/>
<rect width="0.5" height="6" transform="translate(282.5 67.75) rotate(90)" fill="#F3B23F"/>
<rect width="40" height="0.5" transform="translate(240.25 26) rotate(90)" fill="#F3B23F"/>
<rect width="0.5" height="6" transform="translate(240.25 32) rotate(-180)" fill="#F3B23F"/>
<rect width="0.5" height="0.5" transform="translate(240.25 33) rotate(90)" fill="#F3B23F"/>
<rect width="0.5" height="6" transform="translate(240.25 40.5) rotate(-180)" fill="#F3B23F"/>
<rect width="0.5" height="0.5" transform="translate(240.25 41.5) rotate(90)" fill="#F3B23F"/>
<rect width="0.5" height="6" transform="translate(240.25 49) rotate(-180)" fill="#F3B23F"/>
<rect width="0.5" height="0.5" transform="translate(240.25 50) rotate(90)" fill="#F3B23F"/>
<rect width="0.5" height="6" transform="translate(240.25 57.5) rotate(-180)" fill="#F3B23F"/>
<rect width="0.5" height="0.5" transform="translate(240.25 58.5) rotate(90)" fill="#F3B23F"/>
<rect width="0.5" height="6" transform="translate(240.25 66) rotate(-180)" fill="#F3B23F"/>
<rect width="0.5" height="6" transform="translate(240.25 76.5) rotate(-180)" fill="#F3B23F"/>
<rect width="0.5" height="0.5" transform="translate(240.25 77.5) rotate(90)" fill="#F3B23F"/>
<rect width="0.5" height="6" transform="translate(240.25 85) rotate(-180)" fill="#F3B23F"/>
<rect width="0.5" height="0.5" transform="translate(240.25 86) rotate(90)" fill="#F3B23F"/>
<rect width="0.5" height="6" transform="translate(240.25 93.5) rotate(-180)" fill="#F3B23F"/>
<rect width="0.5" height="0.5" transform="translate(240.25 94.5) rotate(90)" fill="#F3B23F"/>
<rect width="0.5" height="6" transform="translate(240.25 102) rotate(-180)" fill="#F3B23F"/>
<rect width="0.5" height="0.5" transform="translate(240.25 103) rotate(90)" fill="#F3B23F"/>
<rect width="0.5" height="6" transform="translate(240.25 110.5) rotate(-180)" fill="#F3B23F"/>
<rect width="0.5" height="6" transform="translate(204 67.75) rotate(90)" fill="#F3B23F"/>
<rect width="0.5" height="0.5" transform="translate(205 67.75)" fill="#F3B23F"/>
<rect width="0.5" height="6" transform="translate(212.5 67.75) rotate(90)" fill="#F3B23F"/>
<rect width="0.5" height="0.5" transform="translate(213.5 67.75)" fill="#F3B23F"/>
<rect width="0.5" height="6" transform="translate(221 67.75) rotate(90)" fill="#F3B23F"/>
<rect width="0.5" height="0.5" transform="translate(222 67.75)" fill="#F3B23F"/>
<rect width="0.5" height="6" transform="translate(229.5 67.75) rotate(90)" fill="#F3B23F"/>
<rect width="0.5" height="0.5" transform="translate(230.5 67.75)" fill="#F3B23F"/>
<rect width="0.5" height="6" transform="translate(238 67.75) rotate(90)" fill="#F3B23F"/>
<rect width="6" height="1" transform="matrix(-0.707107 -0.707107 -0.707107 0.707107 247.223 74.5156)" fill="#F3B23F"/>
<path d="M241.212 69.2131L242.863 73.926L245.925 70.8641L241.212 69.2131Z" fill="#F3B23F"/>
<rect x="39.5" y="124" width="1" height="17" fill="#F3B23F"/>
<rect x="139.5" y="124" width="1" height="17" fill="#F3B23F"/>
<path d="M77.5497 127.227L82.0952 127.227L82.0952 128.136L78.4588 128.136L78.4588 129.955L81.1861 129.955L81.1861 130.864L77.5497 130.864L77.5497 127.227ZM81.1861 130.864L82.0952 130.864L82.0952 133.591L81.1861 133.591L81.1861 130.864ZM81.1861 133.591L81.1861 134.5L78.4588 134.5L78.4588 133.591L81.1861 133.591ZM78.4588 133.591L77.5497 133.591L77.5497 132.682L78.4588 132.682L78.4588 133.591ZM83.9169 128.136L84.826 128.136L84.826 130.864L85.7351 130.864L85.7351 131.773L84.826 131.773L84.826 133.591L83.9169 133.591L83.9169 128.136ZM84.826 133.591L87.5533 133.591L87.5533 134.5L84.826 134.5L84.826 133.591ZM84.826 127.227L87.5533 127.227L87.5533 128.136L84.826 128.136L84.826 127.227ZM87.5533 128.136L88.4624 128.136L88.4624 133.591L87.5533 133.591L87.5533 129.955L86.6442 129.955L86.6442 129.045L87.5533 129.045L87.5533 128.136ZM85.7351 129.955L86.6442 129.955L86.6442 130.864L85.7351 130.864L85.7351 129.955Z" fill="#F3B23F"/>
<path d="M91.5341 129.045L92.4432 129.045L92.4432 129.955L93.3523 129.955L93.3523 130.864L92.4432 130.864L92.4432 132.682L93.3523 132.682L93.3523 133.591L92.4432 133.591L92.4432 136.318L91.5341 136.318L91.5341 129.045ZM93.3523 129.045L95.1705 129.045L95.1705 129.955L93.3523 129.955L93.3523 129.045ZM95.1705 129.955L96.0795 129.955L96.0795 133.591L95.1705 133.591L95.1705 129.955ZM93.3523 133.591L95.1705 133.591L95.1705 134.5L93.3523 134.5L93.3523 133.591ZM97.9013 129.045L98.8104 129.045L98.8104 129.955L97.9013 129.955L97.9013 129.045ZM101.538 129.045L102.447 129.045L102.447 129.955L101.538 129.955L101.538 129.045ZM97.9013 132.682L98.8104 132.682L98.8104 134.5L97.9013 134.5L97.9013 132.682ZM100.629 129.955L101.538 129.955L101.538 130.864L100.629 130.864L100.629 129.955ZM98.8104 129.955L99.7195 129.955L99.7195 130.864L98.8104 130.864L98.8104 129.955ZM99.7195 130.864L100.629 130.864L100.629 131.773L99.7195 131.773L99.7195 130.864ZM98.8104 131.773L99.7195 131.773L99.7195 132.682L98.8104 132.682L98.8104 131.773ZM100.629 131.773L101.538 131.773L101.538 132.682L100.629 132.682L100.629 131.773ZM101.538 132.682L102.447 132.682L102.447 134.5L101.538 134.5L101.538 132.682Z" fill="#F3B23F"/>
<rect x="42.4746" y="134.318" width="1" height="8" transform="rotate(45 42.4746 134.318)" fill="#F3B23F"/>
<rect width="99" height="1" transform="translate(40.5 137)" fill="#F3B23F"/>
<rect x="142.475" y="134.318" width="1" height="8" transform="rotate(45 142.475 134.318)" fill="#F3B23F"/>
<path d="M2.57102 77.723L2.57102 75.9048L9.84375 75.9048L9.84375 76.8139L8.02557 76.8139L8.02557 80.4503L5.2983 80.4503L5.2983 79.5412L7.11648 79.5412L7.11648 76.8139L3.48011 76.8139L3.48011 77.723L2.57102 77.723ZM3.48011 78.6321L3.48011 77.723L4.3892 77.723L4.3892 78.6321L3.48011 78.6321ZM4.3892 79.5412L4.3892 78.6321L5.2983 78.6321L5.2983 79.5412L4.3892 79.5412ZM3.48011 74.0831L3.48011 73.174L6.20739 73.174L6.20739 72.2649L7.11648 72.2649L7.11648 73.174L8.93466 73.174L8.93466 74.0831L3.48011 74.0831ZM8.93466 73.174L8.93466 70.4467L9.84375 70.4467L9.84375 73.174L8.93466 73.174ZM2.57102 73.174L2.57102 70.4467L3.48011 70.4467L3.48011 73.174L2.57102 73.174ZM3.48011 70.4467L3.48011 69.5376L8.93466 69.5376L8.93466 70.4467L5.29829 70.4467L5.29829 71.3558L4.3892 71.3558L4.3892 70.4467L3.48011 70.4467ZM5.29829 72.2649L5.29829 71.3558L6.20739 71.3558L6.20739 72.2649L5.29829 72.2649Z" fill="#F3B23F"/>
<path d="M4.3892 66.4659L4.3892 65.5568L5.2983 65.5568L5.2983 64.6477L6.20739 64.6477L6.20739 65.5568L8.02557 65.5568L8.02557 64.6477L8.93466 64.6477L8.93466 65.5568L11.6619 65.5568L11.6619 66.4659L4.3892 66.4659ZM4.3892 64.6477L4.3892 62.8295L5.2983 62.8295L5.2983 64.6477L4.3892 64.6477ZM5.2983 62.8295L5.2983 61.9205L8.93466 61.9205L8.93466 62.8295L5.2983 62.8295ZM8.93466 64.6477L8.93466 62.8295L9.84375 62.8295L9.84375 64.6477L8.93466 64.6477ZM4.3892 60.0987L4.3892 59.1896L5.29829 59.1896L5.2983 60.0987L4.3892 60.0987ZM4.3892 56.4624L4.3892 55.5533L5.29829 55.5533L5.29829 56.4624L4.3892 56.4624ZM8.02557 60.0987L8.02557 59.1896L9.84375 59.1896L9.84375 60.0987L8.02557 60.0987ZM5.29829 57.3714L5.29829 56.4624L6.20739 56.4624L6.20739 57.3714L5.29829 57.3714ZM5.29829 59.1896L5.29829 58.2805L6.20739 58.2805L6.20739 59.1896L5.29829 59.1896ZM6.20739 58.2805L6.20739 57.3714L7.11648 57.3714L7.11648 58.2805L6.20739 58.2805ZM7.11648 59.1896L7.11648 58.2805L8.02557 58.2805L8.02557 59.1896L7.11648 59.1896ZM7.11648 57.3714L7.11648 56.4624L8.02557 56.4624L8.02557 57.3714L7.11648 57.3714ZM8.02557 56.4624L8.02557 55.5533L9.84375 55.5533L9.84375 56.4624L8.02557 56.4624Z" fill="#F3B23F"/>
<rect x="9.66211" y="105.525" width="1" height="8" transform="rotate(-45 9.66211 105.525)" fill="#F3B23F"/>
<rect width="79" height="1" transform="translate(12.3438 107.5) rotate(-90)" fill="#F3B23F"/>
<rect x="9.66211" y="25.5254" width="1" height="8" transform="rotate(-45 9.66211 25.5254)" fill="#F3B23F"/>
<rect x="9.34375" y="108.5" width="1" height="15" transform="rotate(-90 9.34375 108.5)" fill="#F3B23F"/>
<rect x="9.34375" y="28.5" width="1" height="15" transform="rotate(-90 9.34375 28.5)" fill="#F3B23F"/>
<rect x="139.5" y="124" width="1" height="17" fill="#F3B23F"/>
<rect x="279.5" y="124" width="1" height="17" fill="#F3B23F"/>
<path d="M198.459 131.773L199.368 131.773L199.368 134.5L198.459 134.5L198.459 131.773ZM199.368 130.864L200.277 130.864L200.277 131.773L199.368 131.773L199.368 130.864ZM200.277 129.955L201.186 129.955L201.186 130.864L200.277 130.864L200.277 129.955ZM201.186 128.136L197.55 128.136L197.55 127.227L202.095 127.227L202.095 129.955L201.186 129.955L201.186 128.136ZM203.917 128.136L204.826 128.136L204.826 130.864L205.735 130.864L205.735 131.773L204.826 131.773L204.826 133.591L203.917 133.591L203.917 128.136ZM204.826 133.591L207.553 133.591L207.553 134.5L204.826 134.5L204.826 133.591ZM204.826 127.227L207.553 127.227L207.553 128.136L204.826 128.136L204.826 127.227ZM207.553 128.136L208.462 128.136L208.462 133.591L207.553 133.591L207.553 129.955L206.644 129.955L206.644 129.045L207.553 129.045L207.553 128.136ZM205.735 129.955L206.644 129.955L206.644 130.864L205.735 130.864L205.735 129.955Z" fill="#F3B23F"/>
<path d="M211.534 129.045L212.443 129.045L212.443 129.955L213.352 129.955L213.352 130.864L212.443 130.864L212.443 132.682L213.352 132.682L213.352 133.591L212.443 133.591L212.443 136.318L211.534 136.318L211.534 129.045ZM213.352 129.045L215.17 129.045L215.17 129.955L213.352 129.955L213.352 129.045ZM215.17 129.955L216.08 129.955L216.08 133.591L215.17 133.591L215.17 129.955ZM213.352 133.591L215.17 133.591L215.17 134.5L213.352 134.5L213.352 133.591ZM217.901 129.045L218.81 129.045L218.81 129.955L217.901 129.955L217.901 129.045ZM221.538 129.045L222.447 129.045L222.447 129.955L221.538 129.955L221.538 129.045ZM217.901 132.682L218.81 132.682L218.81 134.5L217.901 134.5L217.901 132.682ZM220.629 129.955L221.538 129.955L221.538 130.864L220.629 130.864L220.629 129.955ZM218.81 129.955L219.719 129.955L219.719 130.864L218.81 130.864L218.81 129.955ZM219.719 130.864L220.629 130.864L220.629 131.773L219.719 131.773L219.719 130.864ZM218.81 131.773L219.719 131.773L219.719 132.682L218.81 132.682L218.81 131.773ZM220.629 131.773L221.538 131.773L221.538 132.682L220.629 132.682L220.629 131.773ZM221.538 132.682L222.447 132.682L222.447 134.5L221.538 134.5L221.538 132.682Z" fill="#F3B23F"/>
<rect x="142.475" y="134.318" width="1" height="8" transform="rotate(45 142.475 134.318)" fill="#F3B23F"/>
<rect width="139" height="1" transform="translate(140.5 137)" fill="#F3B23F"/>
<rect x="282.475" y="134.318" width="1" height="8" transform="rotate(45 282.475 134.318)" fill="#F3B23F"/>
<mask id="path-23-outside-1_104_6686" maskUnits="userSpaceOnUse" x="1.34375" y="0.5" width="70" height="13" fill="black">
<rect fill="white" x="1.34375" y="0.5" width="70" height="13"/>
<path d="M2.4858 0.863636H3.94034V5.22727H5.39489V6.68182H3.94034V9.59091H5.39489V11.0455H3.94034V12.5H2.4858V0.863636ZM5.39489 11.0455H8.30398V12.5H5.39489V11.0455ZM8.30398 5.22727H9.75852V11.0455H8.30398V5.22727ZM5.39489 3.77273H8.30398V5.22727H5.39489V3.77273ZM28.679 6.68182V8.13636H24.3153V6.68182H28.679ZM43.2358 9.59091H44.6903V11.0455H50.5085V12.5H43.2358V9.59091ZM49.054 2.31818H44.6903V0.863636H49.054V2.31818ZM49.054 2.31818H50.5085V5.22727H49.054V2.31818ZM44.6903 8.13636H46.1449V9.59091H44.6903V8.13636ZM43.2358 2.31818H44.6903V3.77273H43.2358V2.31818ZM47.5994 5.22727H49.054V6.68182H47.5994V5.22727ZM46.1449 6.68182H47.5994V8.13636H46.1449V6.68182ZM56.3324 9.59091H57.7869V12.5H56.3324V9.59091ZM56.3324 3.77273H57.7869V6.68182H56.3324V3.77273ZM66.5199 3.77273H63.6108V2.31818H66.5199V0.863636H67.9744V11.0455H70.8835V12.5H63.6108V11.0455H66.5199V3.77273Z"/>
</mask>
<path d="M2.4858 0.863636H3.94034V5.22727H5.39489V6.68182H3.94034V9.59091H5.39489V11.0455H3.94034V12.5H2.4858V0.863636ZM5.39489 11.0455H8.30398V12.5H5.39489V11.0455ZM8.30398 5.22727H9.75852V11.0455H8.30398V5.22727ZM5.39489 3.77273H8.30398V5.22727H5.39489V3.77273ZM28.679 6.68182V8.13636H24.3153V6.68182H28.679ZM43.2358 9.59091H44.6903V11.0455H50.5085V12.5H43.2358V9.59091ZM49.054 2.31818H44.6903V0.863636H49.054V2.31818ZM49.054 2.31818H50.5085V5.22727H49.054V2.31818ZM44.6903 8.13636H46.1449V9.59091H44.6903V8.13636ZM43.2358 2.31818H44.6903V3.77273H43.2358V2.31818ZM47.5994 5.22727H49.054V6.68182H47.5994V5.22727ZM46.1449 6.68182H47.5994V8.13636H46.1449V6.68182ZM56.3324 9.59091H57.7869V12.5H56.3324V9.59091ZM56.3324 3.77273H57.7869V6.68182H56.3324V3.77273ZM66.5199 3.77273H63.6108V2.31818H66.5199V0.863636H67.9744V11.0455H70.8835V12.5H63.6108V11.0455H66.5199V3.77273Z" fill="#F3B23F"/>
<path d="M2.4858 0.863636V0.663636H2.2858V0.863636H2.4858ZM3.94034 0.863636H4.14034V0.663636H3.94034V0.863636ZM3.94034 5.22727H3.74034V5.42727H3.94034V5.22727ZM5.39489 5.22727H5.59489V5.02727H5.39489V5.22727ZM5.39489 6.68182V6.88182H5.59489V6.68182H5.39489ZM3.94034 6.68182V6.48182H3.74034V6.68182H3.94034ZM3.94034 9.59091H3.74034V9.79091H3.94034V9.59091ZM5.39489 9.59091H5.59489V9.39091H5.39489V9.59091ZM5.39489 11.0455V11.2455H5.59489V11.0455H5.39489ZM3.94034 11.0455V10.8455H3.74034V11.0455H3.94034ZM3.94034 12.5V12.7H4.14034V12.5H3.94034ZM2.4858 12.5H2.2858V12.7H2.4858V12.5ZM5.39489 11.0455V10.8455H5.19489V11.0455H5.39489ZM8.30398 11.0455H8.50398V10.8455H8.30398V11.0455ZM8.30398 12.5V12.7H8.50398V12.5H8.30398ZM5.39489 12.5H5.19489V12.7H5.39489V12.5ZM8.30398 5.22727V5.02727H8.10398V5.22727H8.30398ZM9.75852 5.22727H9.95852V5.02727H9.75852V5.22727ZM9.75852 11.0455V11.2455H9.95852V11.0455H9.75852ZM8.30398 11.0455H8.10398V11.2455H8.30398V11.0455ZM5.39489 3.77273V3.57273H5.19489V3.77273H5.39489ZM8.30398 3.77273H8.50398V3.57273H8.30398V3.77273ZM8.30398 5.22727V5.42727H8.50398V5.22727H8.30398ZM5.39489 5.22727H5.19489V5.42727H5.39489V5.22727ZM2.4858 0.863636V1.06364H3.94034V0.863636V0.663636H2.4858V0.863636ZM3.94034 0.863636H3.74034V5.22727H3.94034H4.14034V0.863636H3.94034ZM3.94034 5.22727V5.42727H5.39489V5.22727V5.02727H3.94034V5.22727ZM5.39489 5.22727H5.19489V6.68182H5.39489H5.59489V5.22727H5.39489ZM5.39489 6.68182V6.48182H3.94034V6.68182V6.88182H5.39489V6.68182ZM3.94034 6.68182H3.74034V9.59091H3.94034H4.14034V6.68182H3.94034ZM3.94034 9.59091V9.79091H5.39489V9.59091V9.39091H3.94034V9.59091ZM5.39489 9.59091H5.19489V11.0455H5.39489H5.59489V9.59091H5.39489ZM5.39489 11.0455V10.8455H3.94034V11.0455V11.2455H5.39489V11.0455ZM3.94034 11.0455H3.74034V12.5H3.94034H4.14034V11.0455H3.94034ZM3.94034 12.5V12.3H2.4858V12.5V12.7H3.94034V12.5ZM2.4858 12.5H2.6858V0.863636H2.4858H2.2858V12.5H2.4858ZM5.39489 11.0455V11.2455H8.30398V11.0455V10.8455H5.39489V11.0455ZM8.30398 11.0455H8.10398V12.5H8.30398H8.50398V11.0455H8.30398ZM8.30398 12.5V12.3H5.39489V12.5V12.7H8.30398V12.5ZM5.39489 12.5H5.59489V11.0455H5.39489H5.19489V12.5H5.39489ZM8.30398 5.22727V5.42727H9.75852V5.22727V5.02727H8.30398V5.22727ZM9.75852 5.22727H9.55852V11.0455H9.75852H9.95852V5.22727H9.75852ZM9.75852 11.0455V10.8455H8.30398V11.0455V11.2455H9.75852V11.0455ZM8.30398 11.0455H8.50398V5.22727H8.30398H8.10398V11.0455H8.30398ZM5.39489 3.77273V3.97273H8.30398V3.77273V3.57273H5.39489V3.77273ZM8.30398 3.77273H8.10398V5.22727H8.30398H8.50398V3.77273H8.30398ZM8.30398 5.22727V5.02727H5.39489V5.22727V5.42727H8.30398V5.22727ZM5.39489 5.22727H5.59489V3.77273H5.39489H5.19489V5.22727H5.39489ZM28.679 6.68182H28.879V6.48182H28.679V6.68182ZM28.679 8.13636V8.33636H28.879V8.13636H28.679ZM24.3153 8.13636H24.1153V8.33636H24.3153V8.13636ZM24.3153 6.68182V6.48182H24.1153V6.68182H24.3153ZM28.679 6.68182H28.479V8.13636H28.679H28.879V6.68182H28.679ZM28.679 8.13636V7.93636H24.3153V8.13636V8.33636H28.679V8.13636ZM24.3153 8.13636H24.5153V6.68182H24.3153H24.1153V8.13636H24.3153ZM24.3153 6.68182V6.88182H28.679V6.68182V6.48182H24.3153V6.68182ZM43.2358 9.59091V9.39091H43.0358V9.59091H43.2358ZM44.6903 9.59091H44.8903V9.39091H44.6903V9.59091ZM44.6903 11.0455H44.4903V11.2455H44.6903V11.0455ZM50.5085 11.0455H50.7085V10.8455H50.5085V11.0455ZM50.5085 12.5V12.7H50.7085V12.5H50.5085ZM43.2358 12.5H43.0358V12.7H43.2358V12.5ZM49.054 2.31818V2.51818H49.254V2.31818H49.054ZM44.6903 2.31818H44.4903V2.51818H44.6903V2.31818ZM44.6903 0.863636V0.663636H44.4903V0.863636H44.6903ZM49.054 0.863636H49.254V0.663636H49.054V0.863636ZM49.054 2.31818V2.11818H48.854V2.31818H49.054ZM50.5085 2.31818H50.7085V2.11818H50.5085V2.31818ZM50.5085 5.22727V5.42727H50.7085V5.22727H50.5085ZM49.054 5.22727H48.854V5.42727H49.054V5.22727ZM44.6903 8.13636V7.93636H44.4903V8.13636H44.6903ZM46.1449 8.13636H46.3449V7.93636H46.1449V8.13636ZM46.1449 9.59091V9.79091H46.3449V9.59091H46.1449ZM44.6903 9.59091H44.4903V9.79091H44.6903V9.59091ZM43.2358 2.31818V2.11818H43.0358V2.31818H43.2358ZM44.6903 2.31818H44.8903V2.11818H44.6903V2.31818ZM44.6903 3.77273V3.97273H44.8903V3.77273H44.6903ZM43.2358 3.77273H43.0358V3.97273H43.2358V3.77273ZM47.5994 5.22727V5.02727H47.3994V5.22727H47.5994ZM49.054 5.22727H49.254V5.02727H49.054V5.22727ZM49.054 6.68182V6.88182H49.254V6.68182H49.054ZM47.5994 6.68182H47.3994V6.88182H47.5994V6.68182ZM46.1449 6.68182V6.48182H45.9449V6.68182H46.1449ZM47.5994 6.68182H47.7994V6.48182H47.5994V6.68182ZM47.5994 8.13636V8.33636H47.7994V8.13636H47.5994ZM46.1449 8.13636H45.9449V8.33636H46.1449V8.13636ZM43.2358 9.59091V9.79091H44.6903V9.59091V9.39091H43.2358V9.59091ZM44.6903 9.59091H44.4903V11.0455H44.6903H44.8903V9.59091H44.6903ZM44.6903 11.0455V11.2455H50.5085V11.0455V10.8455H44.6903V11.0455ZM50.5085 11.0455H50.3085V12.5H50.5085H50.7085V11.0455H50.5085ZM50.5085 12.5V12.3H43.2358V12.5V12.7H50.5085V12.5ZM43.2358 12.5H43.4358V9.59091H43.2358H43.0358V12.5H43.2358ZM49.054 2.31818V2.11818H44.6903V2.31818V2.51818H49.054V2.31818ZM44.6903 2.31818H44.8903V0.863636H44.6903H44.4903V2.31818H44.6903ZM44.6903 0.863636V1.06364H49.054V0.863636V0.663636H44.6903V0.863636ZM49.054 0.863636H48.854V2.31818H49.054H49.254V0.863636H49.054ZM49.054 2.31818V2.51818H50.5085V2.31818V2.11818H49.054V2.31818ZM50.5085 2.31818H50.3085V5.22727H50.5085H50.7085V2.31818H50.5085ZM50.5085 5.22727V5.02727H49.054V5.22727V5.42727H50.5085V5.22727ZM49.054 5.22727H49.254V2.31818H49.054H48.854V5.22727H49.054ZM44.6903 8.13636V8.33636H46.1449V8.13636V7.93636H44.6903V8.13636ZM46.1449 8.13636H45.9449V9.59091H46.1449H46.3449V8.13636H46.1449ZM46.1449 9.59091V9.39091H44.6903V9.59091V9.79091H46.1449V9.59091ZM44.6903 9.59091H44.8903V8.13636H44.6903H44.4903V9.59091H44.6903ZM43.2358 2.31818V2.51818H44.6903V2.31818V2.11818H43.2358V2.31818ZM44.6903 2.31818H44.4903V3.77273H44.6903H44.8903V2.31818H44.6903ZM44.6903 3.77273V3.57273H43.2358V3.77273V3.97273H44.6903V3.77273ZM43.2358 3.77273H43.4358V2.31818H43.2358H43.0358V3.77273H43.2358ZM47.5994 5.22727V5.42727H49.054V5.22727V5.02727H47.5994V5.22727ZM49.054 5.22727H48.854V6.68182H49.054H49.254V5.22727H49.054ZM49.054 6.68182V6.48182H47.5994V6.68182V6.88182H49.054V6.68182ZM47.5994 6.68182H47.7994V5.22727H47.5994H47.3994V6.68182H47.5994ZM46.1449 6.68182V6.88182H47.5994V6.68182V6.48182H46.1449V6.68182ZM47.5994 6.68182H47.3994V8.13636H47.5994H47.7994V6.68182H47.5994ZM47.5994 8.13636V7.93636H46.1449V8.13636V8.33636H47.5994V8.13636ZM46.1449 8.13636H46.3449V6.68182H46.1449H45.9449V8.13636H46.1449ZM56.3324 9.59091V9.39091H56.1324V9.59091H56.3324ZM57.7869 9.59091H57.9869V9.39091H57.7869V9.59091ZM57.7869 12.5V12.7H57.9869V12.5H57.7869ZM56.3324 12.5H56.1324V12.7H56.3324V12.5ZM56.3324 3.77273V3.57273H56.1324V3.77273H56.3324ZM57.7869 3.77273H57.9869V3.57273H57.7869V3.77273ZM57.7869 6.68182V6.88182H57.9869V6.68182H57.7869ZM56.3324 6.68182H56.1324V6.88182H56.3324V6.68182ZM56.3324 9.59091V9.79091H57.7869V9.59091V9.39091H56.3324V9.59091ZM57.7869 9.59091H57.5869V12.5H57.7869H57.9869V9.59091H57.7869ZM57.7869 12.5V12.3H56.3324V12.5V12.7H57.7869V12.5ZM56.3324 12.5H56.5324V9.59091H56.3324H56.1324V12.5H56.3324ZM56.3324 3.77273V3.97273H57.7869V3.77273V3.57273H56.3324V3.77273ZM57.7869 3.77273H57.5869V6.68182H57.7869H57.9869V3.77273H57.7869ZM57.7869 6.68182V6.48182H56.3324V6.68182V6.88182H57.7869V6.68182ZM56.3324 6.68182H56.5324V3.77273H56.3324H56.1324V6.68182H56.3324ZM66.5199 3.77273H66.7199V3.57273H66.5199V3.77273ZM63.6108 3.77273H63.4108V3.97273H63.6108V3.77273ZM63.6108 2.31818V2.11818H63.4108V2.31818H63.6108ZM66.5199 2.31818V2.51818H66.7199V2.31818H66.5199ZM66.5199 0.863636V0.663636H66.3199V0.863636H66.5199ZM67.9744 0.863636H68.1744V0.663636H67.9744V0.863636ZM67.9744 11.0455H67.7744V11.2455H67.9744V11.0455ZM70.8835 11.0455H71.0835V10.8455H70.8835V11.0455ZM70.8835 12.5V12.7H71.0835V12.5H70.8835ZM63.6108 12.5H63.4108V12.7H63.6108V12.5ZM63.6108 11.0455V10.8455H63.4108V11.0455H63.6108ZM66.5199 11.0455V11.2455H66.7199V11.0455H66.5199ZM66.5199 3.77273V3.57273H63.6108V3.77273V3.97273H66.5199V3.77273ZM63.6108 3.77273H63.8108V2.31818H63.6108H63.4108V3.77273H63.6108ZM63.6108 2.31818V2.51818H66.5199V2.31818V2.11818H63.6108V2.31818ZM66.5199 2.31818H66.7199V0.863636H66.5199H66.3199V2.31818H66.5199ZM66.5199 0.863636V1.06364H67.9744V0.863636V0.663636H66.5199V0.863636ZM67.9744 0.863636H67.7744V11.0455H67.9744H68.1744V0.863636H67.9744ZM67.9744 11.0455V11.2455H70.8835V11.0455V10.8455H67.9744V11.0455ZM70.8835 11.0455H70.6835V12.5H70.8835H71.0835V11.0455H70.8835ZM70.8835 12.5V12.3H63.6108V12.5V12.7H70.8835V12.5ZM63.6108 12.5H63.8108V11.0455H63.6108H63.4108V12.5H63.6108ZM63.6108 11.0455V11.2455H66.5199V11.0455V10.8455H63.6108V11.0455ZM66.5199 11.0455H66.7199V3.77273H66.5199H66.3199V11.0455H66.5199Z" fill="#F3B23F" mask="url(#path-23-outside-1_104_6686)"/>
<rect width="14" height="1" transform="matrix(-0.707107 0.707107 0.707107 0.707107 251.472 16.0088)" fill="#F3B23F"/>
<path d="M240.512 27.676L245.225 26.0249L242.163 22.9631L240.512 27.676Z" fill="#F3B23F"/>
<path d="M263.043 6.72727H266.679V7.63636H263.952V10.3636H266.679V12.1818H265.77V11.2727H263.952V14H263.043V6.72727ZM266.679 7.63636H267.588V10.3636H266.679V7.63636ZM266.679 12.1818H267.588V14H266.679V12.1818Z" fill="#F3B23F"/>
<path d="M272.77 6.72727H274.588V14H273.679V12.1818H270.043V9.45455H270.952V11.2727H273.679V7.63636H272.77V6.72727ZM271.861 7.63636H272.77V8.54545H271.861V7.63636ZM270.952 8.54545H271.861V9.45455H270.952V8.54545ZM276.41 7.63636H277.319V10.3636H278.228V11.2727H277.319V13.0909H276.41V7.63636ZM277.319 13.0909H280.046V14H277.319V13.0909ZM277.319 6.72727H280.046V7.63636H277.319V6.72727ZM280.046 7.63636H280.956V13.0909H280.046V9.45455H279.137V8.54545H280.046V7.63636ZM278.228 9.45455H279.137V10.3636H278.228V9.45455Z" fill="#F3B23F"/>
<path d="M283.41 8.54545H284.319V9.45455H285.228V10.3636H284.319V12.1818H285.228V13.0909H284.319V15.8182H283.41V8.54545ZM285.228 8.54545H287.046V9.45455H285.228V8.54545ZM287.046 9.45455H287.956V13.0909H287.046V9.45455ZM285.228 13.0909H287.046V14H285.228V13.0909ZM289.777 8.54545H290.686V9.45455H289.777V8.54545ZM293.414 8.54545H294.323V9.45455H293.414V8.54545ZM289.777 12.1818H290.686V14H289.777V12.1818ZM292.505 9.45455H293.414V10.3636H292.505V9.45455ZM290.686 9.45455H291.595V10.3636H290.686V9.45455ZM291.595 10.3636H292.505V11.2727H291.595V10.3636ZM290.686 11.2727H291.595V12.1818H290.686V11.2727ZM292.505 11.2727H293.414V12.1818H292.505V11.2727ZM293.414 12.1818H294.323V14H293.414V12.1818Z" fill="#F3B23F"/>
<rect width="44" height="1" transform="translate(251.501 16)" fill="#F3B23F"/>
</svg>
