<svg width="143" height="164" viewBox="0 0 143 164" fill="none" xmlns="http://www.w3.org/2000/svg">
<rect x="22.5" y="145.5" width="1" height="17" fill="#F3B23F"/>
<rect x="102.5" y="145.5" width="1" height="17" fill="#F3B23F"/>
<path d="M53.277 148.727H55.0952V156H54.1861V154.182H50.5497V151.455H51.4588V153.273H54.1861V149.636H53.277V148.727ZM52.3679 149.636H53.277V150.545H52.3679V149.636ZM51.4588 150.545H52.3679V151.455H51.4588V150.545ZM56.9169 149.636H57.826V152.364H58.7351V153.273H57.826V155.091H56.9169V149.636ZM57.826 155.091H60.5533V156H57.826V155.091ZM57.826 148.727H60.5533V149.636H57.826V148.727ZM60.5533 149.636H61.4624V155.091H60.5533V151.455H59.6442V150.545H60.5533V149.636ZM58.7351 151.455H59.6442V152.364H58.7351V151.455Z" fill="#F3B23F"/>
<path d="M64.5341 150.545H65.4432V151.455H66.3523V152.364H65.4432V154.182H66.3523V155.091H65.4432V157.818H64.5341V150.545ZM66.3523 150.545H68.1705V151.455H66.3523V150.545ZM68.1705 151.455H69.0795V155.091H68.1705V151.455ZM66.3523 155.091H68.1705V156H66.3523V155.091ZM70.9013 150.545H71.8104V151.455H70.9013V150.545ZM74.5376 150.545H75.4467V151.455H74.5376V150.545ZM70.9013 154.182H71.8104V156H70.9013V154.182ZM73.6286 151.455H74.5376V152.364H73.6286V151.455ZM71.8104 151.455H72.7195V152.364H71.8104V151.455ZM72.7195 152.364H73.6286V153.273H72.7195V152.364ZM71.8104 153.273H72.7195V154.182H71.8104V153.273ZM73.6286 153.273H74.5376V154.182H73.6286V153.273ZM74.5376 154.182H75.4467V156H74.5376V154.182Z" fill="#F3B23F"/>
<rect x="25.4746" y="155.818" width="1" height="8" transform="rotate(45 25.4746 155.818)" fill="#F3B23F"/>
<rect width="79" height="1" transform="translate(23.5 158.5)" fill="#F3B23F"/>
<rect x="105.475" y="155.818" width="1" height="8" transform="rotate(45 105.475 155.818)" fill="#F3B23F"/>
<path d="M140.313 84.277L140.313 86.0952L133.04 86.0952L133.04 85.1861L134.858 85.1861L134.858 81.5497L137.585 81.5497L137.585 82.4588L135.767 82.4588L135.767 85.1861L139.404 85.1861L139.404 84.277L140.313 84.277ZM139.404 83.3679L139.404 84.277L138.495 84.277L138.495 83.3679L139.404 83.3679ZM138.495 82.4588L138.495 83.3679L137.585 83.3679L137.585 82.4588L138.495 82.4588ZM139.404 87.9169L139.404 88.826L136.676 88.826L136.676 89.7351L135.767 89.7351L135.767 88.826L133.949 88.826L133.949 87.9169L139.404 87.9169ZM133.949 88.826L133.949 91.5533L133.04 91.5533L133.04 88.826L133.949 88.826ZM140.313 88.826L140.313 91.5533L139.404 91.5533L139.404 88.826L140.313 88.826ZM139.404 91.5533L139.404 92.4624L133.949 92.4624L133.949 91.5533L137.585 91.5533L137.585 90.6442L138.495 90.6442L138.495 91.5533L139.404 91.5533ZM137.585 89.7351L137.585 90.6442L136.676 90.6442L136.676 89.7351L137.585 89.7351Z" fill="#F3B23F"/>
<path d="M138.495 95.5341L138.495 96.4432L137.585 96.4432L137.585 97.3523L136.676 97.3523L136.676 96.4432L134.858 96.4432L134.858 97.3523L133.949 97.3523L133.949 96.4432L131.222 96.4432L131.222 95.5341L138.495 95.5341ZM138.495 97.3523L138.495 99.1705L137.585 99.1705L137.585 97.3523L138.495 97.3523ZM137.585 99.1705L137.585 100.08L133.949 100.08L133.949 99.1705L137.585 99.1705ZM133.949 97.3523L133.949 99.1705L133.04 99.1705L133.04 97.3523L133.949 97.3523ZM138.495 101.901L138.495 102.81L137.585 102.81L137.585 101.901L138.495 101.901ZM138.495 105.538L138.495 106.447L137.585 106.447L137.585 105.538L138.495 105.538ZM134.858 101.901L134.858 102.81L133.04 102.81L133.04 101.901L134.858 101.901ZM137.585 104.629L137.585 105.538L136.676 105.538L136.676 104.629L137.585 104.629ZM137.585 102.81L137.585 103.719L136.676 103.719L136.676 102.81L137.585 102.81ZM136.676 103.719L136.676 104.629L135.767 104.629L135.767 103.719L136.676 103.719ZM135.767 102.81L135.767 103.719L134.858 103.719L134.858 102.81L135.767 102.81ZM135.767 104.629L135.767 105.538L134.858 105.538L134.858 104.629L135.767 104.629ZM134.858 105.538L134.858 106.447L133.04 106.447L133.04 105.538L134.858 105.538Z" fill="#F3B23F"/>
<rect x="133.222" y="56.4746" width="1" height="8" transform="rotate(135 133.222 56.4746)" fill="#F3B23F"/>
<rect width="79" height="1" transform="translate(130.54 54.5) rotate(90)" fill="#F3B23F"/>
<rect x="133.222" y="136.475" width="1" height="8" transform="rotate(135 133.222 136.475)" fill="#F3B23F"/>
<rect x="133.54" y="53.5" width="1" height="15" transform="rotate(90 133.54 53.5)" fill="#F3B23F"/>
<rect x="133.54" y="133.5" width="1" height="15" transform="rotate(90 133.54 133.5)" fill="#F3B23F"/>
<rect x="23.79" y="50.75" width="77.5" height="77.5" rx="6.75" stroke="#F3B23F" stroke-width="2.5"/>
<mask id="path-14-outside-1_104_6635" maskUnits="userSpaceOnUse" x="-19.5" y="0.75" width="70" height="13" fill="black">
<rect fill="white" x="-19.5" y="0.75" width="70" height="13"/>
<path d="M-16.9034 4.02273H-12.5398V5.47727H-16.9034V4.02273ZM-18.358 5.47727H-16.9034V11.2955H-18.358V5.47727ZM-16.9034 11.2955H-12.5398V12.75H-16.9034V11.2955ZM-12.5398 5.47727H-11.0852V6.93182H-12.5398V5.47727ZM-12.5398 9.84091H-11.0852V11.2955H-12.5398V9.84091ZM7.83523 6.93182V8.38636H3.47159V6.93182H7.83523ZM22.392 9.84091H23.8466V11.2955H29.6648V12.75H22.392V9.84091ZM28.2102 2.56818H23.8466V1.11364H28.2102V2.56818ZM28.2102 2.56818H29.6648V5.47727H28.2102V2.56818ZM23.8466 8.38636H25.3011V9.84091H23.8466V8.38636ZM22.392 2.56818H23.8466V4.02273H22.392V2.56818ZM26.7557 5.47727H28.2102V6.93182H26.7557V5.47727ZM25.3011 6.93182H26.7557V8.38636H25.3011V6.93182ZM35.4886 9.84091H36.9432V12.75H35.4886V9.84091ZM35.4886 4.02273H36.9432V6.93182H35.4886V4.02273ZM45.6761 4.02273H42.767V2.56818H45.6761V1.11364H47.1307V11.2955H50.0398V12.75H42.767V11.2955H45.6761V4.02273Z"/>
</mask>
<path d="M-16.9034 4.02273H-12.5398V5.47727H-16.9034V4.02273ZM-18.358 5.47727H-16.9034V11.2955H-18.358V5.47727ZM-16.9034 11.2955H-12.5398V12.75H-16.9034V11.2955ZM-12.5398 5.47727H-11.0852V6.93182H-12.5398V5.47727ZM-12.5398 9.84091H-11.0852V11.2955H-12.5398V9.84091ZM7.83523 6.93182V8.38636H3.47159V6.93182H7.83523ZM22.392 9.84091H23.8466V11.2955H29.6648V12.75H22.392V9.84091ZM28.2102 2.56818H23.8466V1.11364H28.2102V2.56818ZM28.2102 2.56818H29.6648V5.47727H28.2102V2.56818ZM23.8466 8.38636H25.3011V9.84091H23.8466V8.38636ZM22.392 2.56818H23.8466V4.02273H22.392V2.56818ZM26.7557 5.47727H28.2102V6.93182H26.7557V5.47727ZM25.3011 6.93182H26.7557V8.38636H25.3011V6.93182ZM35.4886 9.84091H36.9432V12.75H35.4886V9.84091ZM35.4886 4.02273H36.9432V6.93182H35.4886V4.02273ZM45.6761 4.02273H42.767V2.56818H45.6761V1.11364H47.1307V11.2955H50.0398V12.75H42.767V11.2955H45.6761V4.02273Z" fill="#F3B23F"/>
<path d="M-16.9034 4.02273V3.82273H-17.1034V4.02273H-16.9034ZM-12.5398 4.02273H-12.3398V3.82273H-12.5398V4.02273ZM-12.5398 5.47727V5.67727H-12.3398V5.47727H-12.5398ZM-16.9034 5.47727H-17.1034V5.67727H-16.9034V5.47727ZM-18.358 5.47727V5.27727H-18.558V5.47727H-18.358ZM-16.9034 5.47727H-16.7034V5.27727H-16.9034V5.47727ZM-16.9034 11.2955V11.4955H-16.7034V11.2955H-16.9034ZM-18.358 11.2955H-18.558V11.4955H-18.358V11.2955ZM-16.9034 11.2955V11.0955H-17.1034V11.2955H-16.9034ZM-12.5398 11.2955H-12.3398V11.0955H-12.5398V11.2955ZM-12.5398 12.75V12.95H-12.3398V12.75H-12.5398ZM-16.9034 12.75H-17.1034V12.95H-16.9034V12.75ZM-12.5398 5.47727V5.27727H-12.7398V5.47727H-12.5398ZM-11.0852 5.47727H-10.8852V5.27727H-11.0852V5.47727ZM-11.0852 6.93182V7.13182H-10.8852V6.93182H-11.0852ZM-12.5398 6.93182H-12.7398V7.13182H-12.5398V6.93182ZM-12.5398 9.84091V9.64091H-12.7398V9.84091H-12.5398ZM-11.0852 9.84091H-10.8852V9.64091H-11.0852V9.84091ZM-11.0852 11.2955V11.4955H-10.8852V11.2955H-11.0852ZM-12.5398 11.2955H-12.7398V11.4955H-12.5398V11.2955ZM-16.9034 4.02273V4.22273H-12.5398V4.02273V3.82273H-16.9034V4.02273ZM-12.5398 4.02273H-12.7398V5.47727H-12.5398H-12.3398V4.02273H-12.5398ZM-12.5398 5.47727V5.27727H-16.9034V5.47727V5.67727H-12.5398V5.47727ZM-16.9034 5.47727H-16.7034V4.02273H-16.9034H-17.1034V5.47727H-16.9034ZM-18.358 5.47727V5.67727H-16.9034V5.47727V5.27727H-18.358V5.47727ZM-16.9034 5.47727H-17.1034V11.2955H-16.9034H-16.7034V5.47727H-16.9034ZM-16.9034 11.2955V11.0955H-18.358V11.2955V11.4955H-16.9034V11.2955ZM-18.358 11.2955H-18.158V5.47727H-18.358H-18.558V11.2955H-18.358ZM-16.9034 11.2955V11.4955H-12.5398V11.2955V11.0955H-16.9034V11.2955ZM-12.5398 11.2955H-12.7398V12.75H-12.5398H-12.3398V11.2955H-12.5398ZM-12.5398 12.75V12.55H-16.9034V12.75V12.95H-12.5398V12.75ZM-16.9034 12.75H-16.7034V11.2955H-16.9034H-17.1034V12.75H-16.9034ZM-12.5398 5.47727V5.67727H-11.0852V5.47727V5.27727H-12.5398V5.47727ZM-11.0852 5.47727H-11.2852V6.93182H-11.0852H-10.8852V5.47727H-11.0852ZM-11.0852 6.93182V6.73182H-12.5398V6.93182V7.13182H-11.0852V6.93182ZM-12.5398 6.93182H-12.3398V5.47727H-12.5398H-12.7398V6.93182H-12.5398ZM-12.5398 9.84091V10.0409H-11.0852V9.84091V9.64091H-12.5398V9.84091ZM-11.0852 9.84091H-11.2852V11.2955H-11.0852H-10.8852V9.84091H-11.0852ZM-11.0852 11.2955V11.0955H-12.5398V11.2955V11.4955H-11.0852V11.2955ZM-12.5398 11.2955H-12.3398V9.84091H-12.5398H-12.7398V11.2955H-12.5398ZM7.83523 6.93182H8.03523V6.73182H7.83523V6.93182ZM7.83523 8.38636V8.58636H8.03523V8.38636H7.83523ZM3.47159 8.38636H3.27159V8.58636H3.47159V8.38636ZM3.47159 6.93182V6.73182H3.27159V6.93182H3.47159ZM7.83523 6.93182H7.63523V8.38636H7.83523H8.03523V6.93182H7.83523ZM7.83523 8.38636V8.18636H3.47159V8.38636V8.58636H7.83523V8.38636ZM3.47159 8.38636H3.67159V6.93182H3.47159H3.27159V8.38636H3.47159ZM3.47159 6.93182V7.13182H7.83523V6.93182V6.73182H3.47159V6.93182ZM22.392 9.84091V9.64091H22.192V9.84091H22.392ZM23.8466 9.84091H24.0466V9.64091H23.8466V9.84091ZM23.8466 11.2955H23.6466V11.4955H23.8466V11.2955ZM29.6648 11.2955H29.8648V11.0955H29.6648V11.2955ZM29.6648 12.75V12.95H29.8648V12.75H29.6648ZM22.392 12.75H22.192V12.95H22.392V12.75ZM28.2102 2.56818V2.76818H28.4102V2.56818H28.2102ZM23.8466 2.56818H23.6466V2.76818H23.8466V2.56818ZM23.8466 1.11364V0.913636H23.6466V1.11364H23.8466ZM28.2102 1.11364H28.4102V0.913636H28.2102V1.11364ZM28.2102 2.56818V2.36818H28.0102V2.56818H28.2102ZM29.6648 2.56818H29.8648V2.36818H29.6648V2.56818ZM29.6648 5.47727V5.67727H29.8648V5.47727H29.6648ZM28.2102 5.47727H28.0102V5.67727H28.2102V5.47727ZM23.8466 8.38636V8.18636H23.6466V8.38636H23.8466ZM25.3011 8.38636H25.5011V8.18636H25.3011V8.38636ZM25.3011 9.84091V10.0409H25.5011V9.84091H25.3011ZM23.8466 9.84091H23.6466V10.0409H23.8466V9.84091ZM22.392 2.56818V2.36818H22.192V2.56818H22.392ZM23.8466 2.56818H24.0466V2.36818H23.8466V2.56818ZM23.8466 4.02273V4.22273H24.0466V4.02273H23.8466ZM22.392 4.02273H22.192V4.22273H22.392V4.02273ZM26.7557 5.47727V5.27727H26.5557V5.47727H26.7557ZM28.2102 5.47727H28.4102V5.27727H28.2102V5.47727ZM28.2102 6.93182V7.13182H28.4102V6.93182H28.2102ZM26.7557 6.93182H26.5557V7.13182H26.7557V6.93182ZM25.3011 6.93182V6.73182H25.1011V6.93182H25.3011ZM26.7557 6.93182H26.9557V6.73182H26.7557V6.93182ZM26.7557 8.38636V8.58636H26.9557V8.38636H26.7557ZM25.3011 8.38636H25.1011V8.58636H25.3011V8.38636ZM22.392 9.84091V10.0409H23.8466V9.84091V9.64091H22.392V9.84091ZM23.8466 9.84091H23.6466V11.2955H23.8466H24.0466V9.84091H23.8466ZM23.8466 11.2955V11.4955H29.6648V11.2955V11.0955H23.8466V11.2955ZM29.6648 11.2955H29.4648V12.75H29.6648H29.8648V11.2955H29.6648ZM29.6648 12.75V12.55H22.392V12.75V12.95H29.6648V12.75ZM22.392 12.75H22.592V9.84091H22.392H22.192V12.75H22.392ZM28.2102 2.56818V2.36818H23.8466V2.56818V2.76818H28.2102V2.56818ZM23.8466 2.56818H24.0466V1.11364H23.8466H23.6466V2.56818H23.8466ZM23.8466 1.11364V1.31364H28.2102V1.11364V0.913636H23.8466V1.11364ZM28.2102 1.11364H28.0102V2.56818H28.2102H28.4102V1.11364H28.2102ZM28.2102 2.56818V2.76818H29.6648V2.56818V2.36818H28.2102V2.56818ZM29.6648 2.56818H29.4648V5.47727H29.6648H29.8648V2.56818H29.6648ZM29.6648 5.47727V5.27727H28.2102V5.47727V5.67727H29.6648V5.47727ZM28.2102 5.47727H28.4102V2.56818H28.2102H28.0102V5.47727H28.2102ZM23.8466 8.38636V8.58636H25.3011V8.38636V8.18636H23.8466V8.38636ZM25.3011 8.38636H25.1011V9.84091H25.3011H25.5011V8.38636H25.3011ZM25.3011 9.84091V9.64091H23.8466V9.84091V10.0409H25.3011V9.84091ZM23.8466 9.84091H24.0466V8.38636H23.8466H23.6466V9.84091H23.8466ZM22.392 2.56818V2.76818H23.8466V2.56818V2.36818H22.392V2.56818ZM23.8466 2.56818H23.6466V4.02273H23.8466H24.0466V2.56818H23.8466ZM23.8466 4.02273V3.82273H22.392V4.02273V4.22273H23.8466V4.02273ZM22.392 4.02273H22.592V2.56818H22.392H22.192V4.02273H22.392ZM26.7557 5.47727V5.67727H28.2102V5.47727V5.27727H26.7557V5.47727ZM28.2102 5.47727H28.0102V6.93182H28.2102H28.4102V5.47727H28.2102ZM28.2102 6.93182V6.73182H26.7557V6.93182V7.13182H28.2102V6.93182ZM26.7557 6.93182H26.9557V5.47727H26.7557H26.5557V6.93182H26.7557ZM25.3011 6.93182V7.13182H26.7557V6.93182V6.73182H25.3011V6.93182ZM26.7557 6.93182H26.5557V8.38636H26.7557H26.9557V6.93182H26.7557ZM26.7557 8.38636V8.18636H25.3011V8.38636V8.58636H26.7557V8.38636ZM25.3011 8.38636H25.5011V6.93182H25.3011H25.1011V8.38636H25.3011ZM35.4886 9.84091V9.64091H35.2886V9.84091H35.4886ZM36.9432 9.84091H37.1432V9.64091H36.9432V9.84091ZM36.9432 12.75V12.95H37.1432V12.75H36.9432ZM35.4886 12.75H35.2886V12.95H35.4886V12.75ZM35.4886 4.02273V3.82273H35.2886V4.02273H35.4886ZM36.9432 4.02273H37.1432V3.82273H36.9432V4.02273ZM36.9432 6.93182V7.13182H37.1432V6.93182H36.9432ZM35.4886 6.93182H35.2886V7.13182H35.4886V6.93182ZM35.4886 9.84091V10.0409H36.9432V9.84091V9.64091H35.4886V9.84091ZM36.9432 9.84091H36.7432V12.75H36.9432H37.1432V9.84091H36.9432ZM36.9432 12.75V12.55H35.4886V12.75V12.95H36.9432V12.75ZM35.4886 12.75H35.6886V9.84091H35.4886H35.2886V12.75H35.4886ZM35.4886 4.02273V4.22273H36.9432V4.02273V3.82273H35.4886V4.02273ZM36.9432 4.02273H36.7432V6.93182H36.9432H37.1432V4.02273H36.9432ZM36.9432 6.93182V6.73182H35.4886V6.93182V7.13182H36.9432V6.93182ZM35.4886 6.93182H35.6886V4.02273H35.4886H35.2886V6.93182H35.4886ZM45.6761 4.02273H45.8761V3.82273H45.6761V4.02273ZM42.767 4.02273H42.567V4.22273H42.767V4.02273ZM42.767 2.56818V2.36818H42.567V2.56818H42.767ZM45.6761 2.56818V2.76818H45.8761V2.56818H45.6761ZM45.6761 1.11364V0.913636H45.4761V1.11364H45.6761ZM47.1307 1.11364H47.3307V0.913636H47.1307V1.11364ZM47.1307 11.2955H46.9307V11.4955H47.1307V11.2955ZM50.0398 11.2955H50.2398V11.0955H50.0398V11.2955ZM50.0398 12.75V12.95H50.2398V12.75H50.0398ZM42.767 12.75H42.567V12.95H42.767V12.75ZM42.767 11.2955V11.0955H42.567V11.2955H42.767ZM45.6761 11.2955V11.4955H45.8761V11.2955H45.6761ZM45.6761 4.02273V3.82273H42.767V4.02273V4.22273H45.6761V4.02273ZM42.767 4.02273H42.967V2.56818H42.767H42.567V4.02273H42.767ZM42.767 2.56818V2.76818H45.6761V2.56818V2.36818H42.767V2.56818ZM45.6761 2.56818H45.8761V1.11364H45.6761H45.4761V2.56818H45.6761ZM45.6761 1.11364V1.31364H47.1307V1.11364V0.913636H45.6761V1.11364ZM47.1307 1.11364H46.9307V11.2955H47.1307H47.3307V1.11364H47.1307ZM47.1307 11.2955V11.4955H50.0398V11.2955V11.0955H47.1307V11.2955ZM50.0398 11.2955H49.8398V12.75H50.0398H50.2398V11.2955H50.0398ZM50.0398 12.75V12.55H42.767V12.75V12.95H50.0398V12.75ZM42.767 12.75H42.967V11.2955H42.767H42.567V12.75H42.767ZM42.767 11.2955V11.4955H45.6761V11.2955V11.0955H42.767V11.2955ZM45.6761 11.2955H45.8761V4.02273H45.6761H45.4761V11.2955H45.6761Z" fill="#F3B23F" mask="url(#path-14-outside-1_104_6635)"/>
<rect width="14" height="1" transform="translate(13.5156 39.2588) rotate(45)" fill="#F3B23F"/>
<path d="M24.4754 50.926L19.7625 49.2749L22.8243 46.2131L24.4754 50.926Z" fill="#F3B23F"/>
<path d="M-2.59091 31.7955H-1.68182V32.7045H-0.772727V33.6136H-1.68182V35.4318H-0.772727V36.3409H-1.68182V39.0682H-2.59091V31.7955ZM-0.772727 31.7955H1.04545V32.7045H-0.772727V31.7955ZM1.04545 32.7045H1.95455V36.3409H1.04545V32.7045ZM-0.772727 36.3409H1.04545V37.25H-0.772727V36.3409ZM3.77628 31.7955H4.68537V32.7045H3.77628V31.7955ZM7.41264 31.7955H8.32173V32.7045H7.41264V31.7955ZM3.77628 35.4318H4.68537V37.25H3.77628V35.4318ZM6.50355 32.7045H7.41264V33.6136H6.50355V32.7045ZM4.68537 32.7045H5.59446V33.6136H4.68537V32.7045ZM5.59446 33.6136H6.50355V34.5227H5.59446V33.6136ZM4.68537 34.5227H5.59446V35.4318H4.68537V34.5227ZM6.50355 34.5227H7.41264V35.4318H6.50355V34.5227ZM7.41264 35.4318H8.32173V37.25H7.41264V35.4318Z" fill="#F3B23F"/>
<rect width="34" height="1" transform="translate(-20.5 39.25)" fill="#F3B23F"/>
</svg>
