<svg width="94" height="115" viewBox="0 0 94 115" fill="none" xmlns="http://www.w3.org/2000/svg">
<path d="M42.2478 55.098C43.5089 51.5516 48.5243 51.5516 49.7854 55.098L49.8928 55.4001C50.687 57.6334 53.2381 58.6901 55.3789 57.6725L55.6685 57.5348C59.0679 55.9189 62.6143 59.4653 60.9984 62.8647L60.8607 63.1543C59.8431 65.2951 60.8998 67.8462 63.1331 68.6404L63.4352 68.7478C66.9816 70.0089 66.9816 75.0243 63.4352 76.2854L63.1331 76.3928C60.8998 77.187 59.8431 79.7381 60.8607 81.8789L60.9984 82.1685C62.6143 85.5679 59.0679 89.1143 55.6685 87.4984L55.3789 87.3607C53.2381 86.3431 50.687 87.3998 49.8928 89.6331L49.7854 89.9352C48.5243 93.4816 43.5089 93.4816 42.2478 89.9352L42.1404 89.6331C41.3462 87.3998 38.7951 86.3431 36.6543 87.3607L36.3647 87.4984C32.9653 89.1143 29.4189 85.5679 31.0348 82.1685L31.1725 81.8789C32.1901 79.7381 31.1334 77.187 28.9001 76.3928L28.598 76.2854C25.0516 75.0243 25.0516 70.0089 28.598 68.7478L28.9001 68.6404C31.1334 67.8462 32.1901 65.2951 31.1725 63.1543L31.0348 62.8647C29.4189 59.4653 32.9653 55.9189 36.3647 57.5348L36.6543 57.6725C38.7951 58.6901 41.3462 57.6334 42.1404 55.4001L42.2478 55.098Z" stroke="#F3B23F" stroke-width="2.5"/>
<circle cx="46.0159" cy="72.5168" r="5.75415" stroke="#F3B23F" stroke-width="2.5"/>
<rect x="24.5" y="96.5" width="1" height="17" fill="#F3B23F"/>
<rect x="66.5" y="96.5" width="1" height="17" fill="#F3B23F"/>
<circle cx="30.875" cy="103" r="3.45" transform="rotate(45 30.875 103)" stroke="#F3B23F" stroke-width="0.6"/>
<line x1="27.3318" y1="106.527" x2="34.4029" y2="99.4561" stroke="#F3B23F" stroke-width="0.6"/>
<path d="M38.7997 105.182L39.7088 105.182L39.7088 106.091L43.3452 106.091L43.3452 107L38.7997 107L38.7997 105.182ZM42.4361 100.636L39.7088 100.636L39.7088 99.7273L42.4361 99.7273L42.4361 100.636ZM42.4361 100.636L43.3452 100.636L43.3452 102.455L42.4361 102.455L42.4361 100.636ZM39.7088 104.273L40.6179 104.273L40.6179 105.182L39.7088 105.182L39.7088 104.273ZM38.7997 100.636L39.7088 100.636L39.7088 101.545L38.7997 101.545L38.7997 100.636ZM41.527 102.455L42.4361 102.455L42.4361 103.364L41.527 103.364L41.527 102.455ZM40.6179 103.364L41.527 103.364L41.527 104.273L40.6179 104.273L40.6179 103.364ZM45.1669 105.182L46.076 105.182L46.076 106.091L49.7124 106.091L49.7124 107L45.1669 107L45.1669 105.182ZM48.8033 100.636L46.076 100.636L46.076 99.7273L48.8033 99.7273L48.8033 100.636ZM48.8033 100.636L49.7124 100.636L49.7124 102.455L48.8033 102.455L48.8033 100.636ZM46.076 104.273L46.9851 104.273L46.9851 105.182L46.076 105.182L46.076 104.273ZM45.1669 100.636L46.076 100.636L46.076 101.545L45.1669 101.545L45.1669 100.636ZM47.8942 102.455L48.8033 102.455L48.8033 103.364L47.8942 103.364L47.8942 102.455ZM46.9851 103.364L47.8942 103.364L47.8942 104.273L46.9851 104.273L46.9851 103.364Z" fill="#F3B23F"/>
<path d="M52.7841 101.545L53.6932 101.545L53.6932 102.455L54.6023 102.455L54.6023 103.364L53.6932 103.364L53.6932 105.182L54.6023 105.182L54.6023 106.091L53.6932 106.091L53.6932 108.818L52.7841 108.818L52.7841 101.545ZM54.6023 101.545L56.4205 101.545L56.4205 102.455L54.6023 102.455L54.6023 101.545ZM56.4205 102.455L57.3295 102.455L57.3295 106.091L56.4205 106.091L56.4205 102.455ZM54.6023 106.091L56.4205 106.091L56.4205 107L54.6023 107L54.6023 106.091ZM59.1513 101.545L60.0604 101.545L60.0604 102.455L59.1513 102.455L59.1513 101.545ZM62.7876 101.545L63.6967 101.545L63.6967 102.455L62.7876 102.455L62.7876 101.545ZM59.1513 105.182L60.0604 105.182L60.0604 107L59.1513 107L59.1513 105.182ZM61.8786 102.455L62.7876 102.455L62.7876 103.364L61.8786 103.364L61.8786 102.455ZM60.0604 102.455L60.9695 102.455L60.9695 103.364L60.0604 103.364L60.0604 102.455ZM60.9695 103.364L61.8786 103.364L61.8786 104.273L60.9695 104.273L60.9695 103.364ZM60.0604 104.273L60.9695 104.273L60.9695 105.182L60.0604 105.182L60.0604 104.273ZM61.8786 104.273L62.7876 104.273L62.7876 105.182L61.8785 105.182L61.8786 104.273ZM62.7876 105.182L63.6967 105.182L63.6967 107L62.7876 107L62.7876 105.182Z" fill="#F3B23F"/>
<rect x="27.4746" y="106.818" width="1" height="8" transform="rotate(45 27.4746 106.818)" fill="#F3B23F"/>
<rect width="41" height="1" transform="translate(25.5 109.5)" fill="#F3B23F"/>
<rect x="69.4746" y="106.818" width="1" height="8" transform="rotate(45 69.4746 106.818)" fill="#F3B23F"/>
<circle cx="88.5004" cy="66.875" r="3.45" transform="rotate(135 88.5004 66.875)" stroke="#F3B23F" stroke-width="0.6"/>
<line x1="84.9729" y1="63.3318" x2="92.0439" y2="70.4029" stroke="#F3B23F" stroke-width="0.6"/>
<path d="M87.2273 76.076L87.2273 76.9851L84.5 76.9851L84.5 76.076L87.2273 76.076ZM88.1364 76.9851L88.1364 77.8942L87.2273 77.8942L87.2273 76.9851L88.1364 76.9851ZM89.0455 77.8942L89.0455 78.8033L88.1364 78.8033L88.1364 77.8942L89.0455 77.8942ZM90.8636 78.8033L90.8636 75.1669L91.7727 75.1669L91.7727 79.7124L89.0455 79.7124L89.0455 78.8033L90.8636 78.8033Z" fill="#F3B23F"/>
<rect x="84.6816" y="67.9746" width="1" height="8" transform="rotate(135 84.6816 67.9746)" fill="#F3B23F"/>
<rect width="13" height="1" transform="translate(82 66) rotate(90)" fill="#F3B23F"/>
<rect x="84.6816" y="81.9746" width="1" height="8" transform="rotate(135 84.6816 81.9746)" fill="#F3B23F"/>
<rect x="85" y="65" width="1" height="15" transform="rotate(90 85 65)" fill="#F3B23F"/>
<rect x="85" y="79" width="1" height="15" transform="rotate(90 85 79)" fill="#F3B23F"/>
<mask id="path-18-outside-1_104_6624" maskUnits="userSpaceOnUse" x="1" y="0.5" width="70" height="13" fill="black">
<rect fill="white" x="1" y="0.5" width="70" height="13"/>
<path d="M2.14205 8.13636H3.59659V11.0455H2.14205V8.13636ZM3.59659 11.0455H6.50568V12.5H3.59659V11.0455ZM6.50568 9.59091H7.96023V8.13636H3.59659V6.68182H7.96023V5.22727H9.41477V12.5H7.96023V11.0455H6.50568V9.59091ZM3.59659 3.77273H7.96023V5.22727H3.59659V3.77273ZM28.3352 6.68182V8.13636H23.9716V6.68182H28.3352ZM42.892 9.59091H44.3466V11.0455H50.1648V12.5H42.892V9.59091ZM48.7102 2.31818H44.3466V0.863636H48.7102V2.31818ZM48.7102 2.31818H50.1648V5.22727H48.7102V2.31818ZM44.3466 8.13636H45.8011V9.59091H44.3466V8.13636ZM42.892 2.31818H44.3466V3.77273H42.892V2.31818ZM47.2557 5.22727H48.7102V6.68182H47.2557V5.22727ZM45.8011 6.68182H47.2557V8.13636H45.8011V6.68182ZM55.9886 9.59091H57.4432V12.5H55.9886V9.59091ZM55.9886 3.77273H57.4432V6.68182H55.9886V3.77273ZM66.1761 3.77273H63.267V2.31818H66.1761V0.863636H67.6307V11.0455H70.5398V12.5H63.267V11.0455H66.1761V3.77273Z"/>
</mask>
<path d="M2.14205 8.13636H3.59659V11.0455H2.14205V8.13636ZM3.59659 11.0455H6.50568V12.5H3.59659V11.0455ZM6.50568 9.59091H7.96023V8.13636H3.59659V6.68182H7.96023V5.22727H9.41477V12.5H7.96023V11.0455H6.50568V9.59091ZM3.59659 3.77273H7.96023V5.22727H3.59659V3.77273ZM28.3352 6.68182V8.13636H23.9716V6.68182H28.3352ZM42.892 9.59091H44.3466V11.0455H50.1648V12.5H42.892V9.59091ZM48.7102 2.31818H44.3466V0.863636H48.7102V2.31818ZM48.7102 2.31818H50.1648V5.22727H48.7102V2.31818ZM44.3466 8.13636H45.8011V9.59091H44.3466V8.13636ZM42.892 2.31818H44.3466V3.77273H42.892V2.31818ZM47.2557 5.22727H48.7102V6.68182H47.2557V5.22727ZM45.8011 6.68182H47.2557V8.13636H45.8011V6.68182ZM55.9886 9.59091H57.4432V12.5H55.9886V9.59091ZM55.9886 3.77273H57.4432V6.68182H55.9886V3.77273ZM66.1761 3.77273H63.267V2.31818H66.1761V0.863636H67.6307V11.0455H70.5398V12.5H63.267V11.0455H66.1761V3.77273Z" fill="#F3B23F"/>
<path d="M2.14205 8.13636V7.93636H1.94205V8.13636H2.14205ZM3.59659 8.13636H3.79659V7.93636H3.59659V8.13636ZM3.59659 11.0455V11.2455H3.79659V11.0455H3.59659ZM2.14205 11.0455H1.94205V11.2455H2.14205V11.0455ZM3.59659 11.0455V10.8455H3.39659V11.0455H3.59659ZM6.50568 11.0455H6.70568V10.8455H6.50568V11.0455ZM6.50568 12.5V12.7H6.70568V12.5H6.50568ZM3.59659 12.5H3.39659V12.7H3.59659V12.5ZM6.50568 9.59091V9.39091H6.30568V9.59091H6.50568ZM7.96023 9.59091V9.79091H8.16023V9.59091H7.96023ZM7.96023 8.13636H8.16023V7.93636H7.96023V8.13636ZM3.59659 8.13636H3.39659V8.33636H3.59659V8.13636ZM3.59659 6.68182V6.48182H3.39659V6.68182H3.59659ZM7.96023 6.68182V6.88182H8.16023V6.68182H7.96023ZM7.96023 5.22727V5.02727H7.76023V5.22727H7.96023ZM9.41477 5.22727H9.61477V5.02727H9.41477V5.22727ZM9.41477 12.5V12.7H9.61477V12.5H9.41477ZM7.96023 12.5H7.76023V12.7H7.96023V12.5ZM7.96023 11.0455H8.16023V10.8455H7.96023V11.0455ZM6.50568 11.0455H6.30568V11.2455H6.50568V11.0455ZM3.59659 3.77273V3.57273H3.39659V3.77273H3.59659ZM7.96023 3.77273H8.16023V3.57273H7.96023V3.77273ZM7.96023 5.22727V5.42727H8.16023V5.22727H7.96023ZM3.59659 5.22727H3.39659V5.42727H3.59659V5.22727ZM2.14205 8.13636V8.33636H3.59659V8.13636V7.93636H2.14205V8.13636ZM3.59659 8.13636H3.39659V11.0455H3.59659H3.79659V8.13636H3.59659ZM3.59659 11.0455V10.8455H2.14205V11.0455V11.2455H3.59659V11.0455ZM2.14205 11.0455H2.34205V8.13636H2.14205H1.94205V11.0455H2.14205ZM3.59659 11.0455V11.2455H6.50568V11.0455V10.8455H3.59659V11.0455ZM6.50568 11.0455H6.30568V12.5H6.50568H6.70568V11.0455H6.50568ZM6.50568 12.5V12.3H3.59659V12.5V12.7H6.50568V12.5ZM3.59659 12.5H3.79659V11.0455H3.59659H3.39659V12.5H3.59659ZM6.50568 9.59091V9.79091H7.96023V9.59091V9.39091H6.50568V9.59091ZM7.96023 9.59091H8.16023V8.13636H7.96023H7.76023V9.59091H7.96023ZM7.96023 8.13636V7.93636H3.59659V8.13636V8.33636H7.96023V8.13636ZM3.59659 8.13636H3.79659V6.68182H3.59659H3.39659V8.13636H3.59659ZM3.59659 6.68182V6.88182H7.96023V6.68182V6.48182H3.59659V6.68182ZM7.96023 6.68182H8.16023V5.22727H7.96023H7.76023V6.68182H7.96023ZM7.96023 5.22727V5.42727H9.41477V5.22727V5.02727H7.96023V5.22727ZM9.41477 5.22727H9.21477V12.5H9.41477H9.61477V5.22727H9.41477ZM9.41477 12.5V12.3H7.96023V12.5V12.7H9.41477V12.5ZM7.96023 12.5H8.16023V11.0455H7.96023H7.76023V12.5H7.96023ZM7.96023 11.0455V10.8455H6.50568V11.0455V11.2455H7.96023V11.0455ZM6.50568 11.0455H6.70568V9.59091H6.50568H6.30568V11.0455H6.50568ZM3.59659 3.77273V3.97273H7.96023V3.77273V3.57273H3.59659V3.77273ZM7.96023 3.77273H7.76023V5.22727H7.96023H8.16023V3.77273H7.96023ZM7.96023 5.22727V5.02727H3.59659V5.22727V5.42727H7.96023V5.22727ZM3.59659 5.22727H3.79659V3.77273H3.59659H3.39659V5.22727H3.59659ZM28.3352 6.68182H28.5352V6.48182H28.3352V6.68182ZM28.3352 8.13636V8.33636H28.5352V8.13636H28.3352ZM23.9716 8.13636H23.7716V8.33636H23.9716V8.13636ZM23.9716 6.68182V6.48182H23.7716V6.68182H23.9716ZM28.3352 6.68182H28.1352V8.13636H28.3352H28.5352V6.68182H28.3352ZM28.3352 8.13636V7.93636H23.9716V8.13636V8.33636H28.3352V8.13636ZM23.9716 8.13636H24.1716V6.68182H23.9716H23.7716V8.13636H23.9716ZM23.9716 6.68182V6.88182H28.3352V6.68182V6.48182H23.9716V6.68182ZM42.892 9.59091V9.39091H42.692V9.59091H42.892ZM44.3466 9.59091H44.5466V9.39091H44.3466V9.59091ZM44.3466 11.0455H44.1466V11.2455H44.3466V11.0455ZM50.1648 11.0455H50.3648V10.8455H50.1648V11.0455ZM50.1648 12.5V12.7H50.3648V12.5H50.1648ZM42.892 12.5H42.692V12.7H42.892V12.5ZM48.7102 2.31818V2.51818H48.9102V2.31818H48.7102ZM44.3466 2.31818H44.1466V2.51818H44.3466V2.31818ZM44.3466 0.863636V0.663636H44.1466V0.863636H44.3466ZM48.7102 0.863636H48.9102V0.663636H48.7102V0.863636ZM48.7102 2.31818V2.11818H48.5102V2.31818H48.7102ZM50.1648 2.31818H50.3648V2.11818H50.1648V2.31818ZM50.1648 5.22727V5.42727H50.3648V5.22727H50.1648ZM48.7102 5.22727H48.5102V5.42727H48.7102V5.22727ZM44.3466 8.13636V7.93636H44.1466V8.13636H44.3466ZM45.8011 8.13636H46.0011V7.93636H45.8011V8.13636ZM45.8011 9.59091V9.79091H46.0011V9.59091H45.8011ZM44.3466 9.59091H44.1466V9.79091H44.3466V9.59091ZM42.892 2.31818V2.11818H42.692V2.31818H42.892ZM44.3466 2.31818H44.5466V2.11818H44.3466V2.31818ZM44.3466 3.77273V3.97273H44.5466V3.77273H44.3466ZM42.892 3.77273H42.692V3.97273H42.892V3.77273ZM47.2557 5.22727V5.02727H47.0557V5.22727H47.2557ZM48.7102 5.22727H48.9102V5.02727H48.7102V5.22727ZM48.7102 6.68182V6.88182H48.9102V6.68182H48.7102ZM47.2557 6.68182H47.0557V6.88182H47.2557V6.68182ZM45.8011 6.68182V6.48182H45.6011V6.68182H45.8011ZM47.2557 6.68182H47.4557V6.48182H47.2557V6.68182ZM47.2557 8.13636V8.33636H47.4557V8.13636H47.2557ZM45.8011 8.13636H45.6011V8.33636H45.8011V8.13636ZM42.892 9.59091V9.79091H44.3466V9.59091V9.39091H42.892V9.59091ZM44.3466 9.59091H44.1466V11.0455H44.3466H44.5466V9.59091H44.3466ZM44.3466 11.0455V11.2455H50.1648V11.0455V10.8455H44.3466V11.0455ZM50.1648 11.0455H49.9648V12.5H50.1648H50.3648V11.0455H50.1648ZM50.1648 12.5V12.3H42.892V12.5V12.7H50.1648V12.5ZM42.892 12.5H43.092V9.59091H42.892H42.692V12.5H42.892ZM48.7102 2.31818V2.11818H44.3466V2.31818V2.51818H48.7102V2.31818ZM44.3466 2.31818H44.5466V0.863636H44.3466H44.1466V2.31818H44.3466ZM44.3466 0.863636V1.06364H48.7102V0.863636V0.663636H44.3466V0.863636ZM48.7102 0.863636H48.5102V2.31818H48.7102H48.9102V0.863636H48.7102ZM48.7102 2.31818V2.51818H50.1648V2.31818V2.11818H48.7102V2.31818ZM50.1648 2.31818H49.9648V5.22727H50.1648H50.3648V2.31818H50.1648ZM50.1648 5.22727V5.02727H48.7102V5.22727V5.42727H50.1648V5.22727ZM48.7102 5.22727H48.9102V2.31818H48.7102H48.5102V5.22727H48.7102ZM44.3466 8.13636V8.33636H45.8011V8.13636V7.93636H44.3466V8.13636ZM45.8011 8.13636H45.6011V9.59091H45.8011H46.0011V8.13636H45.8011ZM45.8011 9.59091V9.39091H44.3466V9.59091V9.79091H45.8011V9.59091ZM44.3466 9.59091H44.5466V8.13636H44.3466H44.1466V9.59091H44.3466ZM42.892 2.31818V2.51818H44.3466V2.31818V2.11818H42.892V2.31818ZM44.3466 2.31818H44.1466V3.77273H44.3466H44.5466V2.31818H44.3466ZM44.3466 3.77273V3.57273H42.892V3.77273V3.97273H44.3466V3.77273ZM42.892 3.77273H43.092V2.31818H42.892H42.692V3.77273H42.892ZM47.2557 5.22727V5.42727H48.7102V5.22727V5.02727H47.2557V5.22727ZM48.7102 5.22727H48.5102V6.68182H48.7102H48.9102V5.22727H48.7102ZM48.7102 6.68182V6.48182H47.2557V6.68182V6.88182H48.7102V6.68182ZM47.2557 6.68182H47.4557V5.22727H47.2557H47.0557V6.68182H47.2557ZM45.8011 6.68182V6.88182H47.2557V6.68182V6.48182H45.8011V6.68182ZM47.2557 6.68182H47.0557V8.13636H47.2557H47.4557V6.68182H47.2557ZM47.2557 8.13636V7.93636H45.8011V8.13636V8.33636H47.2557V8.13636ZM45.8011 8.13636H46.0011V6.68182H45.8011H45.6011V8.13636H45.8011ZM55.9886 9.59091V9.39091H55.7886V9.59091H55.9886ZM57.4432 9.59091H57.6432V9.39091H57.4432V9.59091ZM57.4432 12.5V12.7H57.6432V12.5H57.4432ZM55.9886 12.5H55.7886V12.7H55.9886V12.5ZM55.9886 3.77273V3.57273H55.7886V3.77273H55.9886ZM57.4432 3.77273H57.6432V3.57273H57.4432V3.77273ZM57.4432 6.68182V6.88182H57.6432V6.68182H57.4432ZM55.9886 6.68182H55.7886V6.88182H55.9886V6.68182ZM55.9886 9.59091V9.79091H57.4432V9.59091V9.39091H55.9886V9.59091ZM57.4432 9.59091H57.2432V12.5H57.4432H57.6432V9.59091H57.4432ZM57.4432 12.5V12.3H55.9886V12.5V12.7H57.4432V12.5ZM55.9886 12.5H56.1886V9.59091H55.9886H55.7886V12.5H55.9886ZM55.9886 3.77273V3.97273H57.4432V3.77273V3.57273H55.9886V3.77273ZM57.4432 3.77273H57.2432V6.68182H57.4432H57.6432V3.77273H57.4432ZM57.4432 6.68182V6.48182H55.9886V6.68182V6.88182H57.4432V6.68182ZM55.9886 6.68182H56.1886V3.77273H55.9886H55.7886V6.68182H55.9886ZM66.1761 3.77273H66.3761V3.57273H66.1761V3.77273ZM63.267 3.77273H63.067V3.97273H63.267V3.77273ZM63.267 2.31818V2.11818H63.067V2.31818H63.267ZM66.1761 2.31818V2.51818H66.3761V2.31818H66.1761ZM66.1761 0.863636V0.663636H65.9761V0.863636H66.1761ZM67.6307 0.863636H67.8307V0.663636H67.6307V0.863636ZM67.6307 11.0455H67.4307V11.2455H67.6307V11.0455ZM70.5398 11.0455H70.7398V10.8455H70.5398V11.0455ZM70.5398 12.5V12.7H70.7398V12.5H70.5398ZM63.267 12.5H63.067V12.7H63.267V12.5ZM63.267 11.0455V10.8455H63.067V11.0455H63.267ZM66.1761 11.0455V11.2455H66.3761V11.0455H66.1761ZM66.1761 3.77273V3.57273H63.267V3.77273V3.97273H66.1761V3.77273ZM63.267 3.77273H63.467V2.31818H63.267H63.067V3.77273H63.267ZM63.267 2.31818V2.51818H66.1761V2.31818V2.11818H63.267V2.31818ZM66.1761 2.31818H66.3761V0.863636H66.1761H65.9761V2.31818H66.1761ZM66.1761 0.863636V1.06364H67.6307V0.863636V0.663636H66.1761V0.863636ZM67.6307 0.863636H67.4307V11.0455H67.6307H67.8307V0.863636H67.6307ZM67.6307 11.0455V11.2455H70.5398V11.0455V10.8455H67.6307V11.0455ZM70.5398 11.0455H70.3398V12.5H70.5398H70.7398V11.0455H70.5398ZM70.5398 12.5V12.3H63.267V12.5V12.7H70.5398V12.5ZM63.267 12.5H63.467V11.0455H63.267H63.067V12.5H63.267ZM63.267 11.0455V11.2455H66.1761V11.0455V10.8455H63.267V11.0455ZM66.1761 11.0455H66.3761V3.77273H66.1761H65.9761V11.0455H66.1761Z" fill="#F3B23F" mask="url(#path-18-outside-1_104_6624)"/>
<rect width="14" height="1" transform="translate(34.0156 38.5088) rotate(45)" fill="#F3B23F"/>
<path d="M44.9754 50.176L40.2625 48.5249L43.3243 45.4631L44.9754 50.176Z" fill="#F3B23F"/>
<path d="M3.5419 29.2273H7.17827V30.1364H4.45099V32.8636H7.17827V34.6818H6.26918V33.7727H4.45099V36.5H3.5419V29.2273ZM7.17827 30.1364H8.08736V32.8636H7.17827V30.1364ZM7.17827 34.6818H8.08736V36.5H7.17827V34.6818Z" fill="#F3B23F"/>
<path d="M10.7255 34.6818H11.6346V35.5909H15.271V36.5H10.7255V34.6818ZM14.3619 30.1364H11.6346V29.2273H14.3619V30.1364ZM14.3619 30.1364H15.271V31.9545H14.3619V30.1364ZM11.6346 33.7727H12.5437V34.6818H11.6346V33.7727ZM10.7255 30.1364H11.6346V31.0455H10.7255V30.1364ZM13.4528 31.9545H14.3619V32.8636H13.4528V31.9545ZM12.5437 32.8636H13.4528V33.7727H12.5437V32.8636Z" fill="#F3B23F"/>
<path d="M17.9091 31.0455H18.8182V31.9545H19.7273V32.8636H18.8182V34.6818H19.7273V35.5909H18.8182V38.3182H17.9091V31.0455ZM19.7273 31.0455H21.5455V31.9545H19.7273V31.0455ZM21.5455 31.9545H22.4545V35.5909H21.5455V31.9545ZM19.7273 35.5909H21.5455V36.5H19.7273V35.5909ZM24.2763 31.0455H25.1854V31.9545H24.2763V31.0455ZM27.9126 31.0455H28.8217V31.9545H27.9126V31.0455ZM24.2763 34.6818H25.1854V36.5H24.2763V34.6818ZM27.0036 31.9545H27.9126V32.8636H27.0036V31.9545ZM25.1854 31.9545H26.0945V32.8636H25.1854V31.9545ZM26.0945 32.8636H27.0036V33.7727H26.0945V32.8636ZM25.1854 33.7727H26.0945V34.6818H25.1854V33.7727ZM27.0036 33.7727H27.9126V34.6818H27.0036V33.7727ZM27.9126 34.6818H28.8217V36.5H27.9126V34.6818Z" fill="#F3B23F"/>
<rect width="34" height="1" transform="translate(0 38.5)" fill="#F3B23F"/>
</svg>
