<svg width="1440" height="1024" viewBox="0 0 1440 1024" fill="none" xmlns="http://www.w3.org/2000/svg">
<g opacity="0.75">
<path d="M647.248 166.098C648.509 162.552 653.524 162.552 654.785 166.098L654.893 166.4C655.687 168.633 658.238 169.69 660.379 168.673L660.668 168.535C664.068 166.919 667.614 170.465 665.998 173.865L665.861 174.154C664.843 176.295 665.9 178.846 668.133 179.64L668.435 179.748C671.982 181.009 671.982 186.024 668.435 187.285L668.133 187.393C665.9 188.187 664.843 190.738 665.861 192.879L665.998 193.168C667.614 196.568 664.068 200.114 660.668 198.498L660.379 198.361C658.238 197.343 655.687 198.4 654.893 200.633L654.785 200.935C653.524 204.482 648.509 204.482 647.248 200.935L647.14 200.633C646.346 198.4 643.795 197.343 641.654 198.361L641.365 198.498C637.965 200.114 634.419 196.568 636.035 193.168L636.173 192.879C637.19 190.738 636.133 188.187 633.9 187.393L633.598 187.285C630.052 186.024 630.052 181.009 633.598 179.748L633.9 179.64C636.133 178.846 637.19 176.295 636.173 174.154L636.035 173.865C634.419 170.465 637.965 166.919 641.365 168.535L641.654 168.673C643.795 169.69 646.346 168.633 647.14 166.4L647.248 166.098Z" stroke="#F3B23F" stroke-width="2.5"/>
<circle cx="651.016" cy="183.517" r="5.75415" stroke="#F3B23F" stroke-width="2.5"/>
<rect x="629.5" y="207.5" width="1" height="17" fill="#F3B23F"/>
<rect x="671.5" y="207.5" width="1" height="17" fill="#F3B23F"/>
<circle cx="635.875" cy="214" r="3.45" transform="rotate(45 635.875 214)" stroke="#F3B23F" stroke-width="0.6"/>
<line x1="632.332" y1="217.527" x2="639.403" y2="210.456" stroke="#F3B23F" stroke-width="0.6"/>
<path d="M643.8 216.182L644.709 216.182L644.709 217.091L648.345 217.091L648.345 218L643.8 218L643.8 216.182ZM647.436 211.636L644.709 211.636L644.709 210.727L647.436 210.727L647.436 211.636ZM647.436 211.636L648.345 211.636L648.345 213.455L647.436 213.455L647.436 211.636ZM644.709 215.273L645.618 215.273L645.618 216.182L644.709 216.182L644.709 215.273ZM643.8 211.636L644.709 211.636L644.709 212.545L643.8 212.545L643.8 211.636ZM646.527 213.455L647.436 213.455L647.436 214.364L646.527 214.364L646.527 213.455ZM645.618 214.364L646.527 214.364L646.527 215.273L645.618 215.273L645.618 214.364ZM650.167 216.182L651.076 216.182L651.076 217.091L654.712 217.091L654.712 218L650.167 218L650.167 216.182ZM653.803 211.636L651.076 211.636L651.076 210.727L653.803 210.727L653.803 211.636ZM653.803 211.636L654.712 211.636L654.712 213.455L653.803 213.455L653.803 211.636ZM651.076 215.273L651.985 215.273L651.985 216.182L651.076 216.182L651.076 215.273ZM650.167 211.636L651.076 211.636L651.076 212.545L650.167 212.545L650.167 211.636ZM652.894 213.455L653.803 213.455L653.803 214.364L652.894 214.364L652.894 213.455ZM651.985 214.364L652.894 214.364L652.894 215.273L651.985 215.273L651.985 214.364Z" fill="#F3B23F"/>
<path d="M657.784 212.545L658.693 212.545L658.693 213.455L659.602 213.455L659.602 214.364L658.693 214.364L658.693 216.182L659.602 216.182L659.602 217.091L658.693 217.091L658.693 219.818L657.784 219.818L657.784 212.545ZM659.602 212.545L661.42 212.545L661.42 213.455L659.602 213.455L659.602 212.545ZM661.42 213.455L662.33 213.455L662.33 217.091L661.42 217.091L661.42 213.455ZM659.602 217.091L661.42 217.091L661.42 218L659.602 218L659.602 217.091ZM664.151 212.545L665.06 212.545L665.06 213.455L664.151 213.455L664.151 212.545ZM667.788 212.545L668.697 212.545L668.697 213.455L667.788 213.455L667.788 212.545ZM664.151 216.182L665.06 216.182L665.06 218L664.151 218L664.151 216.182ZM666.879 213.455L667.788 213.455L667.788 214.364L666.879 214.364L666.879 213.455ZM665.06 213.455L665.969 213.455L665.969 214.364L665.06 214.364L665.06 213.455ZM665.969 214.364L666.879 214.364L666.879 215.273L665.969 215.273L665.969 214.364ZM665.06 215.273L665.969 215.273L665.969 216.182L665.06 216.182L665.06 215.273ZM666.879 215.273L667.788 215.273L667.788 216.182L666.879 216.182L666.879 215.273ZM667.788 216.182L668.697 216.182L668.697 218L667.788 218L667.788 216.182Z" fill="#F3B23F"/>
<rect x="632.475" y="217.818" width="1" height="8" transform="rotate(45 632.475 217.818)" fill="#F3B23F"/>
<rect width="41" height="1" transform="translate(630.5 220.5)" fill="#F3B23F"/>
<rect x="674.475" y="217.818" width="1" height="8" transform="rotate(45 674.475 217.818)" fill="#F3B23F"/>
<circle cx="693.5" cy="177.875" r="3.45" transform="rotate(135 693.5 177.875)" stroke="#F3B23F" stroke-width="0.6"/>
<line x1="689.973" y1="174.332" x2="697.044" y2="181.403" stroke="#F3B23F" stroke-width="0.6"/>
<path d="M692.227 187.076L692.227 187.985L689.5 187.985L689.5 187.076L692.227 187.076ZM693.136 187.985L693.136 188.894L692.227 188.894L692.227 187.985L693.136 187.985ZM694.045 188.894L694.045 189.803L693.136 189.803L693.136 188.894L694.045 188.894ZM695.864 189.803L695.864 186.167L696.773 186.167L696.773 190.712L694.045 190.712L694.045 189.803L695.864 189.803Z" fill="#F3B23F"/>
<rect x="689.682" y="178.975" width="1" height="8" transform="rotate(135 689.682 178.975)" fill="#F3B23F"/>
<rect width="13" height="1" transform="translate(687 177) rotate(90)" fill="#F3B23F"/>
<rect x="689.682" y="192.975" width="1" height="8" transform="rotate(135 689.682 192.975)" fill="#F3B23F"/>
<rect x="690" y="176" width="1" height="15" transform="rotate(90 690 176)" fill="#F3B23F"/>
<rect x="690" y="190" width="1" height="15" transform="rotate(90 690 190)" fill="#F3B23F"/>
<mask id="path-18-outside-1_104_6622" maskUnits="userSpaceOnUse" x="606" y="111.5" width="70" height="13" fill="black">
<rect fill="white" x="606" y="111.5" width="70" height="13"/>
<path d="M607.142 119.136H608.597V122.045H607.142V119.136ZM608.597 122.045H611.506V123.5H608.597V122.045ZM611.506 120.591H612.96V119.136H608.597V117.682H612.96V116.227H614.415V123.5H612.96V122.045H611.506V120.591ZM608.597 114.773H612.96V116.227H608.597V114.773ZM633.335 117.682V119.136H628.972V117.682H633.335ZM647.892 120.591H649.347V122.045H655.165V123.5H647.892V120.591ZM653.71 113.318H649.347V111.864H653.71V113.318ZM653.71 113.318H655.165V116.227H653.71V113.318ZM649.347 119.136H650.801V120.591H649.347V119.136ZM647.892 113.318H649.347V114.773H647.892V113.318ZM652.256 116.227H653.71V117.682H652.256V116.227ZM650.801 117.682H652.256V119.136H650.801V117.682ZM660.989 120.591H662.443V123.5H660.989V120.591ZM660.989 114.773H662.443V117.682H660.989V114.773ZM671.176 114.773H668.267V113.318H671.176V111.864H672.631V122.045H675.54V123.5H668.267V122.045H671.176V114.773Z"/>
</mask>
<path d="M607.142 119.136H608.597V122.045H607.142V119.136ZM608.597 122.045H611.506V123.5H608.597V122.045ZM611.506 120.591H612.96V119.136H608.597V117.682H612.96V116.227H614.415V123.5H612.96V122.045H611.506V120.591ZM608.597 114.773H612.96V116.227H608.597V114.773ZM633.335 117.682V119.136H628.972V117.682H633.335ZM647.892 120.591H649.347V122.045H655.165V123.5H647.892V120.591ZM653.71 113.318H649.347V111.864H653.71V113.318ZM653.71 113.318H655.165V116.227H653.71V113.318ZM649.347 119.136H650.801V120.591H649.347V119.136ZM647.892 113.318H649.347V114.773H647.892V113.318ZM652.256 116.227H653.71V117.682H652.256V116.227ZM650.801 117.682H652.256V119.136H650.801V117.682ZM660.989 120.591H662.443V123.5H660.989V120.591ZM660.989 114.773H662.443V117.682H660.989V114.773ZM671.176 114.773H668.267V113.318H671.176V111.864H672.631V122.045H675.54V123.5H668.267V122.045H671.176V114.773Z" fill="#F3B23F"/>
<path d="M607.142 119.136V118.936H606.942V119.136H607.142ZM608.597 119.136H608.797V118.936H608.597V119.136ZM608.597 122.045V122.245H608.797V122.045H608.597ZM607.142 122.045H606.942V122.245H607.142V122.045ZM608.597 122.045V121.845H608.397V122.045H608.597ZM611.506 122.045H611.706V121.845H611.506V122.045ZM611.506 123.5V123.7H611.706V123.5H611.506ZM608.597 123.5H608.397V123.7H608.597V123.5ZM611.506 120.591V120.391H611.306V120.591H611.506ZM612.96 120.591V120.791H613.16V120.591H612.96ZM612.96 119.136H613.16V118.936H612.96V119.136ZM608.597 119.136H608.397V119.336H608.597V119.136ZM608.597 117.682V117.482H608.397V117.682H608.597ZM612.96 117.682V117.882H613.16V117.682H612.96ZM612.96 116.227V116.027H612.76V116.227H612.96ZM614.415 116.227H614.615V116.027H614.415V116.227ZM614.415 123.5V123.7H614.615V123.5H614.415ZM612.96 123.5H612.76V123.7H612.96V123.5ZM612.96 122.045H613.16V121.845H612.96V122.045ZM611.506 122.045H611.306V122.245H611.506V122.045ZM608.597 114.773V114.573H608.397V114.773H608.597ZM612.96 114.773H613.16V114.573H612.96V114.773ZM612.96 116.227V116.427H613.16V116.227H612.96ZM608.597 116.227H608.397V116.427H608.597V116.227ZM607.142 119.136V119.336H608.597V119.136V118.936H607.142V119.136ZM608.597 119.136H608.397V122.045H608.597H608.797V119.136H608.597ZM608.597 122.045V121.845H607.142V122.045V122.245H608.597V122.045ZM607.142 122.045H607.342V119.136H607.142H606.942V122.045H607.142ZM608.597 122.045V122.245H611.506V122.045V121.845H608.597V122.045ZM611.506 122.045H611.306V123.5H611.506H611.706V122.045H611.506ZM611.506 123.5V123.3H608.597V123.5V123.7H611.506V123.5ZM608.597 123.5H608.797V122.045H608.597H608.397V123.5H608.597ZM611.506 120.591V120.791H612.96V120.591V120.391H611.506V120.591ZM612.96 120.591H613.16V119.136H612.96H612.76V120.591H612.96ZM612.96 119.136V118.936H608.597V119.136V119.336H612.96V119.136ZM608.597 119.136H608.797V117.682H608.597H608.397V119.136H608.597ZM608.597 117.682V117.882H612.96V117.682V117.482H608.597V117.682ZM612.96 117.682H613.16V116.227H612.96H612.76V117.682H612.96ZM612.96 116.227V116.427H614.415V116.227V116.027H612.96V116.227ZM614.415 116.227H614.215V123.5H614.415H614.615V116.227H614.415ZM614.415 123.5V123.3H612.96V123.5V123.7H614.415V123.5ZM612.96 123.5H613.16V122.045H612.96H612.76V123.5H612.96ZM612.96 122.045V121.845H611.506V122.045V122.245H612.96V122.045ZM611.506 122.045H611.706V120.591H611.506H611.306V122.045H611.506ZM608.597 114.773V114.973H612.96V114.773V114.573H608.597V114.773ZM612.96 114.773H612.76V116.227H612.96H613.16V114.773H612.96ZM612.96 116.227V116.027H608.597V116.227V116.427H612.96V116.227ZM608.597 116.227H608.797V114.773H608.597H608.397V116.227H608.597ZM633.335 117.682H633.535V117.482H633.335V117.682ZM633.335 119.136V119.336H633.535V119.136H633.335ZM628.972 119.136H628.772V119.336H628.972V119.136ZM628.972 117.682V117.482H628.772V117.682H628.972ZM633.335 117.682H633.135V119.136H633.335H633.535V117.682H633.335ZM633.335 119.136V118.936H628.972V119.136V119.336H633.335V119.136ZM628.972 119.136H629.172V117.682H628.972H628.772V119.136H628.972ZM628.972 117.682V117.882H633.335V117.682V117.482H628.972V117.682ZM647.892 120.591V120.391H647.692V120.591H647.892ZM649.347 120.591H649.547V120.391H649.347V120.591ZM649.347 122.045H649.147V122.245H649.347V122.045ZM655.165 122.045H655.365V121.845H655.165V122.045ZM655.165 123.5V123.7H655.365V123.5H655.165ZM647.892 123.5H647.692V123.7H647.892V123.5ZM653.71 113.318V113.518H653.91V113.318H653.71ZM649.347 113.318H649.147V113.518H649.347V113.318ZM649.347 111.864V111.664H649.147V111.864H649.347ZM653.71 111.864H653.91V111.664H653.71V111.864ZM653.71 113.318V113.118H653.51V113.318H653.71ZM655.165 113.318H655.365V113.118H655.165V113.318ZM655.165 116.227V116.427H655.365V116.227H655.165ZM653.71 116.227H653.51V116.427H653.71V116.227ZM649.347 119.136V118.936H649.147V119.136H649.347ZM650.801 119.136H651.001V118.936H650.801V119.136ZM650.801 120.591V120.791H651.001V120.591H650.801ZM649.347 120.591H649.147V120.791H649.347V120.591ZM647.892 113.318V113.118H647.692V113.318H647.892ZM649.347 113.318H649.547V113.118H649.347V113.318ZM649.347 114.773V114.973H649.547V114.773H649.347ZM647.892 114.773H647.692V114.973H647.892V114.773ZM652.256 116.227V116.027H652.056V116.227H652.256ZM653.71 116.227H653.91V116.027H653.71V116.227ZM653.71 117.682V117.882H653.91V117.682H653.71ZM652.256 117.682H652.056V117.882H652.256V117.682ZM650.801 117.682V117.482H650.601V117.682H650.801ZM652.256 117.682H652.456V117.482H652.256V117.682ZM652.256 119.136V119.336H652.456V119.136H652.256ZM650.801 119.136H650.601V119.336H650.801V119.136ZM647.892 120.591V120.791H649.347V120.591V120.391H647.892V120.591ZM649.347 120.591H649.147V122.045H649.347H649.547V120.591H649.347ZM649.347 122.045V122.245H655.165V122.045V121.845H649.347V122.045ZM655.165 122.045H654.965V123.5H655.165H655.365V122.045H655.165ZM655.165 123.5V123.3H647.892V123.5V123.7H655.165V123.5ZM647.892 123.5H648.092V120.591H647.892H647.692V123.5H647.892ZM653.71 113.318V113.118H649.347V113.318V113.518H653.71V113.318ZM649.347 113.318H649.547V111.864H649.347H649.147V113.318H649.347ZM649.347 111.864V112.064H653.71V111.864V111.664H649.347V111.864ZM653.71 111.864H653.51V113.318H653.71H653.91V111.864H653.71ZM653.71 113.318V113.518H655.165V113.318V113.118H653.71V113.318ZM655.165 113.318H654.965V116.227H655.165H655.365V113.318H655.165ZM655.165 116.227V116.027H653.71V116.227V116.427H655.165V116.227ZM653.71 116.227H653.91V113.318H653.71H653.51V116.227H653.71ZM649.347 119.136V119.336H650.801V119.136V118.936H649.347V119.136ZM650.801 119.136H650.601V120.591H650.801H651.001V119.136H650.801ZM650.801 120.591V120.391H649.347V120.591V120.791H650.801V120.591ZM649.347 120.591H649.547V119.136H649.347H649.147V120.591H649.347ZM647.892 113.318V113.518H649.347V113.318V113.118H647.892V113.318ZM649.347 113.318H649.147V114.773H649.347H649.547V113.318H649.347ZM649.347 114.773V114.573H647.892V114.773V114.973H649.347V114.773ZM647.892 114.773H648.092V113.318H647.892H647.692V114.773H647.892ZM652.256 116.227V116.427H653.71V116.227V116.027H652.256V116.227ZM653.71 116.227H653.51V117.682H653.71H653.91V116.227H653.71ZM653.71 117.682V117.482H652.256V117.682V117.882H653.71V117.682ZM652.256 117.682H652.456V116.227H652.256H652.056V117.682H652.256ZM650.801 117.682V117.882H652.256V117.682V117.482H650.801V117.682ZM652.256 117.682H652.056V119.136H652.256H652.456V117.682H652.256ZM652.256 119.136V118.936H650.801V119.136V119.336H652.256V119.136ZM650.801 119.136H651.001V117.682H650.801H650.601V119.136H650.801ZM660.989 120.591V120.391H660.789V120.591H660.989ZM662.443 120.591H662.643V120.391H662.443V120.591ZM662.443 123.5V123.7H662.643V123.5H662.443ZM660.989 123.5H660.789V123.7H660.989V123.5ZM660.989 114.773V114.573H660.789V114.773H660.989ZM662.443 114.773H662.643V114.573H662.443V114.773ZM662.443 117.682V117.882H662.643V117.682H662.443ZM660.989 117.682H660.789V117.882H660.989V117.682ZM660.989 120.591V120.791H662.443V120.591V120.391H660.989V120.591ZM662.443 120.591H662.243V123.5H662.443H662.643V120.591H662.443ZM662.443 123.5V123.3H660.989V123.5V123.7H662.443V123.5ZM660.989 123.5H661.189V120.591H660.989H660.789V123.5H660.989ZM660.989 114.773V114.973H662.443V114.773V114.573H660.989V114.773ZM662.443 114.773H662.243V117.682H662.443H662.643V114.773H662.443ZM662.443 117.682V117.482H660.989V117.682V117.882H662.443V117.682ZM660.989 117.682H661.189V114.773H660.989H660.789V117.682H660.989ZM671.176 114.773H671.376V114.573H671.176V114.773ZM668.267 114.773H668.067V114.973H668.267V114.773ZM668.267 113.318V113.118H668.067V113.318H668.267ZM671.176 113.318V113.518H671.376V113.318H671.176ZM671.176 111.864V111.664H670.976V111.864H671.176ZM672.631 111.864H672.831V111.664H672.631V111.864ZM672.631 122.045H672.431V122.245H672.631V122.045ZM675.54 122.045H675.74V121.845H675.54V122.045ZM675.54 123.5V123.7H675.74V123.5H675.54ZM668.267 123.5H668.067V123.7H668.267V123.5ZM668.267 122.045V121.845H668.067V122.045H668.267ZM671.176 122.045V122.245H671.376V122.045H671.176ZM671.176 114.773V114.573H668.267V114.773V114.973H671.176V114.773ZM668.267 114.773H668.467V113.318H668.267H668.067V114.773H668.267ZM668.267 113.318V113.518H671.176V113.318V113.118H668.267V113.318ZM671.176 113.318H671.376V111.864H671.176H670.976V113.318H671.176ZM671.176 111.864V112.064H672.631V111.864V111.664H671.176V111.864ZM672.631 111.864H672.431V122.045H672.631H672.831V111.864H672.631ZM672.631 122.045V122.245H675.54V122.045V121.845H672.631V122.045ZM675.54 122.045H675.34V123.5H675.54H675.74V122.045H675.54ZM675.54 123.5V123.3H668.267V123.5V123.7H675.54V123.5ZM668.267 123.5H668.467V122.045H668.267H668.067V123.5H668.267ZM668.267 122.045V122.245H671.176V122.045V121.845H668.267V122.045ZM671.176 122.045H671.376V114.773H671.176H670.976V122.045H671.176Z" fill="#F3B23F" mask="url(#path-18-outside-1_104_6622)"/>
<rect width="14" height="1" transform="translate(639.016 149.509) rotate(45)" fill="#F3B23F"/>
<path d="M649.975 161.176L645.262 159.525L648.324 156.463L649.975 161.176Z" fill="#F3B23F"/>
<path d="M608.542 140.227H612.178V141.136H609.451V143.864H612.178V145.682H611.269V144.773H609.451V147.5H608.542V140.227ZM612.178 141.136H613.087V143.864H612.178V141.136ZM612.178 145.682H613.087V147.5H612.178V145.682Z" fill="#F3B23F"/>
<path d="M615.725 145.682H616.635V146.591H620.271V147.5H615.725V145.682ZM619.362 141.136H616.635V140.227H619.362V141.136ZM619.362 141.136H620.271V142.955H619.362V141.136ZM616.635 144.773H617.544V145.682H616.635V144.773ZM615.725 141.136H616.635V142.045H615.725V141.136ZM618.453 142.955H619.362V143.864H618.453V142.955ZM617.544 143.864H618.453V144.773H617.544V143.864Z" fill="#F3B23F"/>
<path d="M622.909 142.045H623.818V142.955H624.727V143.864H623.818V145.682H624.727V146.591H623.818V149.318H622.909V142.045ZM624.727 142.045H626.545V142.955H624.727V142.045ZM626.545 142.955H627.455V146.591H626.545V142.955ZM624.727 146.591H626.545V147.5H624.727V146.591ZM629.276 142.045H630.185V142.955H629.276V142.045ZM632.913 142.045H633.822V142.955H632.913V142.045ZM629.276 145.682H630.185V147.5H629.276V145.682ZM632.004 142.955H632.913V143.864H632.004V142.955ZM630.185 142.955H631.094V143.864H630.185V142.955ZM631.094 143.864H632.004V144.773H631.094V143.864ZM630.185 144.773H631.094V145.682H630.185V144.773ZM632.004 144.773H632.913V145.682H632.004V144.773ZM632.913 145.682H633.822V147.5H632.913V145.682Z" fill="#F3B23F"/>
<rect width="34" height="1" transform="translate(605 149.5)" fill="#F3B23F"/>
</g>
<g opacity="0.75">
<rect x="22.5" y="911.5" width="1" height="17" fill="#F3B23F"/>
<rect x="102.5" y="911.5" width="1" height="17" fill="#F3B23F"/>
<path d="M53.277 914.727H55.0952V922H54.1861V920.182H50.5497V917.455H51.4588V919.273H54.1861V915.636H53.277V914.727ZM52.3679 915.636H53.277V916.545H52.3679V915.636ZM51.4588 916.545H52.3679V917.455H51.4588V916.545ZM56.9169 915.636H57.826V918.364H58.7351V919.273H57.826V921.091H56.9169V915.636ZM57.826 921.091H60.5533V922H57.826V921.091ZM57.826 914.727H60.5533V915.636H57.826V914.727ZM60.5533 915.636H61.4624V921.091H60.5533V917.455H59.6442V916.545H60.5533V915.636ZM58.7351 917.455H59.6442V918.364H58.7351V917.455Z" fill="#F3B23F"/>
<path d="M64.5341 916.545H65.4432V917.455H66.3523V918.364H65.4432V920.182H66.3523V921.091H65.4432V923.818H64.5341V916.545ZM66.3523 916.545H68.1705V917.455H66.3523V916.545ZM68.1705 917.455H69.0795V921.091H68.1705V917.455ZM66.3523 921.091H68.1705V922H66.3523V921.091ZM70.9013 916.545H71.8104V917.455H70.9013V916.545ZM74.5376 916.545H75.4467V917.455H74.5376V916.545ZM70.9013 920.182H71.8104V922H70.9013V920.182ZM73.6286 917.455H74.5376V918.364H73.6286V917.455ZM71.8104 917.455H72.7195V918.364H71.8104V917.455ZM72.7195 918.364H73.6286V919.273H72.7195V918.364ZM71.8104 919.273H72.7195V920.182H71.8104V919.273ZM73.6286 919.273H74.5376V920.182H73.6286V919.273ZM74.5376 920.182H75.4467V922H74.5376V920.182Z" fill="#F3B23F"/>
<rect x="25.4746" y="921.818" width="1" height="8" transform="rotate(45 25.4746 921.818)" fill="#F3B23F"/>
<rect width="79" height="1" transform="translate(23.5 924.5)" fill="#F3B23F"/>
<rect x="105.475" y="921.818" width="1" height="8" transform="rotate(45 105.475 921.818)" fill="#F3B23F"/>
<path d="M140.313 850.277L140.313 852.095L133.04 852.095L133.04 851.186L134.858 851.186L134.858 847.55L137.585 847.55L137.585 848.459L135.767 848.459L135.767 851.186L139.404 851.186L139.404 850.277L140.313 850.277ZM139.404 849.368L139.404 850.277L138.495 850.277L138.495 849.368L139.404 849.368ZM138.495 848.459L138.495 849.368L137.585 849.368L137.585 848.459L138.495 848.459ZM139.404 853.917L139.404 854.826L136.676 854.826L136.676 855.735L135.767 855.735L135.767 854.826L133.949 854.826L133.949 853.917L139.404 853.917ZM133.949 854.826L133.949 857.553L133.04 857.553L133.04 854.826L133.949 854.826ZM140.313 854.826L140.313 857.553L139.404 857.553L139.404 854.826L140.313 854.826ZM139.404 857.553L139.404 858.462L133.949 858.462L133.949 857.553L137.585 857.553L137.585 856.644L138.495 856.644L138.495 857.553L139.404 857.553ZM137.585 855.735L137.585 856.644L136.676 856.644L136.676 855.735L137.585 855.735Z" fill="#F3B23F"/>
<path d="M138.495 861.534L138.495 862.443L137.585 862.443L137.585 863.352L136.676 863.352L136.676 862.443L134.858 862.443L134.858 863.352L133.949 863.352L133.949 862.443L131.222 862.443L131.222 861.534L138.495 861.534ZM138.495 863.352L138.495 865.17L137.585 865.17L137.585 863.352L138.495 863.352ZM137.585 865.17L137.585 866.08L133.949 866.08L133.949 865.17L137.585 865.17ZM133.949 863.352L133.949 865.17L133.04 865.17L133.04 863.352L133.949 863.352ZM138.495 867.901L138.495 868.81L137.585 868.81L137.585 867.901L138.495 867.901ZM138.495 871.538L138.495 872.447L137.585 872.447L137.585 871.538L138.495 871.538ZM134.858 867.901L134.858 868.81L133.04 868.81L133.04 867.901L134.858 867.901ZM137.585 870.629L137.585 871.538L136.676 871.538L136.676 870.629L137.585 870.629ZM137.585 868.81L137.585 869.719L136.676 869.719L136.676 868.81L137.585 868.81ZM136.676 869.719L136.676 870.629L135.767 870.629L135.767 869.719L136.676 869.719ZM135.767 868.81L135.767 869.719L134.858 869.719L134.858 868.81L135.767 868.81ZM135.767 870.629L135.767 871.538L134.858 871.538L134.858 870.629L135.767 870.629ZM134.858 871.538L134.858 872.447L133.04 872.447L133.04 871.538L134.858 871.538Z" fill="#F3B23F"/>
<rect x="133.222" y="822.475" width="1" height="8" transform="rotate(135 133.222 822.475)" fill="#F3B23F"/>
<rect width="79" height="1" transform="translate(130.54 820.5) rotate(90)" fill="#F3B23F"/>
<rect x="133.222" y="902.475" width="1" height="8" transform="rotate(135 133.222 902.475)" fill="#F3B23F"/>
<rect x="133.54" y="819.5" width="1" height="15" transform="rotate(90 133.54 819.5)" fill="#F3B23F"/>
<rect x="133.54" y="899.5" width="1" height="15" transform="rotate(90 133.54 899.5)" fill="#F3B23F"/>
<rect x="23.79" y="816.75" width="77.5" height="77.5" rx="6.75" stroke="#F3B23F" stroke-width="2.5"/>
<mask id="path-37-outside-2_104_6622" maskUnits="userSpaceOnUse" x="-19.5" y="766.75" width="70" height="13" fill="black">
<rect fill="white" x="-19.5" y="766.75" width="70" height="13"/>
<path d="M-16.9034 770.023H-12.5398V771.477H-16.9034V770.023ZM-18.358 771.477H-16.9034V777.295H-18.358V771.477ZM-16.9034 777.295H-12.5398V778.75H-16.9034V777.295ZM-12.5398 771.477H-11.0852V772.932H-12.5398V771.477ZM-12.5398 775.841H-11.0852V777.295H-12.5398V775.841ZM7.83523 772.932V774.386H3.47159V772.932H7.83523ZM22.392 775.841H23.8466V777.295H29.6648V778.75H22.392V775.841ZM28.2102 768.568H23.8466V767.114H28.2102V768.568ZM28.2102 768.568H29.6648V771.477H28.2102V768.568ZM23.8466 774.386H25.3011V775.841H23.8466V774.386ZM22.392 768.568H23.8466V770.023H22.392V768.568ZM26.7557 771.477H28.2102V772.932H26.7557V771.477ZM25.3011 772.932H26.7557V774.386H25.3011V772.932ZM35.4886 775.841H36.9432V778.75H35.4886V775.841ZM35.4886 770.023H36.9432V772.932H35.4886V770.023ZM45.6761 770.023H42.767V768.568H45.6761V767.114H47.1307V777.295H50.0398V778.75H42.767V777.295H45.6761V770.023Z"/>
</mask>
<path d="M-16.9034 770.023H-12.5398V771.477H-16.9034V770.023ZM-18.358 771.477H-16.9034V777.295H-18.358V771.477ZM-16.9034 777.295H-12.5398V778.75H-16.9034V777.295ZM-12.5398 771.477H-11.0852V772.932H-12.5398V771.477ZM-12.5398 775.841H-11.0852V777.295H-12.5398V775.841ZM7.83523 772.932V774.386H3.47159V772.932H7.83523ZM22.392 775.841H23.8466V777.295H29.6648V778.75H22.392V775.841ZM28.2102 768.568H23.8466V767.114H28.2102V768.568ZM28.2102 768.568H29.6648V771.477H28.2102V768.568ZM23.8466 774.386H25.3011V775.841H23.8466V774.386ZM22.392 768.568H23.8466V770.023H22.392V768.568ZM26.7557 771.477H28.2102V772.932H26.7557V771.477ZM25.3011 772.932H26.7557V774.386H25.3011V772.932ZM35.4886 775.841H36.9432V778.75H35.4886V775.841ZM35.4886 770.023H36.9432V772.932H35.4886V770.023ZM45.6761 770.023H42.767V768.568H45.6761V767.114H47.1307V777.295H50.0398V778.75H42.767V777.295H45.6761V770.023Z" fill="#F3B23F"/>
<path d="M-16.9034 770.023V769.823H-17.1034V770.023H-16.9034ZM-12.5398 770.023H-12.3398V769.823H-12.5398V770.023ZM-12.5398 771.477V771.677H-12.3398V771.477H-12.5398ZM-16.9034 771.477H-17.1034V771.677H-16.9034V771.477ZM-18.358 771.477V771.277H-18.558V771.477H-18.358ZM-16.9034 771.477H-16.7034V771.277H-16.9034V771.477ZM-16.9034 777.295V777.495H-16.7034V777.295H-16.9034ZM-18.358 777.295H-18.558V777.495H-18.358V777.295ZM-16.9034 777.295V777.095H-17.1034V777.295H-16.9034ZM-12.5398 777.295H-12.3398V777.095H-12.5398V777.295ZM-12.5398 778.75V778.95H-12.3398V778.75H-12.5398ZM-16.9034 778.75H-17.1034V778.95H-16.9034V778.75ZM-12.5398 771.477V771.277H-12.7398V771.477H-12.5398ZM-11.0852 771.477H-10.8852V771.277H-11.0852V771.477ZM-11.0852 772.932V773.132H-10.8852V772.932H-11.0852ZM-12.5398 772.932H-12.7398V773.132H-12.5398V772.932ZM-12.5398 775.841V775.641H-12.7398V775.841H-12.5398ZM-11.0852 775.841H-10.8852V775.641H-11.0852V775.841ZM-11.0852 777.295V777.495H-10.8852V777.295H-11.0852ZM-12.5398 777.295H-12.7398V777.495H-12.5398V777.295ZM-16.9034 770.023V770.223H-12.5398V770.023V769.823H-16.9034V770.023ZM-12.5398 770.023H-12.7398V771.477H-12.5398H-12.3398V770.023H-12.5398ZM-12.5398 771.477V771.277H-16.9034V771.477V771.677H-12.5398V771.477ZM-16.9034 771.477H-16.7034V770.023H-16.9034H-17.1034V771.477H-16.9034ZM-18.358 771.477V771.677H-16.9034V771.477V771.277H-18.358V771.477ZM-16.9034 771.477H-17.1034V777.295H-16.9034H-16.7034V771.477H-16.9034ZM-16.9034 777.295V777.095H-18.358V777.295V777.495H-16.9034V777.295ZM-18.358 777.295H-18.158V771.477H-18.358H-18.558V777.295H-18.358ZM-16.9034 777.295V777.495H-12.5398V777.295V777.095H-16.9034V777.295ZM-12.5398 777.295H-12.7398V778.75H-12.5398H-12.3398V777.295H-12.5398ZM-12.5398 778.75V778.55H-16.9034V778.75V778.95H-12.5398V778.75ZM-16.9034 778.75H-16.7034V777.295H-16.9034H-17.1034V778.75H-16.9034ZM-12.5398 771.477V771.677H-11.0852V771.477V771.277H-12.5398V771.477ZM-11.0852 771.477H-11.2852V772.932H-11.0852H-10.8852V771.477H-11.0852ZM-11.0852 772.932V772.732H-12.5398V772.932V773.132H-11.0852V772.932ZM-12.5398 772.932H-12.3398V771.477H-12.5398H-12.7398V772.932H-12.5398ZM-12.5398 775.841V776.041H-11.0852V775.841V775.641H-12.5398V775.841ZM-11.0852 775.841H-11.2852V777.295H-11.0852H-10.8852V775.841H-11.0852ZM-11.0852 777.295V777.095H-12.5398V777.295V777.495H-11.0852V777.295ZM-12.5398 777.295H-12.3398V775.841H-12.5398H-12.7398V777.295H-12.5398ZM7.83523 772.932H8.03523V772.732H7.83523V772.932ZM7.83523 774.386V774.586H8.03523V774.386H7.83523ZM3.47159 774.386H3.27159V774.586H3.47159V774.386ZM3.47159 772.932V772.732H3.27159V772.932H3.47159ZM7.83523 772.932H7.63523V774.386H7.83523H8.03523V772.932H7.83523ZM7.83523 774.386V774.186H3.47159V774.386V774.586H7.83523V774.386ZM3.47159 774.386H3.67159V772.932H3.47159H3.27159V774.386H3.47159ZM3.47159 772.932V773.132H7.83523V772.932V772.732H3.47159V772.932ZM22.392 775.841V775.641H22.192V775.841H22.392ZM23.8466 775.841H24.0466V775.641H23.8466V775.841ZM23.8466 777.295H23.6466V777.495H23.8466V777.295ZM29.6648 777.295H29.8648V777.095H29.6648V777.295ZM29.6648 778.75V778.95H29.8648V778.75H29.6648ZM22.392 778.75H22.192V778.95H22.392V778.75ZM28.2102 768.568V768.768H28.4102V768.568H28.2102ZM23.8466 768.568H23.6466V768.768H23.8466V768.568ZM23.8466 767.114V766.914H23.6466V767.114H23.8466ZM28.2102 767.114H28.4102V766.914H28.2102V767.114ZM28.2102 768.568V768.368H28.0102V768.568H28.2102ZM29.6648 768.568H29.8648V768.368H29.6648V768.568ZM29.6648 771.477V771.677H29.8648V771.477H29.6648ZM28.2102 771.477H28.0102V771.677H28.2102V771.477ZM23.8466 774.386V774.186H23.6466V774.386H23.8466ZM25.3011 774.386H25.5011V774.186H25.3011V774.386ZM25.3011 775.841V776.041H25.5011V775.841H25.3011ZM23.8466 775.841H23.6466V776.041H23.8466V775.841ZM22.392 768.568V768.368H22.192V768.568H22.392ZM23.8466 768.568H24.0466V768.368H23.8466V768.568ZM23.8466 770.023V770.223H24.0466V770.023H23.8466ZM22.392 770.023H22.192V770.223H22.392V770.023ZM26.7557 771.477V771.277H26.5557V771.477H26.7557ZM28.2102 771.477H28.4102V771.277H28.2102V771.477ZM28.2102 772.932V773.132H28.4102V772.932H28.2102ZM26.7557 772.932H26.5557V773.132H26.7557V772.932ZM25.3011 772.932V772.732H25.1011V772.932H25.3011ZM26.7557 772.932H26.9557V772.732H26.7557V772.932ZM26.7557 774.386V774.586H26.9557V774.386H26.7557ZM25.3011 774.386H25.1011V774.586H25.3011V774.386ZM22.392 775.841V776.041H23.8466V775.841V775.641H22.392V775.841ZM23.8466 775.841H23.6466V777.295H23.8466H24.0466V775.841H23.8466ZM23.8466 777.295V777.495H29.6648V777.295V777.095H23.8466V777.295ZM29.6648 777.295H29.4648V778.75H29.6648H29.8648V777.295H29.6648ZM29.6648 778.75V778.55H22.392V778.75V778.95H29.6648V778.75ZM22.392 778.75H22.592V775.841H22.392H22.192V778.75H22.392ZM28.2102 768.568V768.368H23.8466V768.568V768.768H28.2102V768.568ZM23.8466 768.568H24.0466V767.114H23.8466H23.6466V768.568H23.8466ZM23.8466 767.114V767.314H28.2102V767.114V766.914H23.8466V767.114ZM28.2102 767.114H28.0102V768.568H28.2102H28.4102V767.114H28.2102ZM28.2102 768.568V768.768H29.6648V768.568V768.368H28.2102V768.568ZM29.6648 768.568H29.4648V771.477H29.6648H29.8648V768.568H29.6648ZM29.6648 771.477V771.277H28.2102V771.477V771.677H29.6648V771.477ZM28.2102 771.477H28.4102V768.568H28.2102H28.0102V771.477H28.2102ZM23.8466 774.386V774.586H25.3011V774.386V774.186H23.8466V774.386ZM25.3011 774.386H25.1011V775.841H25.3011H25.5011V774.386H25.3011ZM25.3011 775.841V775.641H23.8466V775.841V776.041H25.3011V775.841ZM23.8466 775.841H24.0466V774.386H23.8466H23.6466V775.841H23.8466ZM22.392 768.568V768.768H23.8466V768.568V768.368H22.392V768.568ZM23.8466 768.568H23.6466V770.023H23.8466H24.0466V768.568H23.8466ZM23.8466 770.023V769.823H22.392V770.023V770.223H23.8466V770.023ZM22.392 770.023H22.592V768.568H22.392H22.192V770.023H22.392ZM26.7557 771.477V771.677H28.2102V771.477V771.277H26.7557V771.477ZM28.2102 771.477H28.0102V772.932H28.2102H28.4102V771.477H28.2102ZM28.2102 772.932V772.732H26.7557V772.932V773.132H28.2102V772.932ZM26.7557 772.932H26.9557V771.477H26.7557H26.5557V772.932H26.7557ZM25.3011 772.932V773.132H26.7557V772.932V772.732H25.3011V772.932ZM26.7557 772.932H26.5557V774.386H26.7557H26.9557V772.932H26.7557ZM26.7557 774.386V774.186H25.3011V774.386V774.586H26.7557V774.386ZM25.3011 774.386H25.5011V772.932H25.3011H25.1011V774.386H25.3011ZM35.4886 775.841V775.641H35.2886V775.841H35.4886ZM36.9432 775.841H37.1432V775.641H36.9432V775.841ZM36.9432 778.75V778.95H37.1432V778.75H36.9432ZM35.4886 778.75H35.2886V778.95H35.4886V778.75ZM35.4886 770.023V769.823H35.2886V770.023H35.4886ZM36.9432 770.023H37.1432V769.823H36.9432V770.023ZM36.9432 772.932V773.132H37.1432V772.932H36.9432ZM35.4886 772.932H35.2886V773.132H35.4886V772.932ZM35.4886 775.841V776.041H36.9432V775.841V775.641H35.4886V775.841ZM36.9432 775.841H36.7432V778.75H36.9432H37.1432V775.841H36.9432ZM36.9432 778.75V778.55H35.4886V778.75V778.95H36.9432V778.75ZM35.4886 778.75H35.6886V775.841H35.4886H35.2886V778.75H35.4886ZM35.4886 770.023V770.223H36.9432V770.023V769.823H35.4886V770.023ZM36.9432 770.023H36.7432V772.932H36.9432H37.1432V770.023H36.9432ZM36.9432 772.932V772.732H35.4886V772.932V773.132H36.9432V772.932ZM35.4886 772.932H35.6886V770.023H35.4886H35.2886V772.932H35.4886ZM45.6761 770.023H45.8761V769.823H45.6761V770.023ZM42.767 770.023H42.567V770.223H42.767V770.023ZM42.767 768.568V768.368H42.567V768.568H42.767ZM45.6761 768.568V768.768H45.8761V768.568H45.6761ZM45.6761 767.114V766.914H45.4761V767.114H45.6761ZM47.1307 767.114H47.3307V766.914H47.1307V767.114ZM47.1307 777.295H46.9307V777.495H47.1307V777.295ZM50.0398 777.295H50.2398V777.095H50.0398V777.295ZM50.0398 778.75V778.95H50.2398V778.75H50.0398ZM42.767 778.75H42.567V778.95H42.767V778.75ZM42.767 777.295V777.095H42.567V777.295H42.767ZM45.6761 777.295V777.495H45.8761V777.295H45.6761ZM45.6761 770.023V769.823H42.767V770.023V770.223H45.6761V770.023ZM42.767 770.023H42.967V768.568H42.767H42.567V770.023H42.767ZM42.767 768.568V768.768H45.6761V768.568V768.368H42.767V768.568ZM45.6761 768.568H45.8761V767.114H45.6761H45.4761V768.568H45.6761ZM45.6761 767.114V767.314H47.1307V767.114V766.914H45.6761V767.114ZM47.1307 767.114H46.9307V777.295H47.1307H47.3307V767.114H47.1307ZM47.1307 777.295V777.495H50.0398V777.295V777.095H47.1307V777.295ZM50.0398 777.295H49.8398V778.75H50.0398H50.2398V777.295H50.0398ZM50.0398 778.75V778.55H42.767V778.75V778.95H50.0398V778.75ZM42.767 778.75H42.967V777.295H42.767H42.567V778.75H42.767ZM42.767 777.295V777.495H45.6761V777.295V777.095H42.767V777.295ZM45.6761 777.295H45.8761V770.023H45.6761H45.4761V777.295H45.6761Z" fill="#F3B23F" mask="url(#path-37-outside-2_104_6622)"/>
<rect width="14" height="1" transform="translate(13.5156 805.259) rotate(45)" fill="#F3B23F"/>
<path d="M24.4754 816.926L19.7625 815.275L22.8243 812.213L24.4754 816.926Z" fill="#F3B23F"/>
<path d="M-2.59091 797.795H-1.68182V798.705H-0.772727V799.614H-1.68182V801.432H-0.772727V802.341H-1.68182V805.068H-2.59091V797.795ZM-0.772727 797.795H1.04545V798.705H-0.772727V797.795ZM1.04545 798.705H1.95455V802.341H1.04545V798.705ZM-0.772727 802.341H1.04545V803.25H-0.772727V802.341ZM3.77628 797.795H4.68537V798.705H3.77628V797.795ZM7.41264 797.795H8.32173V798.705H7.41264V797.795ZM3.77628 801.432H4.68537V803.25H3.77628V801.432ZM6.50355 798.705H7.41264V799.614H6.50355V798.705ZM4.68537 798.705H5.59446V799.614H4.68537V798.705ZM5.59446 799.614H6.50355V800.523H5.59446V799.614ZM4.68537 800.523H5.59446V801.432H4.68537V800.523ZM6.50355 800.523H7.41264V801.432H6.50355V800.523ZM7.41264 801.432H8.32173V803.25H7.41264V801.432Z" fill="#F3B23F"/>
<rect width="34" height="1" transform="translate(-20.5 805.25)" fill="#F3B23F"/>
</g>
<g opacity="0.75">
<rect x="1115" y="107.327" width="386.201" height="842" stroke="#F3B23F" stroke-width="2"/>
<rect x="1130.74" y="226.87" width="354.712" height="462.712" rx="5.15027" stroke="#F3B23F" stroke-width="1.28757"/>
<g clip-path="url(#clip0_104_6622)">
<rect x="1247.62" y="716.945" width="48.75" height="38.75" rx="19.375" stroke="#F3B23F" stroke-width="1.25"/>
<path d="M1258.75 740.926V733.434H1259.66V737.151H1259.75L1263.11 733.434H1264.3L1261.15 736.814L1264.3 740.926H1263.2L1260.6 737.443L1259.66 738.497V740.926H1258.75ZM1265.81 740.926V733.434H1270.33V734.239H1266.71V736.77H1270.09V737.575H1266.71V740.121H1270.39V740.926H1265.81ZM1277.42 735.776C1277.34 735.529 1277.23 735.309 1277.1 735.113C1276.97 734.916 1276.82 734.748 1276.63 734.609C1276.46 734.47 1276.25 734.364 1276.03 734.29C1275.8 734.217 1275.55 734.181 1275.28 734.181C1274.84 734.181 1274.43 734.295 1274.07 734.525C1273.71 734.754 1273.42 735.091 1273.2 735.538C1272.99 735.984 1272.88 736.531 1272.88 737.18C1272.88 737.829 1272.99 738.376 1273.21 738.823C1273.42 739.269 1273.72 739.607 1274.09 739.836C1274.46 740.065 1274.88 740.18 1275.34 740.18C1275.77 740.18 1276.15 740.088 1276.47 739.905C1276.8 739.72 1277.06 739.459 1277.24 739.122C1277.43 738.783 1277.52 738.385 1277.52 737.926L1277.8 737.985H1275.54V737.18H1278.4V737.985C1278.4 738.602 1278.27 739.138 1278 739.594C1277.74 740.05 1277.38 740.404 1276.92 740.655C1276.46 740.904 1275.94 741.028 1275.34 741.028C1274.68 741.028 1274.09 740.872 1273.59 740.56C1273.09 740.248 1272.7 739.804 1272.42 739.229C1272.14 738.653 1272 737.97 1272 737.18C1272 736.588 1272.08 736.055 1272.24 735.582C1272.4 735.106 1272.63 734.701 1272.92 734.367C1273.21 734.033 1273.56 733.777 1273.96 733.599C1274.36 733.421 1274.8 733.332 1275.28 733.332C1275.68 733.332 1276.04 733.392 1276.39 733.511C1276.73 733.628 1277.04 733.795 1277.3 734.012C1277.57 734.227 1277.8 734.484 1277.98 734.784C1278.16 735.082 1278.29 735.412 1278.35 735.776H1277.42ZM1282.79 733.434V740.926H1281.88V734.386H1281.84L1280.01 735.6V734.678L1281.88 733.434H1282.79Z" fill="#F3B23F"/>
</g>
<rect x="1247.62" y="716.945" width="118.75" height="38.75" rx="19.375" stroke="#F3B23F" stroke-width="1.25"/>
<rect x="1130.62" y="846.742" width="38.75" height="38.75" rx="3.375" stroke="#F3B23F" stroke-width="1.25"/>
<rect x="1274.73" y="832.952" width="66.75" height="66.75" rx="33.375" stroke="#F3B23F" stroke-width="1.25"/>
<rect x="1278.48" y="836.702" width="59.25" height="59.25" rx="29.625" stroke="#F3B23F" stroke-width="0.75"/>
<path d="M1248.45 700.35H1249.54V703.623H1250.63V704.714H1249.54V706.895H1250.63V707.986H1249.54V709.077H1248.45V700.35ZM1250.63 707.986H1252.81V709.077H1250.63V707.986ZM1252.81 703.623H1253.9V707.986H1252.81V703.623ZM1250.63 702.532H1252.81V703.623H1250.63V702.532Z" fill="#F3B23F"/>
<path d="M1247.36 710.604H1255V711.259H1247.36V710.604Z" fill="#F3B23F"/>
<path d="M1132.54 832.532H1135.81V833.623H1132.54V832.532ZM1131.45 833.623H1132.54V837.986H1131.45V833.623ZM1132.54 837.986H1135.81V839.077H1132.54V837.986ZM1135.81 833.623H1136.9V834.714H1135.81V833.623ZM1135.81 836.895H1136.9V837.986H1135.81V836.895Z" fill="#F3B23F"/>
<path d="M1130.36 840.604H1138V841.259H1130.36V840.604Z" fill="#F3B23F"/>
<rect x="1273.5" y="966.327" width="1" height="17" fill="#F3B23F"/>
<rect x="1341.5" y="966.327" width="1" height="17" fill="#F3B23F"/>
<circle cx="1295.27" cy="972.822" r="2.7" transform="rotate(45 1295.27 972.822)" stroke="#F3B23F" stroke-width="0.6"/>
<line x1="1292.44" y1="975.641" x2="1298.09" y2="969.986" stroke="#F3B23F" stroke-width="0.6"/>
<path d="M1303.02 970.009H1305.2V970.736H1303.02V970.009ZM1302.29 970.736H1303.02V972.191H1305.2V972.918H1303.02V975.1H1302.29V970.736ZM1305.2 972.918H1305.93V975.1H1305.2V972.918ZM1303.02 975.1H1305.2V975.827H1303.02V975.1ZM1305.2 970.736H1305.93V971.464H1305.2V970.736ZM1307.38 970.736H1308.11V972.191H1307.38V970.736ZM1310.29 970.736H1308.11V970.009H1310.29V970.736ZM1310.29 970.736H1311.02V972.191H1310.29V970.736ZM1308.11 972.191H1310.29V972.918H1308.11V972.191ZM1310.29 972.918H1311.02V975.1H1310.29V972.918ZM1307.38 972.918H1308.11V975.1H1307.38V972.918ZM1310.29 975.1V975.827H1308.11V975.1H1310.29Z" fill="#F3B23F"/>
<path d="M1313.48 971.464H1314.2V972.191H1314.93V972.918H1314.2V974.373H1314.93V975.1H1314.2V977.282H1313.48V971.464ZM1314.93 971.464H1316.39V972.191H1314.93V971.464ZM1316.39 972.191H1317.11V975.1H1316.39V972.191ZM1314.93 975.1H1316.39V975.827H1314.93V975.1ZM1318.57 971.464H1319.3V972.191H1318.57V971.464ZM1321.48 971.464H1322.21V972.191H1321.48V971.464ZM1318.57 974.373H1319.3V975.827H1318.57V974.373ZM1320.75 972.191H1321.48V972.918H1320.75V972.191ZM1319.3 972.191H1320.03V972.918H1319.3V972.191ZM1320.03 972.918H1320.75V973.645H1320.03V972.918ZM1319.3 973.645H1320.03V974.373H1319.3V973.645ZM1320.75 973.645H1321.48V974.373H1320.75V973.645ZM1321.48 974.373H1322.21V975.827H1321.48V974.373Z" fill="#F3B23F"/>
<rect x="1276.47" y="976.646" width="1" height="8" transform="rotate(45 1276.47 976.646)" fill="#F3B23F"/>
<rect width="67" height="1" transform="translate(1274.5 979.327)" fill="#F3B23F"/>
<rect x="1344.47" y="976.646" width="1" height="8" transform="rotate(45 1344.47 976.646)" fill="#F3B23F"/>
<rect x="1129.5" y="966.327" width="1" height="17" fill="#F3B23F"/>
<rect x="1169.5" y="966.327" width="1" height="17" fill="#F3B23F"/>
<path d="M1142.22 970.009H1143.68V975.827H1142.95V974.373H1140.04V972.191H1140.77V973.645H1142.95V970.736H1142.22V970.009ZM1141.49 970.736H1142.22V971.464H1141.49V970.736ZM1140.77 971.464H1141.49V972.191H1140.77V971.464ZM1145.13 970.736H1145.86V972.918H1146.59V973.645H1145.86V975.1H1145.13V970.736ZM1145.86 975.1H1148.04V975.827H1145.86V975.1ZM1145.86 970.009H1148.04V970.736H1145.86V970.009ZM1148.04 970.736H1148.77V975.1H1148.04V972.191H1147.32V971.464H1148.04V970.736ZM1146.59 972.191H1147.32V972.918H1146.59V972.191Z" fill="#F3B23F"/>
<path d="M1151.23 971.464H1151.95V972.191H1152.68V972.918H1151.95V974.373H1152.68V975.1H1151.95V977.282H1151.23V971.464ZM1152.68 971.464H1154.14V972.191H1152.68V971.464ZM1154.14 972.191H1154.86V975.1H1154.14V972.191ZM1152.68 975.1H1154.14V975.827H1152.68V975.1ZM1156.32 971.464H1157.05V972.191H1156.32V971.464ZM1159.23 971.464H1159.96V972.191H1159.23V971.464ZM1156.32 974.373H1157.05V975.827H1156.32V974.373ZM1158.5 972.191H1159.23V972.918H1158.5V972.191ZM1157.05 972.191H1157.78V972.918H1157.05V972.191ZM1157.78 972.918H1158.5V973.645H1157.78V972.918ZM1157.05 973.645H1157.78V974.373H1157.05V973.645ZM1158.5 973.645H1159.23V974.373H1158.5V973.645ZM1159.23 974.373H1159.96V975.827H1159.23V974.373Z" fill="#F3B23F"/>
<rect x="1132.47" y="976.646" width="1" height="8" transform="rotate(45 1132.47 976.646)" fill="#F3B23F"/>
<rect width="39" height="1" transform="translate(1130.5 979.327)" fill="#F3B23F"/>
<rect x="1172.47" y="976.646" width="1" height="8" transform="rotate(45 1172.47 976.646)" fill="#F3B23F"/>
<rect x="1113.5" y="966.327" width="1" height="17" fill="#F3B23F"/>
<rect x="1129.5" y="966.327" width="1" height="17" fill="#F3B23F"/>
<path d="M1118.99 971.464H1117.54V970.736H1118.99V970.009H1119.72V975.1H1121.18V975.827H1117.54V975.1H1118.99V971.464ZM1123.36 970.009H1125.54V970.736H1123.36V970.009ZM1122.63 970.736H1123.36V972.191H1125.54V972.918H1123.36V975.1H1122.63V970.736ZM1125.54 972.918H1126.27V975.1H1125.54V972.918ZM1123.36 975.1H1125.54V975.827H1123.36V975.1ZM1125.54 970.736H1126.27V971.464H1125.54V970.736Z" fill="#F3B23F"/>
<rect x="1116.47" y="976.646" width="1" height="8" transform="rotate(45 1116.47 976.646)" fill="#F3B23F"/>
<rect width="15" height="1" transform="translate(1114.5 979.327)" fill="#F3B23F"/>
<rect x="1132.47" y="976.646" width="1" height="8" transform="rotate(45 1132.47 976.646)" fill="#F3B23F"/>
<rect x="1169.5" y="966.327" width="1" height="17" fill="#F3B23F"/>
<rect x="1273.5" y="966.327" width="1" height="17" fill="#F3B23F"/>
<path d="M1210.9 971.464H1209.45V970.736H1210.9V970.009H1211.63V975.1H1213.08V975.827H1209.45V975.1H1210.9V971.464ZM1214.54 970.736H1215.27V972.918H1215.99V973.645H1215.27V975.1H1214.54V970.736ZM1215.27 975.1H1217.45V975.827H1215.27V975.1ZM1215.27 970.009H1217.45V970.736H1215.27V970.009ZM1217.45 970.736H1218.18V975.1H1217.45V972.191H1216.72V971.464H1217.45V970.736ZM1215.99 972.191H1216.72V972.918H1215.99V972.191ZM1221.82 970.009H1223.27V975.827H1222.54V974.373H1219.63V972.191H1220.36V973.645H1222.54V970.736H1221.82V970.009ZM1221.09 970.736H1221.82V971.464H1221.09V970.736ZM1220.36 971.464H1221.09V972.191H1220.36V971.464Z" fill="#F3B23F"/>
<path d="M1225.73 971.464H1226.45V972.191H1227.18V972.918H1226.45V974.373H1227.18V975.1H1226.45V977.282H1225.73V971.464ZM1227.18 971.464H1228.64V972.191H1227.18V971.464ZM1228.64 972.191H1229.36V975.1H1228.64V972.191ZM1227.18 975.1H1228.64V975.827H1227.18V975.1ZM1230.82 971.464H1231.55V972.191H1230.82V971.464ZM1233.73 971.464H1234.46V972.191H1233.73V971.464ZM1230.82 974.373H1231.55V975.827H1230.82V974.373ZM1233 972.191H1233.73V972.918H1233V972.191ZM1231.55 972.191H1232.28V972.918H1231.55V972.191ZM1232.28 972.918H1233V973.645H1232.28V972.918ZM1231.55 973.645H1232.28V974.373H1231.55V973.645ZM1233 973.645H1233.73V974.373H1233V973.645ZM1233.73 974.373H1234.46V975.827H1233.73V974.373Z" fill="#F3B23F"/>
<rect x="1172.47" y="976.646" width="1" height="8" transform="rotate(45 1172.47 976.646)" fill="#F3B23F"/>
<rect width="103" height="1" transform="translate(1170.5 979.327)" fill="#F3B23F"/>
<rect x="1276.47" y="976.646" width="1" height="8" transform="rotate(45 1276.47 976.646)" fill="#F3B23F"/>
<rect x="1341.5" y="966.327" width="1" height="17" fill="#F3B23F"/>
<path d="M1382.9 971.464H1381.45V970.736H1382.9V970.009H1383.63V975.1H1385.08V975.827H1381.45V975.1H1382.9V971.464ZM1386.54 970.736H1387.27V972.918H1387.99V973.645H1387.27V975.1H1386.54V970.736ZM1387.27 975.1H1389.45V975.827H1387.27V975.1ZM1387.27 970.009H1389.45V970.736H1387.27V970.009ZM1389.45 970.736H1390.18V975.1H1389.45V972.191H1388.72V971.464H1389.45V970.736ZM1387.99 972.191H1388.72V972.918H1387.99V972.191ZM1393.82 970.009H1395.27V975.827H1394.54V974.373H1391.63V972.191H1392.36V973.645H1394.54V970.736H1393.82V970.009ZM1393.09 970.736H1393.82V971.464H1393.09V970.736ZM1392.36 971.464H1393.09V972.191H1392.36V971.464Z" fill="#F3B23F"/>
<path d="M1397.73 971.464H1398.45V972.191H1399.18V972.918H1398.45V974.373H1399.18V975.1H1398.45V977.282H1397.73V971.464ZM1399.18 971.464H1400.64V972.191H1399.18V971.464ZM1400.64 972.191H1401.36V975.1H1400.64V972.191ZM1399.18 975.1H1400.64V975.827H1399.18V975.1ZM1402.82 971.464H1403.55V972.191H1402.82V971.464ZM1405.73 971.464H1406.46V972.191H1405.73V971.464ZM1402.82 974.373H1403.55V975.827H1402.82V974.373ZM1405 972.191H1405.73V972.918H1405V972.191ZM1403.55 972.191H1404.28V972.918H1403.55V972.191ZM1404.28 972.918H1405V973.645H1404.28V972.918ZM1403.55 973.645H1404.28V974.373H1403.55V973.645ZM1405 973.645H1405.73V974.373H1405V973.645ZM1405.73 974.373H1406.46V975.827H1405.73V974.373Z" fill="#F3B23F"/>
<rect x="1344.47" y="976.646" width="1" height="8" transform="rotate(45 1344.47 976.646)" fill="#F3B23F"/>
<rect width="103" height="1" transform="translate(1342.5 979.327)" fill="#F3B23F"/>
<path d="M1076.68 874.106L1076.68 872.651L1082.5 872.651L1082.5 873.378L1081.05 873.378L1081.05 876.287L1078.86 876.287L1078.86 875.56L1080.32 875.56L1080.32 873.378L1077.41 873.378L1077.41 874.106L1076.68 874.106ZM1077.41 874.833L1077.41 874.106L1078.14 874.106L1078.14 874.833L1077.41 874.833ZM1078.14 875.56L1078.14 874.833L1078.86 874.833L1078.86 875.56L1078.14 875.56ZM1077.41 871.194L1077.41 870.466L1079.59 870.466L1079.59 869.739L1080.32 869.739L1080.32 870.466L1081.77 870.466L1081.77 871.194L1077.41 871.194ZM1081.77 870.466L1081.77 868.285L1082.5 868.285L1082.5 870.466L1081.77 870.466ZM1076.68 870.466L1076.68 868.285L1077.41 868.285L1077.41 870.466L1076.68 870.466ZM1077.41 868.285L1077.41 867.557L1081.77 867.557L1081.77 868.285L1078.86 868.285L1078.86 869.012L1078.14 869.012L1078.14 868.285L1077.41 868.285ZM1078.86 869.739L1078.86 869.012L1079.59 869.012L1079.59 869.739L1078.86 869.739Z" fill="#F3B23F"/>
<path d="M1078.14 865.1L1078.14 864.373L1078.86 864.373L1078.86 863.645L1079.59 863.645L1079.59 864.373L1081.05 864.373L1081.05 863.645L1081.77 863.645L1081.77 864.373L1083.95 864.373L1083.95 865.1L1078.14 865.1ZM1078.14 863.645L1078.14 862.191L1078.86 862.191L1078.86 863.645L1078.14 863.645ZM1078.86 862.191L1078.86 861.464L1081.77 861.464L1081.77 862.191L1078.86 862.191ZM1081.77 863.645L1081.77 862.191L1082.5 862.191L1082.5 863.645L1081.77 863.645ZM1078.14 860.006L1078.14 859.279L1078.86 859.279L1078.86 860.006L1078.14 860.006ZM1078.14 857.097L1078.14 856.37L1078.86 856.37L1078.86 857.097L1078.14 857.097ZM1081.05 860.006L1081.05 859.279L1082.5 859.279L1082.5 860.006L1081.05 860.006ZM1078.86 857.824L1078.86 857.097L1079.59 857.097L1079.59 857.824L1078.86 857.824ZM1078.86 859.279L1078.86 858.552L1079.59 858.552L1079.59 859.279L1078.86 859.279ZM1079.59 858.552L1079.59 857.824L1080.32 857.824L1080.32 858.552L1079.59 858.552ZM1080.32 859.279L1080.32 858.552L1081.05 858.552L1081.05 859.279L1080.32 859.279ZM1080.32 857.824L1080.32 857.097L1081.05 857.097L1081.05 857.824L1080.32 857.824ZM1081.05 857.097L1081.05 856.37L1082.5 856.37L1082.5 857.097L1081.05 857.097Z" fill="#F3B23F"/>
<rect x="1083.32" y="883.853" width="1" height="8" transform="rotate(-45 1083.32 883.853)" fill="#F3B23F"/>
<rect width="39" height="1" transform="translate(1086 885.827) rotate(-90)" fill="#F3B23F"/>
<rect x="1083.32" y="843.853" width="1" height="8" transform="rotate(-45 1083.32 843.853)" fill="#F3B23F"/>
<rect x="1083" y="886.827" width="1" height="15" transform="rotate(-90 1083 886.827)" fill="#F3B23F"/>
<rect x="1083" y="846.827" width="1" height="15" transform="rotate(-90 1083 846.827)" fill="#F3B23F"/>
<path d="M1076.68 927.56L1076.68 925.378L1077.41 925.378L1077.41 927.56L1076.68 927.56ZM1077.41 928.287L1077.41 927.56L1078.86 927.56L1078.86 925.378L1079.59 925.378L1079.59 927.56L1081.77 927.56L1081.77 928.287L1077.41 928.287ZM1079.59 925.378L1079.59 924.651L1081.77 924.651L1081.77 925.378L1079.59 925.378ZM1081.77 927.56L1081.77 925.378L1082.5 925.378L1082.5 927.56L1081.77 927.56ZM1077.41 925.378L1077.41 924.651L1078.14 924.651L1078.14 925.378L1077.41 925.378ZM1076.68 921.012L1076.68 919.557L1082.5 919.557L1082.5 920.285L1081.05 920.285L1081.05 923.194L1078.86 923.194L1078.86 922.466L1080.32 922.466L1080.32 920.285L1077.41 920.285L1077.41 921.012L1076.68 921.012ZM1077.41 921.739L1077.41 921.012L1078.14 921.012L1078.14 921.739L1077.41 921.739ZM1078.14 922.466L1078.14 921.739L1078.86 921.739L1078.86 922.466L1078.14 922.466Z" fill="#F3B23F"/>
<path d="M1078.14 917.1L1078.14 916.373L1078.86 916.373L1078.86 915.645L1079.59 915.645L1079.59 916.373L1081.05 916.373L1081.05 915.645L1081.77 915.645L1081.77 916.373L1083.95 916.373L1083.95 917.1L1078.14 917.1ZM1078.14 915.645L1078.14 914.191L1078.86 914.191L1078.86 915.645L1078.14 915.645ZM1078.86 914.191L1078.86 913.464L1081.77 913.464L1081.77 914.191L1078.86 914.191ZM1081.77 915.645L1081.77 914.191L1082.5 914.191L1082.5 915.645L1081.77 915.645ZM1078.14 912.006L1078.14 911.279L1078.86 911.279L1078.86 912.006L1078.14 912.006ZM1078.14 909.097L1078.14 908.37L1078.86 908.37L1078.86 909.097L1078.14 909.097ZM1081.05 912.006L1081.05 911.279L1082.5 911.279L1082.5 912.006L1081.05 912.006ZM1078.86 909.824L1078.86 909.097L1079.59 909.097L1079.59 909.824L1078.86 909.824ZM1078.86 911.279L1078.86 910.552L1079.59 910.552L1079.59 911.279L1078.86 911.279ZM1079.59 910.552L1079.59 909.824L1080.32 909.824L1080.32 910.552L1079.59 910.552ZM1080.32 911.279L1080.32 910.552L1081.05 910.552L1081.05 911.279L1080.32 911.279ZM1080.32 909.824L1080.32 909.097L1081.05 909.097L1081.05 909.824L1080.32 909.824ZM1081.05 909.097L1081.05 908.37L1082.5 908.37L1082.5 909.097L1081.05 909.097Z" fill="#F3B23F"/>
<rect x="1083.32" y="947.853" width="1" height="8" transform="rotate(-45 1083.32 947.853)" fill="#F3B23F"/>
<rect width="63" height="1" transform="translate(1086 949.827) rotate(-90)" fill="#F3B23F"/>
<rect x="1083.32" y="883.853" width="1" height="8" transform="rotate(-45 1083.32 883.853)" fill="#F3B23F"/>
<rect x="1083" y="950.827" width="1" height="15" transform="rotate(-90 1083 950.827)" fill="#F3B23F"/>
<rect x="1083" y="886.827" width="1" height="15" transform="rotate(-90 1083 886.827)" fill="#F3B23F"/>
<path d="M1081.77 808.378L1082.5 808.378L1082.5 810.56L1081.77 810.56L1081.77 808.378ZM1081.77 810.56L1081.77 811.287L1081.05 811.287L1081.05 810.56L1081.77 810.56ZM1079.59 808.378L1077.41 808.378L1077.41 807.651L1081.77 807.651L1081.77 808.378L1080.32 808.378L1080.32 810.56L1079.59 810.56L1079.59 808.378ZM1079.59 810.56L1079.59 811.287L1077.41 811.287L1077.41 810.56L1079.59 810.56ZM1076.68 810.56L1076.68 808.378L1077.41 808.378L1077.41 810.56L1076.68 810.56ZM1077.41 806.194L1077.41 805.466L1079.59 805.466L1079.59 804.739L1080.32 804.739L1080.32 805.466L1081.77 805.466L1081.77 806.194L1077.41 806.194ZM1081.77 805.466L1081.77 803.285L1082.5 803.285L1082.5 805.466L1081.77 805.466ZM1076.68 805.466L1076.68 803.285L1077.41 803.285L1077.41 805.466L1076.68 805.466ZM1077.41 803.285L1077.41 802.557L1081.77 802.557L1081.77 803.285L1078.86 803.285L1078.86 804.012L1078.14 804.012L1078.14 803.285L1077.41 803.285ZM1078.86 804.739L1078.86 804.012L1079.59 804.012L1079.59 804.739L1078.86 804.739Z" fill="#F3B23F"/>
<path d="M1078.14 800.1L1078.14 799.373L1078.86 799.373L1078.86 798.645L1079.59 798.645L1079.59 799.373L1081.05 799.373L1081.05 798.645L1081.77 798.645L1081.77 799.373L1083.95 799.373L1083.95 800.1L1078.14 800.1ZM1078.14 798.645L1078.14 797.191L1078.86 797.191L1078.86 798.645L1078.14 798.645ZM1078.86 797.191L1078.86 796.464L1081.77 796.464L1081.77 797.191L1078.86 797.191ZM1081.77 798.645L1081.77 797.191L1082.5 797.191L1082.5 798.645L1081.77 798.645ZM1078.14 795.006L1078.14 794.279L1078.86 794.279L1078.86 795.006L1078.14 795.006ZM1078.14 792.097L1078.14 791.37L1078.86 791.37L1078.86 792.097L1078.14 792.097ZM1081.05 795.006L1081.05 794.279L1082.5 794.279L1082.5 795.006L1081.05 795.006ZM1078.86 792.824L1078.86 792.097L1079.59 792.097L1079.59 792.824L1078.86 792.824ZM1078.86 794.279L1078.86 793.552L1079.59 793.552L1079.59 794.279L1078.86 794.279ZM1079.59 793.552L1079.59 792.824L1080.32 792.824L1080.32 793.552L1079.59 793.552ZM1080.32 794.279L1080.32 793.552L1081.05 793.552L1081.05 794.279L1080.32 794.279ZM1080.32 792.824L1080.32 792.097L1081.05 792.097L1081.05 792.824L1080.32 792.824ZM1081.05 792.097L1081.05 791.37L1082.5 791.37L1082.5 792.097L1081.05 792.097Z" fill="#F3B23F"/>
<rect x="1083.32" y="843.853" width="1" height="8" transform="rotate(-45 1083.32 843.853)" fill="#F3B23F"/>
<rect width="89" height="1" transform="translate(1086 845.827) rotate(-90)" fill="#F3B23F"/>
<rect x="1083.32" y="753.853" width="1" height="8" transform="rotate(-45 1083.32 753.853)" fill="#F3B23F"/>
<rect x="1083" y="846.827" width="1" height="15" transform="rotate(-90 1083 846.827)" fill="#F3B23F"/>
<rect x="1083" y="756.827" width="1" height="15" transform="rotate(-90 1083 756.827)" fill="#F3B23F"/>
<path d="M1076.68 744.107L1076.68 742.652L1082.5 742.652L1082.5 743.379L1081.05 743.379L1081.05 746.288L1078.86 746.288L1078.86 745.561L1080.32 745.561L1080.32 743.379L1077.41 743.379L1077.41 744.107L1076.68 744.107ZM1077.41 744.834L1077.41 744.107L1078.14 744.107L1078.14 744.834L1077.41 744.834ZM1078.14 745.561L1078.14 744.834L1078.86 744.834L1078.86 745.561L1078.14 745.561ZM1077.41 741.195L1077.41 740.467L1079.59 740.467L1079.59 739.74L1080.32 739.74L1080.32 740.467L1081.77 740.467L1081.77 741.195L1077.41 741.195ZM1081.77 740.467L1081.77 738.286L1082.5 738.286L1082.5 740.467L1081.77 740.467ZM1076.68 740.467L1076.68 738.286L1077.41 738.286L1077.41 740.467L1076.68 740.467ZM1077.41 738.286L1077.41 737.558L1081.77 737.558L1081.77 738.286L1078.86 738.286L1078.86 739.013L1078.14 739.013L1078.14 738.286L1077.41 738.286ZM1078.86 739.74L1078.86 739.013L1079.59 739.013L1079.59 739.74L1078.86 739.74Z" fill="#F3B23F"/>
<path d="M1078.14 735.101L1078.14 734.374L1078.86 734.374L1078.86 733.646L1079.59 733.646L1079.59 734.374L1081.05 734.374L1081.05 733.646L1081.77 733.646L1081.77 734.374L1083.95 734.374L1083.95 735.101L1078.14 735.101ZM1078.14 733.646L1078.14 732.192L1078.86 732.192L1078.86 733.646L1078.14 733.646ZM1078.86 732.192L1078.86 731.464L1081.77 731.464L1081.77 732.192L1078.86 732.192ZM1081.77 733.646L1081.77 732.192L1082.5 732.192L1082.5 733.646L1081.77 733.646ZM1078.14 730.007L1078.14 729.28L1078.86 729.28L1078.86 730.007L1078.14 730.007ZM1078.14 727.098L1078.14 726.371L1078.86 726.371L1078.86 727.098L1078.14 727.098ZM1081.05 730.007L1081.05 729.28L1082.5 729.28L1082.5 730.007L1081.05 730.007ZM1078.86 727.825L1078.86 727.098L1079.59 727.098L1079.59 727.825L1078.86 727.825ZM1078.86 729.28L1078.86 728.553L1079.59 728.553L1079.59 729.28L1078.86 729.28ZM1079.59 728.553L1079.59 727.825L1080.32 727.825L1080.32 728.553L1079.59 728.553ZM1080.32 729.28L1080.32 728.553L1081.05 728.553L1081.05 729.28L1080.32 729.28ZM1080.32 727.825L1080.32 727.098L1081.05 727.098L1081.05 727.825L1080.32 727.825ZM1081.05 727.098L1081.05 726.371L1082.5 726.371L1082.5 727.098L1081.05 727.098Z" fill="#F3B23F"/>
<rect x="1083.32" y="753.854" width="1" height="8" transform="rotate(-45 1083.32 753.854)" fill="#F3B23F"/>
<rect width="39" height="1" transform="translate(1086 755.828) rotate(-90)" fill="#F3B23F"/>
<rect x="1083.32" y="713.854" width="1" height="8" transform="rotate(-45 1083.32 713.854)" fill="#F3B23F"/>
<rect x="1083" y="756.828" width="1" height="15" transform="rotate(-90 1083 756.828)" fill="#F3B23F"/>
<rect x="1083" y="716.828" width="1" height="15" transform="rotate(-90 1083 716.828)" fill="#F3B23F"/>
<path d="M1081.05 713.288L1081.05 712.561L1081.77 712.561L1081.77 709.652L1082.5 709.652L1082.5 713.288L1081.05 713.288ZM1077.41 710.379L1077.41 712.561L1076.68 712.561L1076.68 710.379L1077.41 710.379ZM1077.41 710.379L1077.41 709.652L1078.86 709.652L1078.86 710.379L1077.41 710.379ZM1080.32 712.561L1080.32 711.834L1081.05 711.834L1081.05 712.561L1080.32 712.561ZM1077.41 713.288L1077.41 712.561L1078.14 712.561L1078.14 713.288L1077.41 713.288ZM1078.86 711.107L1078.86 710.379L1079.59 710.379L1079.59 711.107L1078.86 711.107ZM1079.59 711.834L1079.59 711.107L1080.32 711.107L1080.32 711.834L1079.59 711.834ZM1076.68 707.467L1076.68 705.286L1077.41 705.286L1077.41 707.467L1076.68 707.467ZM1077.41 708.195L1077.41 707.467L1078.86 707.467L1078.86 705.286L1079.59 705.286L1079.59 707.467L1081.77 707.467L1081.77 708.195L1077.41 708.195ZM1079.59 705.286L1079.59 704.558L1081.77 704.558L1081.77 705.286L1079.59 705.286ZM1081.77 707.467L1081.77 705.286L1082.5 705.286L1082.5 707.467L1081.77 707.467ZM1077.41 705.286L1077.41 704.558L1078.14 704.558L1078.14 705.286L1077.41 705.286Z" fill="#F3B23F"/>
<path d="M1078.14 702.101L1078.14 701.374L1078.86 701.374L1078.86 700.646L1079.59 700.646L1079.59 701.374L1081.05 701.374L1081.05 700.646L1081.77 700.646L1081.77 701.374L1083.95 701.374L1083.95 702.101L1078.14 702.101ZM1078.14 700.646L1078.14 699.192L1078.86 699.192L1078.86 700.646L1078.14 700.646ZM1078.86 699.192L1078.86 698.464L1081.77 698.464L1081.77 699.192L1078.86 699.192ZM1081.77 700.646L1081.77 699.192L1082.5 699.192L1082.5 700.646L1081.77 700.646ZM1078.14 697.007L1078.14 696.28L1078.86 696.28L1078.86 697.007L1078.14 697.007ZM1078.14 694.098L1078.14 693.371L1078.86 693.371L1078.86 694.098L1078.14 694.098ZM1081.05 697.007L1081.05 696.28L1082.5 696.28L1082.5 697.007L1081.05 697.007ZM1078.86 694.825L1078.86 694.098L1079.59 694.098L1079.59 694.825L1078.86 694.825ZM1078.86 696.28L1078.86 695.553L1079.59 695.553L1079.59 696.28L1078.86 696.28ZM1079.59 695.553L1079.59 694.825L1080.32 694.825L1080.32 695.553L1079.59 695.553ZM1080.32 696.28L1080.32 695.553L1081.05 695.553L1081.05 696.28L1080.32 696.28ZM1080.32 694.825L1080.32 694.098L1081.05 694.098L1081.05 694.825L1080.32 694.825ZM1081.05 694.098L1081.05 693.371L1082.5 693.371L1082.5 694.098L1081.05 694.098Z" fill="#F3B23F"/>
<rect x="1083.32" y="713.854" width="1" height="8" transform="rotate(-45 1083.32 713.854)" fill="#F3B23F"/>
<rect width="25" height="1" transform="translate(1086 715.828) rotate(-90)" fill="#F3B23F"/>
<rect x="1083.32" y="687.854" width="1" height="8" transform="rotate(-45 1083.32 687.854)" fill="#F3B23F"/>
<rect x="1083" y="716.828" width="1" height="15" transform="rotate(-90 1083 716.828)" fill="#F3B23F"/>
<rect x="1083" y="690.828" width="1" height="15" transform="rotate(-90 1083 690.828)" fill="#F3B23F"/>
<path d="M1076.68 468.599L1076.68 467.144L1082.5 467.144L1082.5 467.871L1081.05 467.871L1081.05 470.781L1078.86 470.781L1078.86 470.053L1080.32 470.053L1080.32 467.871L1077.41 467.871L1077.41 468.599L1076.68 468.599ZM1077.41 469.326L1077.41 468.599L1078.14 468.599L1078.14 469.326L1077.41 469.326ZM1078.14 470.053L1078.14 469.326L1078.86 469.326L1078.86 470.053L1078.14 470.053ZM1076.68 464.96L1076.68 462.778L1077.41 462.778L1077.41 464.96L1076.68 464.96ZM1077.41 465.687L1077.41 464.96L1078.86 464.96L1078.86 462.778L1079.59 462.778L1079.59 464.96L1081.77 464.96L1081.77 465.687L1077.41 465.687ZM1079.59 462.778L1079.59 462.05L1081.77 462.05L1081.77 462.778L1079.59 462.778ZM1081.77 464.96L1081.77 462.778L1082.5 462.778L1082.5 464.96L1081.77 464.96ZM1077.41 462.778L1077.41 462.05L1078.14 462.05L1078.14 462.778L1077.41 462.778ZM1076.68 458.411L1076.68 456.957L1082.5 456.957L1082.5 457.684L1081.05 457.684L1081.05 460.593L1078.86 460.593L1078.86 459.866L1080.32 459.866L1080.32 457.684L1077.41 457.684L1077.41 458.411L1076.68 458.411ZM1077.41 459.138L1077.41 458.411L1078.14 458.411L1078.14 459.138L1077.41 459.138ZM1078.14 459.866L1078.14 459.138L1078.86 459.138L1078.86 459.866L1078.14 459.866Z" fill="#F3B23F"/>
<path d="M1078.14 454.499L1078.14 453.772L1078.86 453.772L1078.86 453.045L1079.59 453.045L1079.59 453.772L1081.05 453.772L1081.05 453.045L1081.77 453.045L1081.77 453.772L1083.95 453.772L1083.95 454.499L1078.14 454.499ZM1078.14 453.045L1078.14 451.59L1078.86 451.59L1078.86 453.045L1078.14 453.045ZM1078.86 451.59L1078.86 450.863L1081.77 450.863L1081.77 451.59L1078.86 451.59ZM1081.77 453.045L1081.77 451.59L1082.5 451.59L1082.5 453.045L1081.77 453.045ZM1078.14 449.406L1078.14 448.678L1078.86 448.678L1078.86 449.406L1078.14 449.406ZM1078.14 446.496L1078.14 445.769L1078.86 445.769L1078.86 446.496L1078.14 446.496ZM1081.05 449.406L1081.05 448.678L1082.5 448.678L1082.5 449.406L1081.05 449.406ZM1078.86 447.224L1078.86 446.496L1079.59 446.496L1079.59 447.224L1078.86 447.224ZM1078.86 448.678L1078.86 447.951L1079.59 447.951L1079.59 448.678L1078.86 448.678ZM1079.59 447.951L1079.59 447.224L1080.32 447.224L1080.32 447.951L1079.59 447.951ZM1080.32 448.678L1080.32 447.951L1081.05 447.951L1081.05 448.678L1080.32 448.678ZM1080.32 447.224L1080.32 446.496L1081.05 446.496L1081.05 447.224L1080.32 447.224ZM1081.05 446.496L1081.05 445.769L1082.5 445.769L1082.5 446.496L1081.05 446.496Z" fill="#F3B23F"/>
<rect x="1083.32" y="687.752" width="1" height="8" transform="rotate(-45 1083.32 687.752)" fill="#F3B23F"/>
<rect width="463" height="1" transform="translate(1086 689.727) rotate(-90)" fill="#F3B23F"/>
<rect x="1083.32" y="223.752" width="1" height="8" transform="rotate(-45 1083.32 223.752)" fill="#F3B23F"/>
<rect x="1083" y="690.727" width="1" height="15" transform="rotate(-90 1083 690.727)" fill="#F3B23F"/>
<rect x="1083" y="226.727" width="1" height="15" transform="rotate(-90 1083 226.727)" fill="#F3B23F"/>
<path d="M1295.45 69.7362H1296.17V70.4635H1295.45V69.7362ZM1296.17 69.009H1298.36V69.7362H1296.17V69.009ZM1298.36 69.7362H1299.08V71.1908H1298.36V69.7362ZM1296.9 71.1908H1298.36V71.9181H1296.9V71.1908ZM1298.36 71.9181H1299.08V74.0999H1298.36V71.9181ZM1298.36 74.0999V74.8271H1296.17V74.0999H1298.36ZM1296.17 74.0999H1295.45V73.3726H1296.17V74.0999ZM1300.54 69.009H1304.18V69.7362H1301.27V71.1908H1303.45V71.9181H1300.54V69.009ZM1303.45 71.9181H1304.18V74.0999H1303.45V71.9181ZM1303.45 74.0999V74.8271H1301.27V74.0999H1303.45ZM1301.27 74.0999H1300.54V73.3726H1301.27V74.0999ZM1306.36 69.009H1308.54V69.7362H1306.36V69.009ZM1305.63 69.7362H1306.36V71.1908H1308.54V71.9181H1306.36V74.0999H1305.63V69.7362ZM1308.54 71.9181H1309.27V74.0999H1308.54V71.9181ZM1306.36 74.0999H1308.54V74.8271H1306.36V74.0999ZM1308.54 69.7362H1309.27V70.4635H1308.54V69.7362Z" fill="#F3B23F"/>
<path d="M1311.73 70.4635H1312.45V71.1908H1313.18V71.9181H1312.45V73.3726H1313.18V74.0999H1312.45V76.2817H1311.73V70.4635ZM1313.18 70.4635H1314.64V71.1908H1313.18V70.4635ZM1314.64 71.1908H1315.36V74.0999H1314.64V71.1908ZM1313.18 74.0999H1314.64V74.8271H1313.18V74.0999ZM1316.82 70.4635H1317.55V71.1908H1316.82V70.4635ZM1319.73 70.4635H1320.46V71.1908H1319.73V70.4635ZM1316.82 73.3726H1317.55V74.8271H1316.82V73.3726ZM1319 71.1908H1319.73V71.9181H1319V71.1908ZM1317.55 71.1908H1318.28V71.9181H1317.55V71.1908ZM1318.28 71.9181H1319V72.6453H1318.28V71.9181ZM1317.55 72.6453H1318.28V73.3726H1317.55V72.6453ZM1319 72.6453H1319.73V73.3726H1319V72.6453ZM1319.73 73.3726H1320.46V74.8271H1319.73V73.3726Z" fill="#F3B23F"/>
<rect x="1132.47" y="75.6455" width="1" height="8" transform="rotate(45 1132.47 75.6455)" fill="#F3B23F"/>
<rect width="355" height="1" transform="translate(1130.5 78.3271)" fill="#F3B23F"/>
<rect x="1129.5" y="75.3271" width="1" height="15" fill="#F3B23F"/>
<path d="M1078.14 177.427L1078.14 178.881L1077.41 178.881L1077.41 177.427L1076.68 177.427L1076.68 176.699L1081.77 176.699L1081.77 175.245L1082.5 175.245L1082.5 178.881L1081.77 178.881L1081.77 177.427L1078.14 177.427ZM1081.05 173.787L1081.05 173.06L1081.77 173.06L1081.77 170.151L1082.5 170.151L1082.5 173.787L1081.05 173.787ZM1077.41 170.878L1077.41 173.06L1076.68 173.06L1076.68 170.878L1077.41 170.878ZM1077.41 170.878L1077.41 170.151L1078.86 170.151L1078.86 170.878L1077.41 170.878ZM1080.32 173.06L1080.32 172.333L1081.05 172.333L1081.05 173.06L1080.32 173.06ZM1077.41 173.787L1077.41 173.06L1078.14 173.06L1078.14 173.787L1077.41 173.787ZM1078.86 171.606L1078.86 170.878L1079.59 170.878L1079.59 171.606L1078.86 171.606ZM1079.59 172.333L1079.59 171.606L1080.32 171.606L1080.32 172.333L1079.59 172.333ZM1077.41 168.694L1077.41 167.966L1079.59 167.966L1079.59 167.239L1080.32 167.239L1080.32 167.966L1081.77 167.966L1081.77 168.694L1077.41 168.694ZM1081.77 167.966L1081.77 165.785L1082.5 165.785L1082.5 167.966L1081.77 167.966ZM1076.68 167.966L1076.68 165.785L1077.41 165.785L1077.41 167.966L1076.68 167.966ZM1077.41 165.785L1077.41 165.057L1081.77 165.057L1081.77 165.785L1078.86 165.785L1078.86 166.512L1078.14 166.512L1078.14 165.785L1077.41 165.785ZM1078.86 167.239L1078.86 166.512L1079.59 166.512L1079.59 167.239L1078.86 167.239Z" fill="#F3B23F"/>
<path d="M1078.14 162.6L1078.14 161.873L1078.86 161.873L1078.86 161.145L1079.59 161.145L1079.59 161.873L1081.05 161.873L1081.05 161.145L1081.77 161.145L1081.77 161.873L1083.95 161.873L1083.95 162.6L1078.14 162.6ZM1078.14 161.145L1078.14 159.691L1078.86 159.691L1078.86 161.145L1078.14 161.145ZM1078.86 159.691L1078.86 158.964L1081.77 158.964L1081.77 159.691L1078.86 159.691ZM1081.77 161.145L1081.77 159.691L1082.5 159.691L1082.5 161.145L1081.77 161.145ZM1078.14 157.506L1078.14 156.779L1078.86 156.779L1078.86 157.506L1078.14 157.506ZM1078.14 154.597L1078.14 153.87L1078.86 153.87L1078.86 154.597L1078.14 154.597ZM1081.05 157.506L1081.05 156.779L1082.5 156.779L1082.5 157.506L1081.05 157.506ZM1078.86 155.324L1078.86 154.597L1079.59 154.597L1079.59 155.324L1078.86 155.324ZM1078.86 156.779L1078.86 156.052L1079.59 156.052L1079.59 156.779L1078.86 156.779ZM1079.59 156.052L1079.59 155.324L1080.32 155.324L1080.32 156.052L1079.59 156.052ZM1080.32 156.779L1080.32 156.052L1081.05 156.052L1081.05 156.779L1080.32 156.779ZM1080.32 155.324L1080.32 154.597L1081.05 154.597L1081.05 155.324L1080.32 155.324ZM1081.05 154.597L1081.05 153.87L1082.5 153.87L1082.5 154.597L1081.05 154.597Z" fill="#F3B23F"/>
<rect x="1083.32" y="223.853" width="1" height="8" transform="rotate(-45 1083.32 223.853)" fill="#F3B23F"/>
<rect width="119" height="1" transform="translate(1086 225.827) rotate(-90)" fill="#F3B23F"/>
<rect x="1083.32" y="103.853" width="1" height="8" transform="rotate(-45 1083.32 103.853)" fill="#F3B23F"/>
<rect x="1083" y="226.827" width="1" height="15" transform="rotate(-90 1083 226.827)" fill="#F3B23F"/>
<rect x="1083" y="106.827" width="1" height="15" transform="rotate(-90 1083 106.827)" fill="#F3B23F"/>
<mask id="path-127-outside-3_104_6622" maskUnits="userSpaceOnUse" x="1075" y="39" width="29" height="13" fill="black">
<rect fill="white" x="1075" y="39" width="29" height="13"/>
<path d="M1078.8 42.2727H1075.89V40.8182H1078.8V39.3636H1080.26V49.5455H1083.16V51H1075.89V49.5455H1078.8V42.2727ZM1088.99 48.0909H1090.44V51H1088.99V48.0909ZM1088.99 42.2727H1090.44V45.1818H1088.99V42.2727ZM1099.18 42.2727H1096.27V40.8182H1099.18V39.3636H1100.63V49.5455H1103.54V51H1096.27V49.5455H1099.18V42.2727Z"/>
</mask>
<path d="M1078.8 42.2727H1075.89V40.8182H1078.8V39.3636H1080.26V49.5455H1083.16V51H1075.89V49.5455H1078.8V42.2727ZM1088.99 48.0909H1090.44V51H1088.99V48.0909ZM1088.99 42.2727H1090.44V45.1818H1088.99V42.2727ZM1099.18 42.2727H1096.27V40.8182H1099.18V39.3636H1100.63V49.5455H1103.54V51H1096.27V49.5455H1099.18V42.2727Z" fill="#F3B23F"/>
<path d="M1078.8 42.2727H1079.02V42.0527H1078.8V42.2727ZM1075.89 42.2727H1075.67V42.4927H1075.89V42.2727ZM1075.89 40.8182V40.5982H1075.67V40.8182H1075.89ZM1078.8 40.8182V41.0382H1079.02V40.8182H1078.8ZM1078.8 39.3636V39.1436H1078.58V39.3636H1078.8ZM1080.26 39.3636H1080.48V39.1436H1080.26V39.3636ZM1080.26 49.5455H1080.04V49.7655H1080.26V49.5455ZM1083.16 49.5455H1083.38V49.3255H1083.16V49.5455ZM1083.16 51V51.22H1083.38V51H1083.16ZM1075.89 51H1075.67V51.22H1075.89V51ZM1075.89 49.5455V49.3255H1075.67V49.5455H1075.89ZM1078.8 49.5455V49.7655H1079.02V49.5455H1078.8ZM1078.8 42.2727V42.0527H1075.89V42.2727V42.4927H1078.8V42.2727ZM1075.89 42.2727H1076.11V40.8182H1075.89H1075.67V42.2727H1075.89ZM1075.89 40.8182V41.0382H1078.8V40.8182V40.5982H1075.89V40.8182ZM1078.8 40.8182H1079.02V39.3636H1078.8H1078.58V40.8182H1078.8ZM1078.8 39.3636V39.5836H1080.26V39.3636V39.1436H1078.8V39.3636ZM1080.26 39.3636H1080.04V49.5455H1080.26H1080.48V39.3636H1080.26ZM1080.26 49.5455V49.7655H1083.16V49.5455V49.3255H1080.26V49.5455ZM1083.16 49.5455H1082.94V51H1083.16H1083.38V49.5455H1083.16ZM1083.16 51V50.78H1075.89V51V51.22H1083.16V51ZM1075.89 51H1076.11V49.5455H1075.89H1075.67V51H1075.89ZM1075.89 49.5455V49.7655H1078.8V49.5455V49.3255H1075.89V49.5455ZM1078.8 49.5455H1079.02V42.2727H1078.8H1078.58V49.5455H1078.8ZM1088.99 48.0909V47.8709H1088.77V48.0909H1088.99ZM1090.44 48.0909H1090.66V47.8709H1090.44V48.0909ZM1090.44 51V51.22H1090.66V51H1090.44ZM1088.99 51H1088.77V51.22H1088.99V51ZM1088.99 42.2727V42.0527H1088.77V42.2727H1088.99ZM1090.44 42.2727H1090.66V42.0527H1090.44V42.2727ZM1090.44 45.1818V45.4018H1090.66V45.1818H1090.44ZM1088.99 45.1818H1088.77V45.4018H1088.99V45.1818ZM1088.99 48.0909V48.3109H1090.44V48.0909V47.8709H1088.99V48.0909ZM1090.44 48.0909H1090.22V51H1090.44H1090.66V48.0909H1090.44ZM1090.44 51V50.78H1088.99V51V51.22H1090.44V51ZM1088.99 51H1089.21V48.0909H1088.99H1088.77V51H1088.99ZM1088.99 42.2727V42.4927H1090.44V42.2727V42.0527H1088.99V42.2727ZM1090.44 42.2727H1090.22V45.1818H1090.44H1090.66V42.2727H1090.44ZM1090.44 45.1818V44.9618H1088.99V45.1818V45.4018H1090.44V45.1818ZM1088.99 45.1818H1089.21V42.2727H1088.99H1088.77V45.1818H1088.99ZM1099.18 42.2727H1099.4V42.0527H1099.18V42.2727ZM1096.27 42.2727H1096.05V42.4927H1096.27V42.2727ZM1096.27 40.8182V40.5982H1096.05V40.8182H1096.27ZM1099.18 40.8182V41.0382H1099.4V40.8182H1099.18ZM1099.18 39.3636V39.1436H1098.96V39.3636H1099.18ZM1100.63 39.3636H1100.85V39.1436H1100.63V39.3636ZM1100.63 49.5455H1100.41V49.7655H1100.63V49.5455ZM1103.54 49.5455H1103.76V49.3255H1103.54V49.5455ZM1103.54 51V51.22H1103.76V51H1103.54ZM1096.27 51H1096.05V51.22H1096.27V51ZM1096.27 49.5455V49.3255H1096.05V49.5455H1096.27ZM1099.18 49.5455V49.7655H1099.4V49.5455H1099.18ZM1099.18 42.2727V42.0527H1096.27V42.2727V42.4927H1099.18V42.2727ZM1096.27 42.2727H1096.49V40.8182H1096.27H1096.05V42.2727H1096.27ZM1096.27 40.8182V41.0382H1099.18V40.8182V40.5982H1096.27V40.8182ZM1099.18 40.8182H1099.4V39.3636H1099.18H1098.96V40.8182H1099.18ZM1099.18 39.3636V39.5836H1100.63V39.3636V39.1436H1099.18V39.3636ZM1100.63 39.3636H1100.41V49.5455H1100.63H1100.85V39.3636H1100.63ZM1100.63 49.5455V49.7655H1103.54V49.5455V49.3255H1100.63V49.5455ZM1103.54 49.5455H1103.32V51H1103.54H1103.76V49.5455H1103.54ZM1103.54 51V50.78H1096.27V51V51.22H1103.54V51ZM1096.27 51H1096.49V49.5455H1096.27H1096.05V51H1096.27ZM1096.27 49.5455V49.7655H1099.18V49.5455V49.3255H1096.27V49.5455ZM1099.18 49.5455H1099.4V42.2727H1099.18H1098.96V49.5455H1099.18Z" fill="#F3B23F" mask="url(#path-127-outside-3_104_6622)"/>
</g>
<g opacity="0.75">
<rect x="581.25" y="482.25" width="237.5" height="77.5" rx="38.75" stroke="#F3B23F" stroke-width="2.5"/>
<rect x="581.25" y="482.25" width="97.5" height="77.5" rx="38.75" stroke="#F3B23F" stroke-width="2.5"/>
<path d="M603.003 530.211V515.228H604.817V522.661H604.993L611.723 515.228H614.094L607.802 521.988L614.094 530.211H611.899L606.69 523.246L604.817 525.353V530.211H603.003ZM617.111 530.211V515.228H626.154V516.838H618.926V521.9H625.685V523.51H618.926V528.601H626.271V530.211H617.111ZM640.335 519.91C640.174 519.418 639.962 518.976 639.699 518.586C639.44 518.191 639.131 517.855 638.77 517.577C638.414 517.299 638.009 517.087 637.555 516.94C637.102 516.794 636.604 516.721 636.063 516.721C635.175 516.721 634.368 516.95 633.641 517.408C632.915 517.867 632.337 518.542 631.908 519.435C631.478 520.327 631.264 521.422 631.264 522.72C631.264 524.017 631.481 525.112 631.915 526.004C632.349 526.897 632.937 527.572 633.678 528.031C634.419 528.489 635.253 528.719 636.18 528.719C637.038 528.719 637.794 528.536 638.448 528.17C639.106 527.799 639.618 527.277 639.984 526.604C640.355 525.926 640.54 525.129 640.54 524.212L641.096 524.329H636.59V522.72H642.296V524.329C642.296 525.563 642.033 526.636 641.506 527.548C640.984 528.46 640.262 529.167 639.34 529.67C638.423 530.167 637.37 530.416 636.18 530.416C634.853 530.416 633.688 530.104 632.683 529.479C631.683 528.855 630.903 527.967 630.342 526.816C629.786 525.665 629.508 524.3 629.508 522.72C629.508 521.534 629.667 520.469 629.984 519.523C630.305 518.572 630.759 517.762 631.344 517.094C631.93 516.426 632.622 515.914 633.422 515.558C634.222 515.202 635.102 515.024 636.063 515.024C636.853 515.024 637.59 515.143 638.272 515.382C638.96 515.616 639.572 515.95 640.109 516.384C640.65 516.813 641.101 517.328 641.462 517.928C641.823 518.523 642.072 519.184 642.208 519.91H640.335ZM651.077 515.228V530.211H649.262V517.13H649.175L645.517 519.559V517.716L649.262 515.228H651.077Z" fill="#F3B23F"/>
<rect width="1" height="1" transform="translate(779.5 520.484)" fill="#F3B23F"/>
<rect width="0.5" height="6" transform="translate(788.5 520.75) rotate(90)" fill="#F3B23F"/>
<rect width="0.5" height="0.5" transform="translate(789.5 520.75)" fill="#F3B23F"/>
<rect width="0.5" height="6" transform="translate(797 520.75) rotate(90)" fill="#F3B23F"/>
<rect width="0.5" height="0.5" transform="translate(798 520.75)" fill="#F3B23F"/>
<rect width="0.5" height="6" transform="translate(805.5 520.75) rotate(90)" fill="#F3B23F"/>
<rect width="0.5" height="0.5" transform="translate(806.5 520.75)" fill="#F3B23F"/>
<rect width="0.5" height="6" transform="translate(814 520.75) rotate(90)" fill="#F3B23F"/>
<rect width="0.5" height="0.5" transform="translate(815 520.75)" fill="#F3B23F"/>
<rect width="0.5" height="6" transform="translate(822.5 520.75) rotate(90)" fill="#F3B23F"/>
<rect width="40" height="0.5" transform="translate(780.25 479) rotate(90)" fill="#F3B23F"/>
<rect width="0.5" height="6" transform="translate(780.25 485) rotate(-180)" fill="#F3B23F"/>
<rect width="0.5" height="0.5" transform="translate(780.25 486) rotate(90)" fill="#F3B23F"/>
<rect width="0.5" height="6" transform="translate(780.25 493.5) rotate(-180)" fill="#F3B23F"/>
<rect width="0.5" height="0.5" transform="translate(780.25 494.5) rotate(90)" fill="#F3B23F"/>
<rect width="0.5" height="6" transform="translate(780.25 502) rotate(-180)" fill="#F3B23F"/>
<rect width="0.5" height="0.5" transform="translate(780.25 503) rotate(90)" fill="#F3B23F"/>
<rect width="0.5" height="6" transform="translate(780.25 510.5) rotate(-180)" fill="#F3B23F"/>
<rect width="0.5" height="0.5" transform="translate(780.25 511.5) rotate(90)" fill="#F3B23F"/>
<rect width="0.5" height="6" transform="translate(780.25 519) rotate(-180)" fill="#F3B23F"/>
<rect width="0.5" height="6" transform="translate(780.25 529.5) rotate(-180)" fill="#F3B23F"/>
<rect width="0.5" height="0.5" transform="translate(780.25 530.5) rotate(90)" fill="#F3B23F"/>
<rect width="0.5" height="6" transform="translate(780.25 538) rotate(-180)" fill="#F3B23F"/>
<rect width="0.5" height="0.5" transform="translate(780.25 539) rotate(90)" fill="#F3B23F"/>
<rect width="0.5" height="6" transform="translate(780.25 546.5) rotate(-180)" fill="#F3B23F"/>
<rect width="0.5" height="0.5" transform="translate(780.25 547.5) rotate(90)" fill="#F3B23F"/>
<rect width="0.5" height="6" transform="translate(780.25 555) rotate(-180)" fill="#F3B23F"/>
<rect width="0.5" height="0.5" transform="translate(780.25 556) rotate(90)" fill="#F3B23F"/>
<rect width="0.5" height="6" transform="translate(780.25 563.5) rotate(-180)" fill="#F3B23F"/>
<rect width="0.5" height="6" transform="translate(744 520.75) rotate(90)" fill="#F3B23F"/>
<rect width="0.5" height="0.5" transform="translate(745 520.75)" fill="#F3B23F"/>
<rect width="0.5" height="6" transform="translate(752.5 520.75) rotate(90)" fill="#F3B23F"/>
<rect width="0.5" height="0.5" transform="translate(753.5 520.75)" fill="#F3B23F"/>
<rect width="0.5" height="6" transform="translate(761 520.75) rotate(90)" fill="#F3B23F"/>
<rect width="0.5" height="0.5" transform="translate(762 520.75)" fill="#F3B23F"/>
<rect width="0.5" height="6" transform="translate(769.5 520.75) rotate(90)" fill="#F3B23F"/>
<rect width="0.5" height="0.5" transform="translate(770.5 520.75)" fill="#F3B23F"/>
<rect width="0.5" height="6" transform="translate(778 520.75) rotate(90)" fill="#F3B23F"/>
<rect width="6" height="1" transform="matrix(-0.707107 -0.707107 -0.707107 0.707107 787.223 527.516)" fill="#F3B23F"/>
<path d="M781.212 522.213L782.863 526.926L785.925 523.864L781.212 522.213Z" fill="#F3B23F"/>
<rect x="579.5" y="577" width="1" height="17" fill="#F3B23F"/>
<rect x="679.5" y="577" width="1" height="17" fill="#F3B23F"/>
<path d="M617.55 580.227L622.095 580.227L622.095 581.136L618.459 581.136L618.459 582.955L621.186 582.955L621.186 583.864L617.55 583.864L617.55 580.227ZM621.186 583.864L622.095 583.864L622.095 586.591L621.186 586.591L621.186 583.864ZM621.186 586.591L621.186 587.5L618.459 587.5L618.459 586.591L621.186 586.591ZM618.459 586.591L617.55 586.591L617.55 585.682L618.459 585.682L618.459 586.591ZM623.917 581.136L624.826 581.136L624.826 583.864L625.735 583.864L625.735 584.773L624.826 584.773L624.826 586.591L623.917 586.591L623.917 581.136ZM624.826 586.591L627.553 586.591L627.553 587.5L624.826 587.5L624.826 586.591ZM624.826 580.227L627.553 580.227L627.553 581.136L624.826 581.136L624.826 580.227ZM627.553 581.136L628.462 581.136L628.462 586.591L627.553 586.591L627.553 582.955L626.644 582.955L626.644 582.045L627.553 582.045L627.553 581.136ZM625.735 582.955L626.644 582.955L626.644 583.864L625.735 583.864L625.735 582.955Z" fill="#F3B23F"/>
<path d="M631.534 582.045L632.443 582.045L632.443 582.955L633.352 582.955L633.352 583.864L632.443 583.864L632.443 585.682L633.352 585.682L633.352 586.591L632.443 586.591L632.443 589.318L631.534 589.318L631.534 582.045ZM633.352 582.045L635.17 582.045L635.17 582.955L633.352 582.955L633.352 582.045ZM635.17 582.955L636.08 582.955L636.08 586.591L635.17 586.591L635.17 582.955ZM633.352 586.591L635.17 586.591L635.17 587.5L633.352 587.5L633.352 586.591ZM637.901 582.045L638.81 582.045L638.81 582.955L637.901 582.955L637.901 582.045ZM641.538 582.045L642.447 582.045L642.447 582.955L641.538 582.955L641.538 582.045ZM637.901 585.682L638.81 585.682L638.81 587.5L637.901 587.5L637.901 585.682ZM640.629 582.955L641.538 582.955L641.538 583.864L640.629 583.864L640.629 582.955ZM638.81 582.955L639.719 582.955L639.719 583.864L638.81 583.864L638.81 582.955ZM639.719 583.864L640.629 583.864L640.629 584.773L639.719 584.773L639.719 583.864ZM638.81 584.773L639.719 584.773L639.719 585.682L638.81 585.682L638.81 584.773ZM640.629 584.773L641.538 584.773L641.538 585.682L640.629 585.682L640.629 584.773ZM641.538 585.682L642.447 585.682L642.447 587.5L641.538 587.5L641.538 585.682Z" fill="#F3B23F"/>
<rect x="582.475" y="587.318" width="1" height="8" transform="rotate(45 582.475 587.318)" fill="#F3B23F"/>
<rect width="99" height="1" transform="translate(580.5 590)" fill="#F3B23F"/>
<rect x="682.475" y="587.318" width="1" height="8" transform="rotate(45 682.475 587.318)" fill="#F3B23F"/>
<path d="M542.571 530.723L542.571 528.905L549.844 528.905L549.844 529.814L548.026 529.814L548.026 533.45L545.298 533.45L545.298 532.541L547.116 532.541L547.116 529.814L543.48 529.814L543.48 530.723L542.571 530.723ZM543.48 531.632L543.48 530.723L544.389 530.723L544.389 531.632L543.48 531.632ZM544.389 532.541L544.389 531.632L545.298 531.632L545.298 532.541L544.389 532.541ZM543.48 527.083L543.48 526.174L546.207 526.174L546.207 525.265L547.116 525.265L547.116 526.174L548.935 526.174L548.935 527.083L543.48 527.083ZM548.935 526.174L548.935 523.447L549.844 523.447L549.844 526.174L548.935 526.174ZM542.571 526.174L542.571 523.447L543.48 523.447L543.48 526.174L542.571 526.174ZM543.48 523.447L543.48 522.538L548.935 522.538L548.935 523.447L545.298 523.447L545.298 524.356L544.389 524.356L544.389 523.447L543.48 523.447ZM545.298 525.265L545.298 524.356L546.207 524.356L546.207 525.265L545.298 525.265Z" fill="#F3B23F"/>
<path d="M544.389 519.466L544.389 518.557L545.298 518.557L545.298 517.648L546.207 517.648L546.207 518.557L548.026 518.557L548.026 517.648L548.935 517.648L548.935 518.557L551.662 518.557L551.662 519.466L544.389 519.466ZM544.389 517.648L544.389 515.83L545.298 515.83L545.298 517.648L544.389 517.648ZM545.298 515.83L545.298 514.92L548.935 514.92L548.935 515.83L545.298 515.83ZM548.935 517.648L548.935 515.83L549.844 515.83L549.844 517.648L548.935 517.648ZM544.389 513.099L544.389 512.19L545.298 512.19L545.298 513.099L544.389 513.099ZM544.389 509.462L544.389 508.553L545.298 508.553L545.298 509.462L544.389 509.462ZM548.026 513.099L548.026 512.19L549.844 512.19L549.844 513.099L548.026 513.099ZM545.298 510.371L545.298 509.462L546.207 509.462L546.207 510.371L545.298 510.371ZM545.298 512.19L545.298 511.281L546.207 511.281L546.207 512.19L545.298 512.19ZM546.207 511.281L546.207 510.371L547.116 510.371L547.116 511.281L546.207 511.281ZM547.116 512.19L547.116 511.281L548.026 511.281L548.026 512.19L547.116 512.19ZM547.116 510.371L547.116 509.462L548.026 509.462L548.026 510.371L547.116 510.371ZM548.026 509.462L548.026 508.553L549.844 508.553L549.844 509.462L548.026 509.462Z" fill="#F3B23F"/>
<rect x="549.662" y="558.525" width="1" height="8" transform="rotate(-45 549.662 558.525)" fill="#F3B23F"/>
<rect width="79" height="1" transform="translate(552.344 560.5) rotate(-90)" fill="#F3B23F"/>
<rect x="549.662" y="478.525" width="1" height="8" transform="rotate(-45 549.662 478.525)" fill="#F3B23F"/>
<rect x="549.344" y="561.5" width="1" height="15" transform="rotate(-90 549.344 561.5)" fill="#F3B23F"/>
<rect x="549.344" y="481.5" width="1" height="15" transform="rotate(-90 549.344 481.5)" fill="#F3B23F"/>
<rect x="679.5" y="577" width="1" height="17" fill="#F3B23F"/>
<rect x="819.5" y="577" width="1" height="17" fill="#F3B23F"/>
<path d="M738.459 584.773L739.368 584.773L739.368 587.5L738.459 587.5L738.459 584.773ZM739.368 583.864L740.277 583.864L740.277 584.773L739.368 584.773L739.368 583.864ZM740.277 582.955L741.186 582.955L741.186 583.864L740.277 583.864L740.277 582.955ZM741.186 581.136L737.55 581.136L737.55 580.227L742.095 580.227L742.095 582.955L741.186 582.955L741.186 581.136ZM743.917 581.136L744.826 581.136L744.826 583.864L745.735 583.864L745.735 584.773L744.826 584.773L744.826 586.591L743.917 586.591L743.917 581.136ZM744.826 586.591L747.553 586.591L747.553 587.5L744.826 587.5L744.826 586.591ZM744.826 580.227L747.553 580.227L747.553 581.136L744.826 581.136L744.826 580.227ZM747.553 581.136L748.462 581.136L748.462 586.591L747.553 586.591L747.553 582.955L746.644 582.955L746.644 582.045L747.553 582.045L747.553 581.136ZM745.735 582.955L746.644 582.955L746.644 583.864L745.735 583.864L745.735 582.955Z" fill="#F3B23F"/>
<path d="M751.534 582.045L752.443 582.045L752.443 582.955L753.352 582.955L753.352 583.864L752.443 583.864L752.443 585.682L753.352 585.682L753.352 586.591L752.443 586.591L752.443 589.318L751.534 589.318L751.534 582.045ZM753.352 582.045L755.17 582.045L755.17 582.955L753.352 582.955L753.352 582.045ZM755.17 582.955L756.08 582.955L756.08 586.591L755.17 586.591L755.17 582.955ZM753.352 586.591L755.17 586.591L755.17 587.5L753.352 587.5L753.352 586.591ZM757.901 582.045L758.81 582.045L758.81 582.955L757.901 582.955L757.901 582.045ZM761.538 582.045L762.447 582.045L762.447 582.955L761.538 582.955L761.538 582.045ZM757.901 585.682L758.81 585.682L758.81 587.5L757.901 587.5L757.901 585.682ZM760.629 582.955L761.538 582.955L761.538 583.864L760.629 583.864L760.629 582.955ZM758.81 582.955L759.719 582.955L759.719 583.864L758.81 583.864L758.81 582.955ZM759.719 583.864L760.629 583.864L760.629 584.773L759.719 584.773L759.719 583.864ZM758.81 584.773L759.719 584.773L759.719 585.682L758.81 585.682L758.81 584.773ZM760.629 584.773L761.538 584.773L761.538 585.682L760.629 585.682L760.629 584.773ZM761.538 585.682L762.447 585.682L762.447 587.5L761.538 587.5L761.538 585.682Z" fill="#F3B23F"/>
<rect x="682.475" y="587.318" width="1" height="8" transform="rotate(45 682.475 587.318)" fill="#F3B23F"/>
<rect width="139" height="1" transform="translate(680.5 590)" fill="#F3B23F"/>
<rect x="822.475" y="587.318" width="1" height="8" transform="rotate(45 822.475 587.318)" fill="#F3B23F"/>
<mask id="path-151-outside-4_104_6622" maskUnits="userSpaceOnUse" x="541.344" y="453.5" width="70" height="13" fill="black">
<rect fill="white" x="541.344" y="453.5" width="70" height="13"/>
<path d="M542.486 453.864H543.94V458.227H545.395V459.682H543.94V462.591H545.395V464.045H543.94V465.5H542.486V453.864ZM545.395 464.045H548.304V465.5H545.395V464.045ZM548.304 458.227H549.759V464.045H548.304V458.227ZM545.395 456.773H548.304V458.227H545.395V456.773ZM568.679 459.682V461.136H564.315V459.682H568.679ZM583.236 462.591H584.69V464.045H590.509V465.5H583.236V462.591ZM589.054 455.318H584.69V453.864H589.054V455.318ZM589.054 455.318H590.509V458.227H589.054V455.318ZM584.69 461.136H586.145V462.591H584.69V461.136ZM583.236 455.318H584.69V456.773H583.236V455.318ZM587.599 458.227H589.054V459.682H587.599V458.227ZM586.145 459.682H587.599V461.136H586.145V459.682ZM596.332 462.591H597.787V465.5H596.332V462.591ZM596.332 456.773H597.787V459.682H596.332V456.773ZM606.52 456.773H603.611V455.318H606.52V453.864H607.974V464.045H610.884V465.5H603.611V464.045H606.52V456.773Z"/>
</mask>
<path d="M542.486 453.864H543.94V458.227H545.395V459.682H543.94V462.591H545.395V464.045H543.94V465.5H542.486V453.864ZM545.395 464.045H548.304V465.5H545.395V464.045ZM548.304 458.227H549.759V464.045H548.304V458.227ZM545.395 456.773H548.304V458.227H545.395V456.773ZM568.679 459.682V461.136H564.315V459.682H568.679ZM583.236 462.591H584.69V464.045H590.509V465.5H583.236V462.591ZM589.054 455.318H584.69V453.864H589.054V455.318ZM589.054 455.318H590.509V458.227H589.054V455.318ZM584.69 461.136H586.145V462.591H584.69V461.136ZM583.236 455.318H584.69V456.773H583.236V455.318ZM587.599 458.227H589.054V459.682H587.599V458.227ZM586.145 459.682H587.599V461.136H586.145V459.682ZM596.332 462.591H597.787V465.5H596.332V462.591ZM596.332 456.773H597.787V459.682H596.332V456.773ZM606.52 456.773H603.611V455.318H606.52V453.864H607.974V464.045H610.884V465.5H603.611V464.045H606.52V456.773Z" fill="#F3B23F"/>
<path d="M542.486 453.864V453.664H542.286V453.864H542.486ZM543.94 453.864H544.14V453.664H543.94V453.864ZM543.94 458.227H543.74V458.427H543.94V458.227ZM545.395 458.227H545.595V458.027H545.395V458.227ZM545.395 459.682V459.882H545.595V459.682H545.395ZM543.94 459.682V459.482H543.74V459.682H543.94ZM543.94 462.591H543.74V462.791H543.94V462.591ZM545.395 462.591H545.595V462.391H545.395V462.591ZM545.395 464.045V464.245H545.595V464.045H545.395ZM543.94 464.045V463.845H543.74V464.045H543.94ZM543.94 465.5V465.7H544.14V465.5H543.94ZM542.486 465.5H542.286V465.7H542.486V465.5ZM545.395 464.045V463.845H545.195V464.045H545.395ZM548.304 464.045H548.504V463.845H548.304V464.045ZM548.304 465.5V465.7H548.504V465.5H548.304ZM545.395 465.5H545.195V465.7H545.395V465.5ZM548.304 458.227V458.027H548.104V458.227H548.304ZM549.759 458.227H549.959V458.027H549.759V458.227ZM549.759 464.045V464.245H549.959V464.045H549.759ZM548.304 464.045H548.104V464.245H548.304V464.045ZM545.395 456.773V456.573H545.195V456.773H545.395ZM548.304 456.773H548.504V456.573H548.304V456.773ZM548.304 458.227V458.427H548.504V458.227H548.304ZM545.395 458.227H545.195V458.427H545.395V458.227ZM542.486 453.864V454.064H543.94V453.864V453.664H542.486V453.864ZM543.94 453.864H543.74V458.227H543.94H544.14V453.864H543.94ZM543.94 458.227V458.427H545.395V458.227V458.027H543.94V458.227ZM545.395 458.227H545.195V459.682H545.395H545.595V458.227H545.395ZM545.395 459.682V459.482H543.94V459.682V459.882H545.395V459.682ZM543.94 459.682H543.74V462.591H543.94H544.14V459.682H543.94ZM543.94 462.591V462.791H545.395V462.591V462.391H543.94V462.591ZM545.395 462.591H545.195V464.045H545.395H545.595V462.591H545.395ZM545.395 464.045V463.845H543.94V464.045V464.245H545.395V464.045ZM543.94 464.045H543.74V465.5H543.94H544.14V464.045H543.94ZM543.94 465.5V465.3H542.486V465.5V465.7H543.94V465.5ZM542.486 465.5H542.686V453.864H542.486H542.286V465.5H542.486ZM545.395 464.045V464.245H548.304V464.045V463.845H545.395V464.045ZM548.304 464.045H548.104V465.5H548.304H548.504V464.045H548.304ZM548.304 465.5V465.3H545.395V465.5V465.7H548.304V465.5ZM545.395 465.5H545.595V464.045H545.395H545.195V465.5H545.395ZM548.304 458.227V458.427H549.759V458.227V458.027H548.304V458.227ZM549.759 458.227H549.559V464.045H549.759H549.959V458.227H549.759ZM549.759 464.045V463.845H548.304V464.045V464.245H549.759V464.045ZM548.304 464.045H548.504V458.227H548.304H548.104V464.045H548.304ZM545.395 456.773V456.973H548.304V456.773V456.573H545.395V456.773ZM548.304 456.773H548.104V458.227H548.304H548.504V456.773H548.304ZM548.304 458.227V458.027H545.395V458.227V458.427H548.304V458.227ZM545.395 458.227H545.595V456.773H545.395H545.195V458.227H545.395ZM568.679 459.682H568.879V459.482H568.679V459.682ZM568.679 461.136V461.336H568.879V461.136H568.679ZM564.315 461.136H564.115V461.336H564.315V461.136ZM564.315 459.682V459.482H564.115V459.682H564.315ZM568.679 459.682H568.479V461.136H568.679H568.879V459.682H568.679ZM568.679 461.136V460.936H564.315V461.136V461.336H568.679V461.136ZM564.315 461.136H564.515V459.682H564.315H564.115V461.136H564.315ZM564.315 459.682V459.882H568.679V459.682V459.482H564.315V459.682ZM583.236 462.591V462.391H583.036V462.591H583.236ZM584.69 462.591H584.89V462.391H584.69V462.591ZM584.69 464.045H584.49V464.245H584.69V464.045ZM590.509 464.045H590.709V463.845H590.509V464.045ZM590.509 465.5V465.7H590.709V465.5H590.509ZM583.236 465.5H583.036V465.7H583.236V465.5ZM589.054 455.318V455.518H589.254V455.318H589.054ZM584.69 455.318H584.49V455.518H584.69V455.318ZM584.69 453.864V453.664H584.49V453.864H584.69ZM589.054 453.864H589.254V453.664H589.054V453.864ZM589.054 455.318V455.118H588.854V455.318H589.054ZM590.509 455.318H590.709V455.118H590.509V455.318ZM590.509 458.227V458.427H590.709V458.227H590.509ZM589.054 458.227H588.854V458.427H589.054V458.227ZM584.69 461.136V460.936H584.49V461.136H584.69ZM586.145 461.136H586.345V460.936H586.145V461.136ZM586.145 462.591V462.791H586.345V462.591H586.145ZM584.69 462.591H584.49V462.791H584.69V462.591ZM583.236 455.318V455.118H583.036V455.318H583.236ZM584.69 455.318H584.89V455.118H584.69V455.318ZM584.69 456.773V456.973H584.89V456.773H584.69ZM583.236 456.773H583.036V456.973H583.236V456.773ZM587.599 458.227V458.027H587.399V458.227H587.599ZM589.054 458.227H589.254V458.027H589.054V458.227ZM589.054 459.682V459.882H589.254V459.682H589.054ZM587.599 459.682H587.399V459.882H587.599V459.682ZM586.145 459.682V459.482H585.945V459.682H586.145ZM587.599 459.682H587.799V459.482H587.599V459.682ZM587.599 461.136V461.336H587.799V461.136H587.599ZM586.145 461.136H585.945V461.336H586.145V461.136ZM583.236 462.591V462.791H584.69V462.591V462.391H583.236V462.591ZM584.69 462.591H584.49V464.045H584.69H584.89V462.591H584.69ZM584.69 464.045V464.245H590.509V464.045V463.845H584.69V464.045ZM590.509 464.045H590.309V465.5H590.509H590.709V464.045H590.509ZM590.509 465.5V465.3H583.236V465.5V465.7H590.509V465.5ZM583.236 465.5H583.436V462.591H583.236H583.036V465.5H583.236ZM589.054 455.318V455.118H584.69V455.318V455.518H589.054V455.318ZM584.69 455.318H584.89V453.864H584.69H584.49V455.318H584.69ZM584.69 453.864V454.064H589.054V453.864V453.664H584.69V453.864ZM589.054 453.864H588.854V455.318H589.054H589.254V453.864H589.054ZM589.054 455.318V455.518H590.509V455.318V455.118H589.054V455.318ZM590.509 455.318H590.309V458.227H590.509H590.709V455.318H590.509ZM590.509 458.227V458.027H589.054V458.227V458.427H590.509V458.227ZM589.054 458.227H589.254V455.318H589.054H588.854V458.227H589.054ZM584.69 461.136V461.336H586.145V461.136V460.936H584.69V461.136ZM586.145 461.136H585.945V462.591H586.145H586.345V461.136H586.145ZM586.145 462.591V462.391H584.69V462.591V462.791H586.145V462.591ZM584.69 462.591H584.89V461.136H584.69H584.49V462.591H584.69ZM583.236 455.318V455.518H584.69V455.318V455.118H583.236V455.318ZM584.69 455.318H584.49V456.773H584.69H584.89V455.318H584.69ZM584.69 456.773V456.573H583.236V456.773V456.973H584.69V456.773ZM583.236 456.773H583.436V455.318H583.236H583.036V456.773H583.236ZM587.599 458.227V458.427H589.054V458.227V458.027H587.599V458.227ZM589.054 458.227H588.854V459.682H589.054H589.254V458.227H589.054ZM589.054 459.682V459.482H587.599V459.682V459.882H589.054V459.682ZM587.599 459.682H587.799V458.227H587.599H587.399V459.682H587.599ZM586.145 459.682V459.882H587.599V459.682V459.482H586.145V459.682ZM587.599 459.682H587.399V461.136H587.599H587.799V459.682H587.599ZM587.599 461.136V460.936H586.145V461.136V461.336H587.599V461.136ZM586.145 461.136H586.345V459.682H586.145H585.945V461.136H586.145ZM596.332 462.591V462.391H596.132V462.591H596.332ZM597.787 462.591H597.987V462.391H597.787V462.591ZM597.787 465.5V465.7H597.987V465.5H597.787ZM596.332 465.5H596.132V465.7H596.332V465.5ZM596.332 456.773V456.573H596.132V456.773H596.332ZM597.787 456.773H597.987V456.573H597.787V456.773ZM597.787 459.682V459.882H597.987V459.682H597.787ZM596.332 459.682H596.132V459.882H596.332V459.682ZM596.332 462.591V462.791H597.787V462.591V462.391H596.332V462.591ZM597.787 462.591H597.587V465.5H597.787H597.987V462.591H597.787ZM597.787 465.5V465.3H596.332V465.5V465.7H597.787V465.5ZM596.332 465.5H596.532V462.591H596.332H596.132V465.5H596.332ZM596.332 456.773V456.973H597.787V456.773V456.573H596.332V456.773ZM597.787 456.773H597.587V459.682H597.787H597.987V456.773H597.787ZM597.787 459.682V459.482H596.332V459.682V459.882H597.787V459.682ZM596.332 459.682H596.532V456.773H596.332H596.132V459.682H596.332ZM606.52 456.773H606.72V456.573H606.52V456.773ZM603.611 456.773H603.411V456.973H603.611V456.773ZM603.611 455.318V455.118H603.411V455.318H603.611ZM606.52 455.318V455.518H606.72V455.318H606.52ZM606.52 453.864V453.664H606.32V453.864H606.52ZM607.974 453.864H608.174V453.664H607.974V453.864ZM607.974 464.045H607.774V464.245H607.974V464.045ZM610.884 464.045H611.084V463.845H610.884V464.045ZM610.884 465.5V465.7H611.084V465.5H610.884ZM603.611 465.5H603.411V465.7H603.611V465.5ZM603.611 464.045V463.845H603.411V464.045H603.611ZM606.52 464.045V464.245H606.72V464.045H606.52ZM606.52 456.773V456.573H603.611V456.773V456.973H606.52V456.773ZM603.611 456.773H603.811V455.318H603.611H603.411V456.773H603.611ZM603.611 455.318V455.518H606.52V455.318V455.118H603.611V455.318ZM606.52 455.318H606.72V453.864H606.52H606.32V455.318H606.52ZM606.52 453.864V454.064H607.974V453.864V453.664H606.52V453.864ZM607.974 453.864H607.774V464.045H607.974H608.174V453.864H607.974ZM607.974 464.045V464.245H610.884V464.045V463.845H607.974V464.045ZM610.884 464.045H610.684V465.5H610.884H611.084V464.045H610.884ZM610.884 465.5V465.3H603.611V465.5V465.7H610.884V465.5ZM603.611 465.5H603.811V464.045H603.611H603.411V465.5H603.611ZM603.611 464.045V464.245H606.52V464.045V463.845H603.611V464.045ZM606.52 464.045H606.72V456.773H606.52H606.32V464.045H606.52Z" fill="#F3B23F" mask="url(#path-151-outside-4_104_6622)"/>
<rect width="14" height="1" transform="matrix(-0.707107 0.707107 0.707107 0.707107 791.472 469.009)" fill="#F3B23F"/>
<path d="M780.512 480.676L785.225 479.025L782.163 475.963L780.512 480.676Z" fill="#F3B23F"/>
<path d="M803.043 459.727H806.679V460.636H803.952V463.364H806.679V465.182H805.77V464.273H803.952V467H803.043V459.727ZM806.679 460.636H807.588V463.364H806.679V460.636ZM806.679 465.182H807.588V467H806.679V465.182Z" fill="#F3B23F"/>
<path d="M812.77 459.727H814.588V467H813.679V465.182H810.043V462.455H810.952V464.273H813.679V460.636H812.77V459.727ZM811.861 460.636H812.77V461.545H811.861V460.636ZM810.952 461.545H811.861V462.455H810.952V461.545ZM816.41 460.636H817.319V463.364H818.228V464.273H817.319V466.091H816.41V460.636ZM817.319 466.091H820.046V467H817.319V466.091ZM817.319 459.727H820.046V460.636H817.319V459.727ZM820.046 460.636H820.956V466.091H820.046V462.455H819.137V461.545H820.046V460.636ZM818.228 462.455H819.137V463.364H818.228V462.455Z" fill="#F3B23F"/>
<path d="M823.41 461.545H824.319V462.455H825.228V463.364H824.319V465.182H825.228V466.091H824.319V468.818H823.41V461.545ZM825.228 461.545H827.046V462.455H825.228V461.545ZM827.046 462.455H827.956V466.091H827.046V462.455ZM825.228 466.091H827.046V467H825.228V466.091ZM829.777 461.545H830.686V462.455H829.777V461.545ZM833.414 461.545H834.323V462.455H833.414V461.545ZM829.777 465.182H830.686V467H829.777V465.182ZM832.505 462.455H833.414V463.364H832.505V462.455ZM830.686 462.455H831.595V463.364H830.686V462.455ZM831.595 463.364H832.505V464.273H831.595V463.364ZM830.686 464.273H831.595V465.182H830.686V464.273ZM832.505 464.273H833.414V465.182H832.505V464.273ZM833.414 465.182H834.323V467H833.414V465.182Z" fill="#F3B23F"/>
<rect width="44" height="1" transform="translate(791.501 469)" fill="#F3B23F"/>
</g>
<defs>
<clipPath id="clip0_104_6622">
<rect x="1247" y="716.32" width="120" height="40" rx="20" fill="white"/>
</clipPath>
</defs>
</svg>
