<svg width="366" height="946" viewBox="0 0 366 946" fill="none" xmlns="http://www.w3.org/2000/svg">
<rect x="41" y="68.1836" width="386.201" height="842" stroke="#F3B23F" stroke-width="2"/>
<rect x="56.7444" y="187.727" width="354.712" height="462.712" rx="5.15027" stroke="#F3B23F" stroke-width="1.28757"/>
<g clip-path="url(#clip0_104_6644)">
<rect x="173.625" y="677.802" width="48.75" height="38.75" rx="19.375" stroke="#F3B23F" stroke-width="1.25"/>
<path d="M184.751 701.782V694.291H185.659V698.007H185.746L189.112 694.291H190.297L187.151 697.671L190.297 701.782H189.199L186.595 698.3L185.659 699.353V701.782H184.751ZM191.806 701.782V694.291H196.327V695.096H192.713V697.627H196.093V698.432H192.713V700.977H196.385V701.782H191.806ZM203.418 696.632C203.337 696.386 203.231 696.165 203.099 695.97C202.97 695.772 202.815 695.604 202.635 695.465C202.457 695.326 202.254 695.22 202.028 695.147C201.801 695.074 201.552 695.037 201.281 695.037C200.838 695.037 200.434 695.152 200.071 695.381C199.707 695.61 199.418 695.948 199.204 696.394C198.989 696.84 198.882 697.388 198.882 698.037C198.882 698.685 198.99 699.233 199.207 699.679C199.425 700.125 199.718 700.463 200.089 700.692C200.46 700.921 200.877 701.036 201.34 701.036C201.769 701.036 202.147 700.945 202.474 700.762C202.803 700.576 203.059 700.315 203.242 699.979C203.427 699.64 203.52 699.241 203.52 698.783L203.798 698.841H201.545V698.037H204.398V698.841C204.398 699.458 204.266 699.995 204.003 700.451C203.742 700.907 203.381 701.26 202.92 701.512C202.462 701.76 201.935 701.885 201.34 701.885C200.677 701.885 200.094 701.729 199.592 701.416C199.092 701.104 198.701 700.66 198.421 700.085C198.143 699.509 198.004 698.827 198.004 698.037C198.004 697.444 198.083 696.911 198.242 696.438C198.403 695.963 198.63 695.558 198.922 695.224C199.215 694.89 199.561 694.634 199.961 694.456C200.361 694.278 200.801 694.189 201.281 694.189C201.677 694.189 202.045 694.248 202.386 694.368C202.73 694.485 203.036 694.652 203.304 694.869C203.575 695.083 203.801 695.341 203.981 695.641C204.161 695.938 204.286 696.269 204.354 696.632H203.418ZM208.788 694.291V701.782H207.881V695.242H207.837L206.008 696.456V695.535L207.881 694.291H208.788Z" fill="#F3B23F"/>
</g>
<rect x="173.625" y="677.802" width="118.75" height="38.75" rx="19.375" stroke="#F3B23F" stroke-width="1.25"/>
<rect x="56.625" y="807.599" width="38.75" height="38.75" rx="3.375" stroke="#F3B23F" stroke-width="1.25"/>
<rect x="200.726" y="793.809" width="66.75" height="66.75" rx="33.375" stroke="#F3B23F" stroke-width="1.25"/>
<rect x="204.476" y="797.559" width="59.25" height="59.25" rx="29.625" stroke="#F3B23F" stroke-width="0.75"/>
<path d="M174.45 661.206H175.541V664.479H176.632V665.57H175.541V667.752H176.632V668.843H175.541V669.934H174.45V661.206ZM176.632 668.843H178.814V669.934H176.632V668.843ZM178.814 664.479H179.905V668.843H178.814V664.479ZM176.632 663.388H178.814V664.479H176.632V663.388Z" fill="#F3B23F"/>
<path d="M173.359 671.461H180.996V672.115H173.359V671.461Z" fill="#F3B23F"/>
<path d="M58.5412 793.388H61.8139V794.479H58.5412V793.388ZM57.4503 794.479H58.5412V798.843H57.4503V794.479ZM58.5412 798.843H61.8139V799.934H58.5412V798.843ZM61.8139 794.479H62.9048V795.57H61.8139V794.479ZM61.8139 797.752H62.9048V798.843H61.8139V797.752Z" fill="#F3B23F"/>
<path d="M56.3594 801.461H63.9957V802.115H56.3594V801.461Z" fill="#F3B23F"/>
<rect x="199.5" y="927.184" width="1" height="17" fill="#F3B23F"/>
<rect x="267.5" y="927.184" width="1" height="17" fill="#F3B23F"/>
<circle cx="221.273" cy="933.678" r="2.7" transform="rotate(45 221.273 933.678)" stroke="#F3B23F" stroke-width="0.6"/>
<line x1="218.438" y1="936.498" x2="224.093" y2="930.843" stroke="#F3B23F" stroke-width="0.6"/>
<path d="M229.017 930.865H231.199V931.593H229.017V930.865ZM228.29 931.593H229.017V933.047H231.199V933.775H229.017V935.956H228.29V931.593ZM231.199 933.775H231.926V935.956H231.199V933.775ZM229.017 935.956H231.199V936.684H229.017V935.956ZM231.199 931.593H231.926V932.32H231.199V931.593ZM233.384 931.593H234.111V933.047H233.384V931.593ZM236.293 931.593H234.111V930.865H236.293V931.593ZM236.293 931.593H237.02V933.047H236.293V931.593ZM234.111 933.047H236.293V933.775H234.111V933.047ZM236.293 933.775H237.02V935.956H236.293V933.775ZM233.384 933.775H234.111V935.956H233.384V933.775ZM236.293 935.956V936.684H234.111V935.956H236.293Z" fill="#F3B23F"/>
<path d="M239.477 932.32H240.205V933.047H240.932V933.775H240.205V935.229H240.932V935.956H240.205V938.138H239.477V932.32ZM240.932 932.32H242.386V933.047H240.932V932.32ZM242.386 933.047H243.114V935.956H242.386V933.047ZM240.932 935.956H242.386V936.684H240.932V935.956ZM244.571 932.32H245.298V933.047H244.571V932.32ZM247.48 932.32H248.207V933.047H247.48V932.32ZM244.571 935.229H245.298V936.684H244.571V935.229ZM246.753 933.047H247.48V933.775H246.753V933.047ZM245.298 933.047H246.026V933.775H245.298V933.047ZM246.026 933.775H246.753V934.502H246.026V933.775ZM245.298 934.502H246.026V935.229H245.298V934.502ZM246.753 934.502H247.48V935.229H246.753V934.502ZM247.48 935.229H248.207V936.684H247.48V935.229Z" fill="#F3B23F"/>
<rect x="202.475" y="937.502" width="1" height="8" transform="rotate(45 202.475 937.502)" fill="#F3B23F"/>
<rect width="67" height="1" transform="translate(200.5 940.184)" fill="#F3B23F"/>
<rect x="270.475" y="937.502" width="1" height="8" transform="rotate(45 270.475 937.502)" fill="#F3B23F"/>
<rect x="55.5" y="927.184" width="1" height="17" fill="#F3B23F"/>
<rect x="95.5" y="927.184" width="1" height="17" fill="#F3B23F"/>
<path d="M68.2216 930.865H69.6761V936.684H68.9489V935.229H66.0398V933.047H66.767V934.502H68.9489V931.593H68.2216V930.865ZM67.4943 931.593H68.2216V932.32H67.4943V931.593ZM66.767 932.32H67.4943V933.047H66.767V932.32ZM71.1335 931.593H71.8608V933.775H72.5881V934.502H71.8608V935.956H71.1335V931.593ZM71.8608 935.956H74.0426V936.684H71.8608V935.956ZM71.8608 930.865H74.0426V931.593H71.8608V930.865ZM74.0426 931.593H74.7699V935.956H74.0426V933.047H73.3153V932.32H74.0426V931.593ZM72.5881 933.047H73.3153V933.775H72.5881V933.047Z" fill="#F3B23F"/>
<path d="M77.2273 932.32H77.9545V933.047H78.6818V933.775H77.9545V935.229H78.6818V935.956H77.9545V938.138H77.2273V932.32ZM78.6818 932.32H80.1364V933.047H78.6818V932.32ZM80.1364 933.047H80.8636V935.956H80.1364V933.047ZM78.6818 935.956H80.1364V936.684H78.6818V935.956ZM82.321 932.32H83.0483V933.047H82.321V932.32ZM85.2301 932.32H85.9574V933.047H85.2301V932.32ZM82.321 935.229H83.0483V936.684H82.321V935.229ZM84.5028 933.047H85.2301V933.775H84.5028V933.047ZM83.0483 933.047H83.7756V933.775H83.0483V933.047ZM83.7756 933.775H84.5028V934.502H83.7756V933.775ZM83.0483 934.502H83.7756V935.229H83.0483V934.502ZM84.5028 934.502H85.2301V935.229H84.5028V934.502ZM85.2301 935.229H85.9574V936.684H85.2301V935.229Z" fill="#F3B23F"/>
<rect x="58.4746" y="937.502" width="1" height="8" transform="rotate(45 58.4746 937.502)" fill="#F3B23F"/>
<rect width="39" height="1" transform="translate(56.5 940.184)" fill="#F3B23F"/>
<rect x="98.4746" y="937.502" width="1" height="8" transform="rotate(45 98.4746 937.502)" fill="#F3B23F"/>
<rect x="39.5" y="927.184" width="1" height="17" fill="#F3B23F"/>
<rect x="55.5" y="927.184" width="1" height="17" fill="#F3B23F"/>
<path d="M44.9943 932.32H43.5398V931.593H44.9943V930.865H45.7216V935.956H47.1761V936.684H43.5398V935.956H44.9943V932.32ZM49.3608 930.865H51.5426V931.593H49.3608V930.865ZM48.6335 931.593H49.3608V933.047H51.5426V933.775H49.3608V935.956H48.6335V931.593ZM51.5426 933.775H52.2699V935.956H51.5426V933.775ZM49.3608 935.956H51.5426V936.684H49.3608V935.956ZM51.5426 931.593H52.2699V932.32H51.5426V931.593Z" fill="#F3B23F"/>
<rect x="42.4746" y="937.502" width="1" height="8" transform="rotate(45 42.4746 937.502)" fill="#F3B23F"/>
<rect width="15" height="1" transform="translate(40.5 940.184)" fill="#F3B23F"/>
<rect x="58.4746" y="937.502" width="1" height="8" transform="rotate(45 58.4746 937.502)" fill="#F3B23F"/>
<rect x="95.5" y="927.184" width="1" height="17" fill="#F3B23F"/>
<rect x="199.5" y="927.184" width="1" height="17" fill="#F3B23F"/>
<path d="M136.901 932.32H135.446V931.593H136.901V930.865H137.628V935.956H139.082V936.684H135.446V935.956H136.901V932.32ZM140.54 931.593H141.267V933.775H141.994V934.502H141.267V935.956H140.54V931.593ZM141.267 935.956H143.449V936.684H141.267V935.956ZM141.267 930.865H143.449V931.593H141.267V930.865ZM143.449 931.593H144.176V935.956H143.449V933.047H142.722V932.32H143.449V931.593ZM141.994 933.047H142.722V933.775H141.994V933.047ZM147.815 930.865H149.27V936.684H148.543V935.229H145.634V933.047H146.361V934.502H148.543V931.593H147.815V930.865ZM147.088 931.593H147.815V932.32H147.088V931.593ZM146.361 932.32H147.088V933.047H146.361V932.32Z" fill="#F3B23F"/>
<path d="M151.727 932.32H152.455V933.047H153.182V933.775H152.455V935.229H153.182V935.956H152.455V938.138H151.727V932.32ZM153.182 932.32H154.636V933.047H153.182V932.32ZM154.636 933.047H155.364V935.956H154.636V933.047ZM153.182 935.956H154.636V936.684H153.182V935.956ZM156.821 932.32H157.548V933.047H156.821V932.32ZM159.73 932.32H160.457V933.047H159.73V932.32ZM156.821 935.229H157.548V936.684H156.821V935.229ZM159.003 933.047H159.73V933.775H159.003V933.047ZM157.548 933.047H158.276V933.775H157.548V933.047ZM158.276 933.775H159.003V934.502H158.276V933.775ZM157.548 934.502H158.276V935.229H157.548V934.502ZM159.003 934.502H159.73V935.229H159.003V934.502ZM159.73 935.229H160.457V936.684H159.73V935.229Z" fill="#F3B23F"/>
<rect x="98.4746" y="937.502" width="1" height="8" transform="rotate(45 98.4746 937.502)" fill="#F3B23F"/>
<rect width="103" height="1" transform="translate(96.5 940.184)" fill="#F3B23F"/>
<rect x="202.475" y="937.502" width="1" height="8" transform="rotate(45 202.475 937.502)" fill="#F3B23F"/>
<rect x="267.5" y="927.184" width="1" height="17" fill="#F3B23F"/>
<path d="M308.901 932.32H307.446V931.593H308.901V930.865H309.628V935.956H311.082V936.684H307.446V935.956H308.901V932.32ZM312.54 931.593H313.267V933.775H313.994V934.502H313.267V935.956H312.54V931.593ZM313.267 935.956H315.449V936.684H313.267V935.956ZM313.267 930.865H315.449V931.593H313.267V930.865ZM315.449 931.593H316.176V935.956H315.449V933.047H314.722V932.32H315.449V931.593ZM313.994 933.047H314.722V933.775H313.994V933.047ZM319.815 930.865H321.27V936.684H320.543V935.229H317.634V933.047H318.361V934.502H320.543V931.593H319.815V930.865ZM319.088 931.593H319.815V932.32H319.088V931.593ZM318.361 932.32H319.088V933.047H318.361V932.32Z" fill="#F3B23F"/>
<path d="M323.727 932.32H324.455V933.047H325.182V933.775H324.455V935.229H325.182V935.956H324.455V938.138H323.727V932.32ZM325.182 932.32H326.636V933.047H325.182V932.32ZM326.636 933.047H327.364V935.956H326.636V933.047ZM325.182 935.956H326.636V936.684H325.182V935.956ZM328.821 932.32H329.548V933.047H328.821V932.32ZM331.73 932.32H332.457V933.047H331.73V932.32ZM328.821 935.229H329.548V936.684H328.821V935.229ZM331.003 933.047H331.73V933.775H331.003V933.047ZM329.548 933.047H330.276V933.775H329.548V933.047ZM330.276 933.775H331.003V934.502H330.276V933.775ZM329.548 934.502H330.276V935.229H329.548V934.502ZM331.003 934.502H331.73V935.229H331.003V934.502ZM331.73 935.229H332.457V936.684H331.73V935.229Z" fill="#F3B23F"/>
<rect x="270.475" y="937.502" width="1" height="8" transform="rotate(45 270.475 937.502)" fill="#F3B23F"/>
<rect width="103" height="1" transform="translate(268.5 940.184)" fill="#F3B23F"/>
<path d="M2.68182 834.962L2.68182 833.507L8.5 833.507L8.5 834.235L7.04545 834.235L7.04545 837.144L4.86364 837.144L4.86364 836.417L6.31818 836.417L6.31818 834.235L3.40909 834.235L3.40909 834.962L2.68182 834.962ZM3.40909 835.689L3.40909 834.962L4.13636 834.962L4.13636 835.689L3.40909 835.689ZM4.13636 836.417L4.13636 835.689L4.86364 835.689L4.86364 836.417L4.13636 836.417ZM3.40909 832.05L3.40909 831.323L5.59091 831.323L5.59091 830.596L6.31818 830.596L6.31818 831.323L7.77273 831.323L7.77273 832.05L3.40909 832.05ZM7.77273 831.323L7.77273 829.141L8.5 829.141L8.5 831.323L7.77273 831.323ZM2.68182 831.323L2.68182 829.141L3.40909 829.141L3.40909 831.323L2.68182 831.323ZM3.40909 829.141L3.40909 828.414L7.77273 828.414L7.77273 829.141L4.86364 829.141L4.86364 829.868L4.13636 829.868L4.13636 829.141L3.40909 829.141ZM4.86364 830.596L4.86364 829.868L5.59091 829.868L5.59091 830.596L4.86364 830.596Z" fill="#F3B23F"/>
<path d="M4.13636 825.956L4.13636 825.229L4.86364 825.229L4.86364 824.502L5.59091 824.502L5.59091 825.229L7.04545 825.229L7.04545 824.502L7.77273 824.502L7.77273 825.229L9.95455 825.229L9.95455 825.956L4.13636 825.956ZM4.13636 824.502L4.13636 823.047L4.86364 823.047L4.86364 824.502L4.13636 824.502ZM4.86364 823.047L4.86364 822.32L7.77273 822.32L7.77273 823.047L4.86364 823.047ZM7.77273 824.502L7.77273 823.047L8.5 823.047L8.5 824.502L7.77273 824.502ZM4.13636 820.863L4.13636 820.135L4.86364 820.135L4.86364 820.863L4.13636 820.863ZM4.13636 817.953L4.13636 817.226L4.86364 817.226L4.86364 817.953L4.13636 817.953ZM7.04545 820.863L7.04545 820.135L8.5 820.135L8.5 820.863L7.04545 820.863ZM4.86364 818.681L4.86364 817.953L5.59091 817.953L5.59091 818.681L4.86364 818.681ZM4.86364 820.135L4.86364 819.408L5.59091 819.408L5.59091 820.135L4.86364 820.135ZM5.59091 819.408L5.59091 818.681L6.31818 818.681L6.31818 819.408L5.59091 819.408ZM6.31818 820.135L6.31818 819.408L7.04545 819.408L7.04545 820.135L6.31818 820.135ZM6.31818 818.681L6.31818 817.953L7.04545 817.953L7.04545 818.681L6.31818 818.681ZM7.04545 817.953L7.04545 817.226L8.5 817.226L8.5 817.953L7.04545 817.953Z" fill="#F3B23F"/>
<rect x="9.31836" y="844.709" width="1" height="8" transform="rotate(-45 9.31836 844.709)" fill="#F3B23F"/>
<rect width="39" height="1" transform="translate(12 846.684) rotate(-90)" fill="#F3B23F"/>
<rect x="9.31836" y="804.709" width="1" height="8" transform="rotate(-45 9.31836 804.709)" fill="#F3B23F"/>
<rect x="9" y="847.684" width="1" height="15" transform="rotate(-90 9 847.684)" fill="#F3B23F"/>
<rect x="9" y="807.684" width="1" height="15" transform="rotate(-90 9 807.684)" fill="#F3B23F"/>
<path d="M2.68182 888.417L2.68182 886.235L3.40909 886.235L3.40909 888.417L2.68182 888.417ZM3.40909 889.144L3.40909 888.417L4.86364 888.417L4.86364 886.235L5.59091 886.235L5.59091 888.417L7.77273 888.417L7.77273 889.144L3.40909 889.144ZM5.59091 886.235L5.59091 885.507L7.77273 885.507L7.77273 886.235L5.59091 886.235ZM7.77273 888.417L7.77273 886.235L8.5 886.235L8.5 888.417L7.77273 888.417ZM3.40909 886.235L3.40909 885.507L4.13636 885.507L4.13636 886.235L3.40909 886.235ZM2.68182 881.868L2.68182 880.414L8.5 880.414L8.5 881.141L7.04545 881.141L7.04545 884.05L4.86364 884.05L4.86364 883.323L6.31818 883.323L6.31818 881.141L3.40909 881.141L3.40909 881.868L2.68182 881.868ZM3.40909 882.596L3.40909 881.868L4.13636 881.868L4.13636 882.596L3.40909 882.596ZM4.13636 883.323L4.13636 882.596L4.86364 882.596L4.86364 883.323L4.13636 883.323Z" fill="#F3B23F"/>
<path d="M4.13636 877.956L4.13636 877.229L4.86364 877.229L4.86364 876.502L5.59091 876.502L5.59091 877.229L7.04545 877.229L7.04545 876.502L7.77273 876.502L7.77273 877.229L9.95455 877.229L9.95455 877.956L4.13636 877.956ZM4.13636 876.502L4.13636 875.047L4.86364 875.047L4.86364 876.502L4.13636 876.502ZM4.86364 875.047L4.86364 874.32L7.77273 874.32L7.77273 875.047L4.86364 875.047ZM7.77273 876.502L7.77273 875.047L8.5 875.047L8.5 876.502L7.77273 876.502ZM4.13636 872.863L4.13636 872.135L4.86364 872.135L4.86364 872.863L4.13636 872.863ZM4.13636 869.953L4.13636 869.226L4.86364 869.226L4.86364 869.953L4.13636 869.953ZM7.04545 872.863L7.04545 872.135L8.5 872.135L8.5 872.863L7.04545 872.863ZM4.86364 870.681L4.86364 869.953L5.59091 869.953L5.59091 870.681L4.86364 870.681ZM4.86364 872.135L4.86364 871.408L5.59091 871.408L5.59091 872.135L4.86364 872.135ZM5.59091 871.408L5.59091 870.681L6.31818 870.681L6.31818 871.408L5.59091 871.408ZM6.31818 872.135L6.31818 871.408L7.04545 871.408L7.04545 872.135L6.31818 872.135ZM6.31818 870.681L6.31818 869.953L7.04545 869.953L7.04545 870.681L6.31818 870.681ZM7.04545 869.953L7.04545 869.226L8.5 869.226L8.5 869.953L7.04545 869.953Z" fill="#F3B23F"/>
<rect x="9.31836" y="908.709" width="1" height="8" transform="rotate(-45 9.31836 908.709)" fill="#F3B23F"/>
<rect width="63" height="1" transform="translate(12 910.684) rotate(-90)" fill="#F3B23F"/>
<rect x="9.31836" y="844.709" width="1" height="8" transform="rotate(-45 9.31836 844.709)" fill="#F3B23F"/>
<rect x="9" y="911.684" width="1" height="15" transform="rotate(-90 9 911.684)" fill="#F3B23F"/>
<rect x="9" y="847.684" width="1" height="15" transform="rotate(-90 9 847.684)" fill="#F3B23F"/>
<path d="M7.77273 769.235L8.5 769.235L8.5 771.417L7.77273 771.417L7.77273 769.235ZM7.77273 771.417L7.77273 772.144L7.04545 772.144L7.04545 771.417L7.77273 771.417ZM5.59091 769.235L3.40909 769.235L3.40909 768.507L7.77273 768.507L7.77273 769.235L6.31818 769.235L6.31818 771.417L5.59091 771.417L5.59091 769.235ZM5.59091 771.417L5.59091 772.144L3.40909 772.144L3.40909 771.417L5.59091 771.417ZM2.68182 771.417L2.68182 769.235L3.40909 769.235L3.40909 771.417L2.68182 771.417ZM3.40909 767.05L3.40909 766.323L5.59091 766.323L5.59091 765.596L6.31818 765.596L6.31818 766.323L7.77273 766.323L7.77273 767.05L3.40909 767.05ZM7.77273 766.323L7.77273 764.141L8.5 764.141L8.5 766.323L7.77273 766.323ZM2.68182 766.323L2.68182 764.141L3.40909 764.141L3.40909 766.323L2.68182 766.323ZM3.40909 764.141L3.40909 763.414L7.77273 763.414L7.77273 764.141L4.86364 764.141L4.86364 764.868L4.13636 764.868L4.13636 764.141L3.40909 764.141ZM4.86364 765.596L4.86364 764.868L5.59091 764.868L5.59091 765.596L4.86364 765.596Z" fill="#F3B23F"/>
<path d="M4.13636 760.956L4.13636 760.229L4.86364 760.229L4.86364 759.502L5.59091 759.502L5.59091 760.229L7.04545 760.229L7.04545 759.502L7.77273 759.502L7.77273 760.229L9.95455 760.229L9.95455 760.956L4.13636 760.956ZM4.13636 759.502L4.13636 758.047L4.86364 758.047L4.86364 759.502L4.13636 759.502ZM4.86364 758.047L4.86364 757.32L7.77273 757.32L7.77273 758.047L4.86364 758.047ZM7.77273 759.502L7.77273 758.047L8.5 758.047L8.5 759.502L7.77273 759.502ZM4.13636 755.863L4.13636 755.135L4.86364 755.135L4.86364 755.863L4.13636 755.863ZM4.13636 752.953L4.13636 752.226L4.86364 752.226L4.86364 752.953L4.13636 752.953ZM7.04545 755.863L7.04545 755.135L8.5 755.135L8.5 755.863L7.04545 755.863ZM4.86364 753.681L4.86364 752.953L5.59091 752.953L5.59091 753.681L4.86364 753.681ZM4.86364 755.135L4.86364 754.408L5.59091 754.408L5.59091 755.135L4.86364 755.135ZM5.59091 754.408L5.59091 753.681L6.31818 753.681L6.31818 754.408L5.59091 754.408ZM6.31818 755.135L6.31818 754.408L7.04545 754.408L7.04545 755.135L6.31818 755.135ZM6.31818 753.681L6.31818 752.953L7.04545 752.953L7.04545 753.681L6.31818 753.681ZM7.04545 752.953L7.04545 752.226L8.5 752.226L8.5 752.953L7.04545 752.953Z" fill="#F3B23F"/>
<rect x="9.31836" y="804.709" width="1" height="8" transform="rotate(-45 9.31836 804.709)" fill="#F3B23F"/>
<rect width="89" height="1" transform="translate(12 806.684) rotate(-90)" fill="#F3B23F"/>
<rect x="9.31836" y="714.709" width="1" height="8" transform="rotate(-45 9.31836 714.709)" fill="#F3B23F"/>
<rect x="9" y="807.684" width="1" height="15" transform="rotate(-90 9 807.684)" fill="#F3B23F"/>
<rect x="9" y="717.684" width="1" height="15" transform="rotate(-90 9 717.684)" fill="#F3B23F"/>
<path d="M2.68182 704.963L2.68182 703.508L8.5 703.508L8.5 704.236L7.04545 704.236L7.04545 707.145L4.86364 707.145L4.86364 706.418L6.31818 706.418L6.31818 704.236L3.40909 704.236L3.40909 704.963L2.68182 704.963ZM3.40909 705.69L3.40909 704.963L4.13636 704.963L4.13636 705.69L3.40909 705.69ZM4.13636 706.418L4.13636 705.69L4.86364 705.69L4.86364 706.418L4.13636 706.418ZM3.40909 702.051L3.40909 701.324L5.59091 701.324L5.59091 700.597L6.31818 700.597L6.31818 701.324L7.77273 701.324L7.77273 702.051L3.40909 702.051ZM7.77273 701.324L7.77273 699.142L8.5 699.142L8.5 701.324L7.77273 701.324ZM2.68182 701.324L2.68182 699.142L3.40909 699.142L3.40909 701.324L2.68182 701.324ZM3.40909 699.142L3.40909 698.415L7.77273 698.415L7.77273 699.142L4.86364 699.142L4.86364 699.869L4.13636 699.869L4.13636 699.142L3.40909 699.142ZM4.86364 700.597L4.86364 699.869L5.59091 699.869L5.59091 700.597L4.86364 700.597Z" fill="#F3B23F"/>
<path d="M4.13636 695.957L4.13636 695.23L4.86364 695.23L4.86364 694.503L5.59091 694.503L5.59091 695.23L7.04545 695.23L7.04545 694.503L7.77273 694.503L7.77273 695.23L9.95455 695.23L9.95455 695.957L4.13636 695.957ZM4.13636 694.503L4.13636 693.048L4.86364 693.048L4.86364 694.503L4.13636 694.503ZM4.86364 693.048L4.86364 692.321L7.77273 692.321L7.77273 693.048L4.86364 693.048ZM7.77273 694.503L7.77273 693.048L8.5 693.048L8.5 694.503L7.77273 694.503ZM4.13636 690.864L4.13636 690.136L4.86364 690.136L4.86364 690.864L4.13636 690.864ZM4.13636 687.954L4.13636 687.227L4.86364 687.227L4.86364 687.954L4.13636 687.954ZM7.04545 690.864L7.04545 690.136L8.5 690.136L8.5 690.864L7.04545 690.864ZM4.86364 688.682L4.86364 687.954L5.59091 687.954L5.59091 688.682L4.86364 688.682ZM4.86364 690.136L4.86364 689.409L5.59091 689.409L5.59091 690.136L4.86364 690.136ZM5.59091 689.409L5.59091 688.682L6.31818 688.682L6.31818 689.409L5.59091 689.409ZM6.31818 690.136L6.31818 689.409L7.04545 689.409L7.04545 690.136L6.31818 690.136ZM6.31818 688.682L6.31818 687.954L7.04545 687.954L7.04545 688.682L6.31818 688.682ZM7.04545 687.954L7.04545 687.227L8.5 687.227L8.5 687.954L7.04545 687.954Z" fill="#F3B23F"/>
<rect x="9.31836" y="714.71" width="1" height="8" transform="rotate(-45 9.31836 714.71)" fill="#F3B23F"/>
<rect width="39" height="1" transform="translate(12 716.685) rotate(-90)" fill="#F3B23F"/>
<rect x="9.31836" y="674.71" width="1" height="8" transform="rotate(-45 9.31836 674.71)" fill="#F3B23F"/>
<rect x="9" y="717.685" width="1" height="15" transform="rotate(-90 9 717.685)" fill="#F3B23F"/>
<rect x="9" y="677.685" width="1" height="15" transform="rotate(-90 9 677.685)" fill="#F3B23F"/>
<path d="M7.04545 674.145L7.04545 673.418L7.77273 673.418L7.77273 670.508L8.5 670.508L8.5 674.145L7.04545 674.145ZM3.40909 671.236L3.40909 673.418L2.68182 673.418L2.68182 671.236L3.40909 671.236ZM3.40909 671.236L3.40909 670.508L4.86364 670.508L4.86364 671.236L3.40909 671.236ZM6.31818 673.418L6.31818 672.69L7.04545 672.69L7.04545 673.418L6.31818 673.418ZM3.40909 674.145L3.40909 673.418L4.13636 673.418L4.13636 674.145L3.40909 674.145ZM4.86364 671.963L4.86364 671.236L5.59091 671.236L5.59091 671.963L4.86364 671.963ZM5.59091 672.69L5.59091 671.963L6.31818 671.963L6.31818 672.69L5.59091 672.69ZM2.68182 668.324L2.68182 666.142L3.40909 666.142L3.40909 668.324L2.68182 668.324ZM3.40909 669.051L3.40909 668.324L4.86364 668.324L4.86364 666.142L5.59091 666.142L5.59091 668.324L7.77273 668.324L7.77273 669.051L3.40909 669.051ZM5.59091 666.142L5.59091 665.415L7.77273 665.415L7.77273 666.142L5.59091 666.142ZM7.77273 668.324L7.77273 666.142L8.5 666.142L8.5 668.324L7.77273 668.324ZM3.40909 666.142L3.40909 665.415L4.13636 665.415L4.13636 666.142L3.40909 666.142Z" fill="#F3B23F"/>
<path d="M4.13636 662.957L4.13636 662.23L4.86364 662.23L4.86364 661.503L5.59091 661.503L5.59091 662.23L7.04545 662.23L7.04545 661.503L7.77273 661.503L7.77273 662.23L9.95455 662.23L9.95455 662.957L4.13636 662.957ZM4.13636 661.503L4.13636 660.048L4.86364 660.048L4.86364 661.503L4.13636 661.503ZM4.86364 660.048L4.86364 659.321L7.77273 659.321L7.77273 660.048L4.86364 660.048ZM7.77273 661.503L7.77273 660.048L8.5 660.048L8.5 661.503L7.77273 661.503ZM4.13636 657.864L4.13636 657.136L4.86364 657.136L4.86364 657.864L4.13636 657.864ZM4.13636 654.954L4.13636 654.227L4.86364 654.227L4.86364 654.954L4.13636 654.954ZM7.04545 657.864L7.04545 657.136L8.5 657.136L8.5 657.864L7.04545 657.864ZM4.86364 655.682L4.86364 654.954L5.59091 654.954L5.59091 655.682L4.86364 655.682ZM4.86364 657.136L4.86364 656.409L5.59091 656.409L5.59091 657.136L4.86364 657.136ZM5.59091 656.409L5.59091 655.682L6.31818 655.682L6.31818 656.409L5.59091 656.409ZM6.31818 657.136L6.31818 656.409L7.04545 656.409L7.04545 657.136L6.31818 657.136ZM6.31818 655.682L6.31818 654.954L7.04545 654.954L7.04545 655.682L6.31818 655.682ZM7.04545 654.954L7.04545 654.227L8.5 654.227L8.5 654.954L7.04545 654.954Z" fill="#F3B23F"/>
<rect x="9.31836" y="674.71" width="1" height="8" transform="rotate(-45 9.31836 674.71)" fill="#F3B23F"/>
<rect width="25" height="1" transform="translate(12 676.685) rotate(-90)" fill="#F3B23F"/>
<rect x="9.31836" y="648.71" width="1" height="8" transform="rotate(-45 9.31836 648.71)" fill="#F3B23F"/>
<rect x="9" y="677.685" width="1" height="15" transform="rotate(-90 9 677.685)" fill="#F3B23F"/>
<rect x="9" y="651.685" width="1" height="15" transform="rotate(-90 9 651.685)" fill="#F3B23F"/>
<path d="M2.68182 429.455L2.68182 428.001L8.5 428.001L8.5 428.728L7.04545 428.728L7.04545 431.637L4.86364 431.637L4.86364 430.91L6.31818 430.91L6.31818 428.728L3.40909 428.728L3.40909 429.455L2.68182 429.455ZM3.40909 430.182L3.40909 429.455L4.13636 429.455L4.13636 430.182L3.40909 430.182ZM4.13636 430.91L4.13636 430.182L4.86364 430.182L4.86364 430.91L4.13636 430.91ZM2.68182 425.816L2.68182 423.634L3.40909 423.634L3.40909 425.816L2.68182 425.816ZM3.40909 426.543L3.40909 425.816L4.86364 425.816L4.86364 423.634L5.59091 423.634L5.59091 425.816L7.77273 425.816L7.77273 426.543L3.40909 426.543ZM5.59091 423.634L5.59091 422.907L7.77273 422.907L7.77273 423.634L5.59091 423.634ZM7.77273 425.816L7.77273 423.634L8.5 423.634L8.5 425.816L7.77273 425.816ZM3.40909 423.634L3.40909 422.907L4.13636 422.907L4.13636 423.634L3.40909 423.634ZM2.68182 419.268L2.68182 417.813L8.5 417.813L8.5 418.54L7.04545 418.54L7.04545 421.449L4.86364 421.449L4.86364 420.722L6.31818 420.722L6.31818 418.54L3.40909 418.54L3.40909 419.268L2.68182 419.268ZM3.40909 419.995L3.40909 419.268L4.13636 419.268L4.13636 419.995L3.40909 419.995ZM4.13636 420.722L4.13636 419.995L4.86364 419.995L4.86364 420.722L4.13636 420.722Z" fill="#F3B23F"/>
<path d="M4.13636 415.356L4.13636 414.628L4.86364 414.628L4.86364 413.901L5.59091 413.901L5.59091 414.628L7.04545 414.628L7.04545 413.901L7.77273 413.901L7.77273 414.628L9.95455 414.628L9.95455 415.356L4.13636 415.356ZM4.13636 413.901L4.13636 412.447L4.86364 412.447L4.86364 413.901L4.13636 413.901ZM4.86364 412.447L4.86364 411.719L7.77273 411.719L7.77273 412.447L4.86364 412.447ZM7.77273 413.901L7.77273 412.447L8.5 412.447L8.5 413.901L7.77273 413.901ZM4.13636 410.262L4.13636 409.535L4.86364 409.535L4.86364 410.262L4.13636 410.262ZM4.13636 407.353L4.13636 406.626L4.86364 406.626L4.86364 407.353L4.13636 407.353ZM7.04545 410.262L7.04545 409.535L8.5 409.535L8.5 410.262L7.04545 410.262ZM4.86364 408.08L4.86364 407.353L5.59091 407.353L5.59091 408.08L4.86364 408.08ZM4.86364 409.535L4.86364 408.807L5.59091 408.807L5.59091 409.535L4.86364 409.535ZM5.59091 408.807L5.59091 408.08L6.31818 408.08L6.31818 408.807L5.59091 408.807ZM6.31818 409.535L6.31818 408.807L7.04545 408.807L7.04545 409.535L6.31818 409.535ZM6.31818 408.08L6.31818 407.353L7.04545 407.353L7.04545 408.08L6.31818 408.08ZM7.04545 407.353L7.04545 406.626L8.5 406.626L8.5 407.353L7.04545 407.353Z" fill="#F3B23F"/>
<rect x="9.31836" y="648.608" width="1" height="8" transform="rotate(-45 9.31836 648.608)" fill="#F3B23F"/>
<rect width="463" height="1" transform="translate(12 650.583) rotate(-90)" fill="#F3B23F"/>
<rect x="9.31836" y="184.608" width="1" height="8" transform="rotate(-45 9.31836 184.608)" fill="#F3B23F"/>
<rect x="9" y="651.583" width="1" height="15" transform="rotate(-90 9 651.583)" fill="#F3B23F"/>
<rect x="9" y="187.583" width="1" height="15" transform="rotate(-90 9 187.583)" fill="#F3B23F"/>
<path d="M221.446 30.5927H222.173V31.32H221.446V30.5927ZM222.173 29.8654H224.355V30.5927H222.173V29.8654ZM224.355 30.5927H225.082V32.0472H224.355V30.5927ZM222.901 32.0472H224.355V32.7745H222.901V32.0472ZM224.355 32.7745H225.082V34.9563H224.355V32.7745ZM224.355 34.9563V35.6836H222.173V34.9563H224.355ZM222.173 34.9563H221.446V34.229H222.173V34.9563ZM226.54 29.8654H230.176V30.5927H227.267V32.0472H229.449V32.7745H226.54V29.8654ZM229.449 32.7745H230.176V34.9563H229.449V32.7745ZM229.449 34.9563V35.6836H227.267V34.9563H229.449ZM227.267 34.9563H226.54V34.229H227.267V34.9563ZM232.361 29.8654L234.543 29.8654V30.5927L232.361 30.5927V29.8654ZM231.634 30.5927H232.361V32.0472H234.543V32.7745H232.361V34.9563H231.634V30.5927ZM234.543 32.7745H235.27V34.9563H234.543V32.7745ZM232.361 34.9563H234.543V35.6836H232.361V34.9563ZM234.543 30.5927H235.27V31.32H234.543V30.5927Z" fill="#F3B23F"/>
<path d="M237.727 31.32H238.455V32.0472H239.182V32.7745H238.455V34.229H239.182V34.9563H238.455V37.1381H237.727V31.32ZM239.182 31.32H240.636V32.0472H239.182V31.32ZM240.636 32.0472H241.364V34.9563H240.636V32.0472ZM239.182 34.9563H240.636V35.6836H239.182V34.9563ZM242.821 31.32H243.548V32.0472H242.821V31.32ZM245.73 31.32H246.457V32.0472H245.73V31.32ZM242.821 34.229H243.548V35.6836H242.821V34.229ZM245.003 32.0472H245.73V32.7745H245.003V32.0472ZM243.548 32.0472H244.276V32.7745H243.548V32.0472ZM244.276 32.7745H245.003V33.5018H244.276V32.7745ZM243.548 33.5018H244.276V34.229H243.548V33.5018ZM245.003 33.5018H245.73V34.229H245.003V33.5018ZM245.73 34.229H246.457V35.6836H245.73V34.229Z" fill="#F3B23F"/>
<rect x="58.4746" y="36.502" width="1" height="8" transform="rotate(45 58.4746 36.502)" fill="#F3B23F"/>
<rect width="355" height="1" transform="translate(56.5 39.1836)" fill="#F3B23F"/>
<rect x="55.5" y="36.1836" width="1" height="15" fill="#F3B23F"/>
<path d="M4.13636 138.283L4.13636 139.738L3.40909 139.738L3.40909 138.283L2.68182 138.283L2.68182 137.556L7.77273 137.556L7.77273 136.101L8.5 136.101L8.5 139.738L7.77273 139.738L7.77273 138.283L4.13636 138.283ZM7.04545 134.644L7.04545 133.917L7.77273 133.917L7.77273 131.007L8.5 131.007L8.5 134.644L7.04545 134.644ZM3.40909 131.735L3.40909 133.917L2.68182 133.917L2.68182 131.735L3.40909 131.735ZM3.40909 131.735L3.40909 131.007L4.86364 131.007L4.86364 131.735L3.40909 131.735ZM6.31818 133.917L6.31818 133.189L7.04545 133.189L7.04545 133.917L6.31818 133.917ZM3.40909 134.644L3.40909 133.917L4.13636 133.917L4.13636 134.644L3.40909 134.644ZM4.86364 132.462L4.86364 131.735L5.59091 131.735L5.59091 132.462L4.86364 132.462ZM5.59091 133.189L5.59091 132.462L6.31818 132.462L6.31818 133.189L5.59091 133.189ZM3.40909 129.55L3.40909 128.823L5.59091 128.823L5.59091 128.096L6.31818 128.096L6.31818 128.823L7.77273 128.823L7.77273 129.55L3.40909 129.55ZM7.77273 128.823L7.77273 126.641L8.5 126.641L8.5 128.823L7.77273 128.823ZM2.68182 128.823L2.68182 126.641L3.40909 126.641L3.40909 128.823L2.68182 128.823ZM3.40909 126.641L3.40909 125.914L7.77273 125.914L7.77273 126.641L4.86364 126.641L4.86364 127.368L4.13636 127.368L4.13636 126.641L3.40909 126.641ZM4.86364 128.096L4.86364 127.368L5.59091 127.368L5.59091 128.096L4.86364 128.096Z" fill="#F3B23F"/>
<path d="M4.13636 123.456L4.13636 122.729L4.86364 122.729L4.86364 122.002L5.59091 122.002L5.59091 122.729L7.04545 122.729L7.04545 122.002L7.77273 122.002L7.77273 122.729L9.95455 122.729L9.95455 123.456L4.13636 123.456ZM4.13636 122.002L4.13636 120.547L4.86364 120.547L4.86364 122.002L4.13636 122.002ZM4.86364 120.547L4.86364 119.82L7.77273 119.82L7.77273 120.547L4.86364 120.547ZM7.77273 122.002L7.77273 120.547L8.5 120.547L8.5 122.002L7.77273 122.002ZM4.13636 118.363L4.13636 117.635L4.86364 117.635L4.86364 118.363L4.13636 118.363ZM4.13636 115.453L4.13636 114.726L4.86364 114.726L4.86364 115.453L4.13636 115.453ZM7.04545 118.363L7.04545 117.635L8.5 117.635L8.5 118.363L7.04545 118.363ZM4.86364 116.181L4.86364 115.453L5.59091 115.453L5.59091 116.181L4.86364 116.181ZM4.86364 117.635L4.86364 116.908L5.59091 116.908L5.59091 117.635L4.86364 117.635ZM5.59091 116.908L5.59091 116.181L6.31818 116.181L6.31818 116.908L5.59091 116.908ZM6.31818 117.635L6.31818 116.908L7.04545 116.908L7.04545 117.635L6.31818 117.635ZM6.31818 116.181L6.31818 115.453L7.04545 115.453L7.04545 116.181L6.31818 116.181ZM7.04545 115.453L7.04545 114.726L8.5 114.726L8.5 115.453L7.04545 115.453Z" fill="#F3B23F"/>
<rect x="9.31836" y="184.709" width="1" height="8" transform="rotate(-45 9.31836 184.709)" fill="#F3B23F"/>
<rect width="119" height="1" transform="translate(12 186.684) rotate(-90)" fill="#F3B23F"/>
<rect x="9.31836" y="64.709" width="1" height="8" transform="rotate(-45 9.31836 64.709)" fill="#F3B23F"/>
<rect x="9" y="187.684" width="1" height="15" transform="rotate(-90 9 187.684)" fill="#F3B23F"/>
<rect x="9" y="67.6836" width="1" height="15" transform="rotate(-90 9 67.6836)" fill="#F3B23F"/>
<mask id="path-87-outside-1_104_6644" maskUnits="userSpaceOnUse" x="1" y="-0.143555" width="29" height="13" fill="black">
<rect fill="white" x="1" y="-0.143555" width="29" height="13"/>
<path d="M4.80114 3.12917H1.89205V1.67463H4.80114V0.220081H6.25568V10.4019H9.16477V11.8564H1.89205V10.4019H4.80114V3.12917ZM14.9886 8.94735H16.4432V11.8564H14.9886V8.94735ZM14.9886 3.12917H16.4432V6.03826H14.9886V3.12917ZM25.1761 3.12917H22.267V1.67463H25.1761V0.220081H26.6307V10.4019H29.5398V11.8564H22.267V10.4019H25.1761V3.12917Z"/>
</mask>
<path d="M4.80114 3.12917H1.89205V1.67463H4.80114V0.220081H6.25568V10.4019H9.16477V11.8564H1.89205V10.4019H4.80114V3.12917ZM14.9886 8.94735H16.4432V11.8564H14.9886V8.94735ZM14.9886 3.12917H16.4432V6.03826H14.9886V3.12917ZM25.1761 3.12917H22.267V1.67463H25.1761V0.220081H26.6307V10.4019H29.5398V11.8564H22.267V10.4019H25.1761V3.12917Z" fill="#F3B23F"/>
<path d="M4.80114 3.12917H5.02114V2.90917H4.80114V3.12917ZM1.89205 3.12917H1.67205V3.34917H1.89205V3.12917ZM1.89205 1.67463V1.45463H1.67205V1.67463H1.89205ZM4.80114 1.67463V1.89463H5.02114V1.67463H4.80114ZM4.80114 0.220081V8.13007e-05H4.58114V0.220081H4.80114ZM6.25568 0.220081H6.47568V8.13007e-05H6.25568V0.220081ZM6.25568 10.4019H6.03568V10.6219H6.25568V10.4019ZM9.16477 10.4019H9.38477V10.1819H9.16477V10.4019ZM9.16477 11.8564V12.0764H9.38477V11.8564H9.16477ZM1.89205 11.8564H1.67205V12.0764H1.89205V11.8564ZM1.89205 10.4019V10.1819H1.67205V10.4019H1.89205ZM4.80114 10.4019V10.6219H5.02114V10.4019H4.80114ZM4.80114 3.12917V2.90917H1.89205V3.12917V3.34917H4.80114V3.12917ZM1.89205 3.12917H2.11205V1.67463H1.89205H1.67205V3.12917H1.89205ZM1.89205 1.67463V1.89463H4.80114V1.67463V1.45463H1.89205V1.67463ZM4.80114 1.67463H5.02114V0.220081H4.80114H4.58114V1.67463H4.80114ZM4.80114 0.220081V0.440081H6.25568V0.220081V8.13007e-05H4.80114V0.220081ZM6.25568 0.220081H6.03568V10.4019H6.25568H6.47568V0.220081H6.25568ZM6.25568 10.4019V10.6219H9.16477V10.4019V10.1819H6.25568V10.4019ZM9.16477 10.4019H8.94477V11.8564H9.16477H9.38477V10.4019H9.16477ZM9.16477 11.8564V11.6364H1.89205V11.8564V12.0764H9.16477V11.8564ZM1.89205 11.8564H2.11205V10.4019H1.89205H1.67205V11.8564H1.89205ZM1.89205 10.4019V10.6219H4.80114V10.4019V10.1819H1.89205V10.4019ZM4.80114 10.4019H5.02114V3.12917H4.80114H4.58114V10.4019H4.80114ZM14.9886 8.94735V8.72735H14.7686V8.94735H14.9886ZM16.4432 8.94735H16.6632V8.72735H16.4432V8.94735ZM16.4432 11.8564V12.0764H16.6632V11.8564H16.4432ZM14.9886 11.8564H14.7686V12.0764H14.9886V11.8564ZM14.9886 3.12917V2.90917H14.7686V3.12917H14.9886ZM16.4432 3.12917H16.6632V2.90917H16.4432V3.12917ZM16.4432 6.03826V6.25826H16.6632V6.03826H16.4432ZM14.9886 6.03826H14.7686V6.25826H14.9886V6.03826ZM14.9886 8.94735V9.16735H16.4432V8.94735V8.72735H14.9886V8.94735ZM16.4432 8.94735H16.2232V11.8564H16.4432H16.6632V8.94735H16.4432ZM16.4432 11.8564V11.6364H14.9886V11.8564V12.0764H16.4432V11.8564ZM14.9886 11.8564H15.2086V8.94735H14.9886H14.7686V11.8564H14.9886ZM14.9886 3.12917V3.34917H16.4432V3.12917V2.90917H14.9886V3.12917ZM16.4432 3.12917H16.2232V6.03826H16.4432H16.6632V3.12917H16.4432ZM16.4432 6.03826V5.81826H14.9886V6.03826V6.25826H16.4432V6.03826ZM14.9886 6.03826H15.2086V3.12917H14.9886H14.7686V6.03826H14.9886ZM25.1761 3.12917H25.3961V2.90917H25.1761V3.12917ZM22.267 3.12917H22.047V3.34917H22.267V3.12917ZM22.267 1.67463V1.45463H22.047V1.67463H22.267ZM25.1761 1.67463V1.89463H25.3961V1.67463H25.1761ZM25.1761 0.220081V8.13007e-05H24.9561V0.220081H25.1761ZM26.6307 0.220081H26.8507V8.13007e-05H26.6307V0.220081ZM26.6307 10.4019H26.4107V10.6219H26.6307V10.4019ZM29.5398 10.4019H29.7598V10.1819H29.5398V10.4019ZM29.5398 11.8564V12.0764H29.7598V11.8564H29.5398ZM22.267 11.8564H22.047V12.0764H22.267V11.8564ZM22.267 10.4019V10.1819H22.047V10.4019H22.267ZM25.1761 10.4019V10.6219H25.3961V10.4019H25.1761ZM25.1761 3.12917V2.90917H22.267V3.12917V3.34917H25.1761V3.12917ZM22.267 3.12917H22.487V1.67463H22.267H22.047V3.12917H22.267ZM22.267 1.67463V1.89463H25.1761V1.67463V1.45463H22.267V1.67463ZM25.1761 1.67463H25.3961V0.220081H25.1761H24.9561V1.67463H25.1761ZM25.1761 0.220081V0.440081H26.6307V0.220081V8.13007e-05H25.1761V0.220081ZM26.6307 0.220081H26.4107V10.4019H26.6307H26.8507V0.220081H26.6307ZM26.6307 10.4019V10.6219H29.5398V10.4019V10.1819H26.6307V10.4019ZM29.5398 10.4019H29.3198V11.8564H29.5398H29.7598V10.4019H29.5398ZM29.5398 11.8564V11.6364H22.267V11.8564V12.0764H29.5398V11.8564ZM22.267 11.8564H22.487V10.4019H22.267H22.047V11.8564H22.267ZM22.267 10.4019V10.6219H25.1761V10.4019V10.1819H22.267V10.4019ZM25.1761 10.4019H25.3961V3.12917H25.1761H24.9561V10.4019H25.1761Z" fill="#F3B23F" mask="url(#path-87-outside-1_104_6644)"/>
<defs>
<clipPath id="clip0_104_6644">
<rect x="173" y="677.177" width="120" height="40" rx="20" fill="white"/>
</clipPath>
</defs>
</svg>
