<?xml version="1.0" standalone="no"?>
<!DOCTYPE svg PUBLIC "-//W3C//DTD SVG 20010904//EN"
 "http://www.w3.org/TR/2001/REC-SVG-20010904/DTD/svg10.dtd">
<svg version="1.0" xmlns="http://www.w3.org/2000/svg"
 width="260.000000pt" height="260.000000pt" viewBox="0 0 260.000000 260.000000"
 preserveAspectRatio="xMidYMid meet">
<metadata>
Created by potrace 1.11, written by Peter Selinger 2001-2013
</metadata>
<g transform="translate(0.000000,260.000000) scale(0.100000,-0.100000)"
fill="#000000" stroke="none">
<path d="M0 1300 l0 -1300 1300 0 1300 0 0 1300 0 1300 -1300 0 -1300 0 0
-1300z m469 576 c18 -10 41 -41 66 -88 21 -40 71 -127 110 -193 40 -66 75
-130 79 -142 12 -37 -19 -92 -59 -109 -82 -34 -130 16 -277 285 -74 137 -81
171 -47 215 36 45 80 56 128 32z m644 2 c55 -29 59 -69 21 -259 -67 -345 -186
-572 -398 -757 -133 -116 -187 -135 -244 -87 -70 59 -48 122 71 210 199 147
336 400 399 732 18 99 26 122 49 146 29 29 66 35 102 15z m1104 -94 c63 -46
63 -45 63 -521 0 -482 -1 -494 -65 -533 -31 -19 -49 -20 -408 -20 l-375 0 -33
27 c-57 48 -59 61 -59 405 0 188 4 328 11 351 5 21 23 52 39 71 l29 33 -39 12
c-47 14 -74 50 -74 96 0 38 26 83 57 95 12 5 203 8 424 7 389 -2 402 -3 430
-23z"/>
<path d="M1530 1290 c0 -326 4 -358 45 -374 9 -3 117 -6 240 -6 204 0 225 2
246 19 l24 19 3 299 c3 292 2 300 -18 326 l-21 27 -260 0 -259 0 0 -310z"/>
</g>
</svg>
