<?xml version="1.0" encoding="UTF-8"?>
<svg id="Layer_1" xmlns="http://www.w3.org/2000/svg" version="1.1" viewBox="0 0 283.46 82.84">
  <!-- Generator: Adobe Illustrator 30.2.1, SVG Export Plug-In . SVG Version: 2.1.1 Build 1)  -->
  <defs>
    <style>
      .st0 {
        fill: #231f20;
      }
    </style>
  </defs>
  <path class="st0" d="M150.73,35.86V0h10.3v35.86h-10.3Z"/>
  <path class="st0" d="M181.17,25.65v5.01h10.25v5.19h-15.45v-5.1h-5.1v-15.45h5.1v-5.1h15.45v5.1h5.1v10.34h-15.36ZM186.23,15.45h-5.06v5.01h5.06v-5.01Z"/>
  <path class="st0" d="M227.14,15.4v10.25h-5.06v10.2h-10.34v-10.2h-5.1v-10.25h-5.1v-5.19h15.4v15.35h5.01v-15.35h10.3v5.19h-5.1Z"/>
  <path class="st0" d="M247.6,25.65v5.01h10.25v5.19h-15.45v-5.1h-5.1v-15.45h5.1v-5.1h15.45v5.1h5.1v10.34h-15.36ZM252.65,15.45h-5.06v5.01h5.06v-5.01Z"/>
  <path class="st0" d="M273.06,35.86V0h10.3v35.86h-10.3Z"/>
  <path class="st0" d="M25.6,52.17v10.23h-5.06v15.34h-5.15v5.1H5.1v-5.2h10.2v-5.02h-5.1v-10.22h-5.1v-10.23H0v-5.19h15.4v15.35h5.01v-15.35h10.3v5.19h-5.1Z"/>
  <path class="st0" d="M56.31,67.53v5.1h-15.45v-5.1h-5.1v-15.45h5.1v-5.1h15.45v5.1h5.1v15.45h-5.1ZM51.12,52.22h-5.06v15.21h5.06v-15.21Z"/>
  <path class="st0" d="M86.88,72.63v-20.46h-5.06v20.46h-10.3v-25.65h5.19v5.06h5.01v-5.06h10.34v5.06h5.1v20.59h-10.3Z"/>
  <path class="st0" d="M122.58,72.63v-5.1h-5v5.1h-10.3v-35.86h10.3v20.46h5.01v-5.15h5.1v-5.1h5.19v5.24h-5.06v5.1h-5.1v5.01h5.1v5.1h5.06v5.19h-10.31Z"/>
  <path class="st0" d="M163.6,67.53v5.1h-15.45v-5.1h-5.1v-15.45h5.1v-5.1h15.45v5.1h5.1v15.45h-5.1ZM158.41,52.22h-5.06v15.21h5.06v-15.21Z"/>
</svg>