<svg width="24" height="24" viewBox="0 0 24 24" fill="none" xmlns="http://www.w3.org/2000/svg">
<path d="M11.7159 0C8.53435 0 8.13507 0.0139122 6.88547 0.0707803C5.63831 0.127892 4.78703 0.325344 4.04215 0.615054C3.27165 0.914283 2.61805 1.31456 1.96689 1.96598C1.31525 2.61715 0.914987 3.27077 0.614791 4.04105C0.324358 4.7862 0.126668 5.63775 0.0705337 6.88446C0.0146436 8.13409 0 8.53363 0 11.7153C0 14.897 0.0141558 15.2951 0.0707781 16.5447C0.128133 17.7919 0.325578 18.6432 0.615036 19.3881C0.914499 20.1586 1.31476 20.8123 1.96616 21.4634C2.61707 22.1151 3.27067 22.5164 4.04069 22.8156C4.78605 23.1053 5.63758 23.3027 6.88449 23.3599C8.13409 23.4167 8.53313 23.4306 11.7145 23.4306C14.8963 23.4306 15.2944 23.4167 16.544 23.3599C17.7911 23.3027 18.6434 23.1053 19.3888 22.8156C20.159 22.5164 20.8116 22.1151 21.4625 21.4634C22.1142 20.8123 22.5144 20.1586 22.8146 19.3884C23.1026 18.6432 23.3003 17.7917 23.3589 16.545C23.415 15.2953 23.4297 14.897 23.4297 11.7153C23.4297 8.53363 23.415 8.13434 23.3589 6.8847C23.3003 5.63751 23.1026 4.7862 22.8146 4.0413C22.5144 3.27077 22.1142 2.61715 21.4625 1.96598C20.8109 1.31431 20.1593 0.914039 19.388 0.615054C18.6412 0.325344 17.7894 0.127892 16.5423 0.0707803C15.2927 0.0139122 14.8948 0 11.7123 0L11.7159 0ZM10.665 2.1112C10.9769 2.11071 11.325 2.1112 11.7159 2.1112C14.8438 2.1112 15.2146 2.12243 16.4498 2.17856C17.592 2.23079 18.2119 2.42165 18.6248 2.58201C19.1715 2.79435 19.5613 3.04818 19.9711 3.45822C20.3811 3.86825 20.6349 4.25876 20.8478 4.80548C21.0081 5.21795 21.1992 5.83789 21.2512 6.98013C21.3073 8.21512 21.3195 8.58611 21.3195 11.7126C21.3195 14.8392 21.3073 15.2101 21.2512 16.4451C21.199 17.5874 21.0081 18.2073 20.8478 18.6198C20.6354 19.1665 20.3811 19.5558 19.9711 19.9656C19.5611 20.3756 19.1718 20.6295 18.6248 20.8418C18.2124 21.0029 17.592 21.1933 16.4498 21.2455C15.2148 21.3016 14.8438 21.3138 11.7159 21.3138C8.5878 21.3138 8.21707 21.3016 6.98212 21.2455C5.83991 21.1928 5.21999 21.0019 4.8068 20.8416C4.2601 20.6292 3.8696 20.3754 3.45957 19.9653C3.04955 19.5553 2.79573 19.1658 2.58291 18.6188C2.42256 18.2063 2.23146 17.5864 2.17947 16.4442C2.12334 15.2092 2.11211 14.8382 2.11211 11.7097C2.11211 8.58123 2.12334 8.21219 2.17947 6.97721C2.2317 5.83496 2.42256 5.21503 2.58291 4.80206C2.79524 4.25535 3.04955 3.86483 3.45957 3.4548C3.8696 3.04476 4.2601 2.79093 4.8068 2.5781C5.21975 2.41702 5.83991 2.22664 6.98212 2.17417C8.06282 2.12535 8.48163 2.11071 10.665 2.10827V2.1112ZM17.9693 4.05643C17.1932 4.05643 16.5635 4.68539 16.5635 5.46178C16.5635 6.23792 17.1932 6.86762 17.9693 6.86762C18.7454 6.86762 19.3751 6.23792 19.3751 5.46178C19.3751 4.68564 18.7454 4.05594 17.9693 4.05594V4.05643ZM11.7159 5.69901C8.39353 5.69901 5.69982 8.39281 5.69982 11.7153C5.69982 15.0378 8.39353 17.7304 11.7159 17.7304C15.0384 17.7304 17.7311 15.0378 17.7311 11.7153C17.7311 8.39281 15.0381 5.69901 11.7157 5.69901H11.7159ZM11.7159 7.81021C13.8725 7.81021 15.6209 9.55848 15.6209 11.7153C15.6209 13.8719 13.8725 15.6204 11.7159 15.6204C9.55917 15.6204 7.81095 13.8719 7.81095 11.7153C7.81095 9.55848 9.55917 7.81021 11.7159 7.81021Z" fill="#FE6A5A"/>
</svg>
