<svg width="24" height="20" viewBox="0 0 24 20" fill="none" xmlns="http://www.w3.org/2000/svg">
<path d="M7.54771 19.5166C16.6048 19.5166 21.5577 12.0088 21.5577 5.49827C21.5577 5.28502 21.5534 5.07274 21.5438 4.86141C22.5053 4.16596 23.3409 3.29809 24 2.31014C23.1177 2.70253 22.1683 2.96668 21.1723 3.08579C22.1889 2.47583 22.9694 1.51095 23.3376 0.360694C22.3862 0.925029 21.3327 1.33519 20.2109 1.55664C19.3123 0.59898 18.0331 0 16.6166 0C13.8974 0 11.6924 2.20646 11.6924 4.92624C11.6924 5.31287 11.7356 5.68893 11.82 6.04966C7.72761 5.84361 4.09875 3.88309 1.67011 0.901973C1.24724 1.63008 1.0034 2.47586 1.0034 3.37831C1.0034 5.08765 1.8727 6.59666 3.19462 7.47946C2.38676 7.45448 1.62787 7.23259 0.964581 6.86325C0.963856 6.88392 0.963854 6.90408 0.963854 6.92617C0.963854 9.31225 2.66115 11.3044 4.91422 11.7559C4.50046 11.8687 4.06513 11.9293 3.61582 11.9293C3.29902 11.9293 2.99038 11.8981 2.69038 11.8404C3.31725 13.798 5.13504 15.2226 7.29018 15.2624C5.60489 16.5841 3.48189 17.3713 1.17454 17.3713C0.777577 17.3713 0.38542 17.3488 0 17.3031C2.17922 18.7008 4.76684 19.5163 7.54798 19.5163" fill="#FE6A5A"/>
</svg>
